<svg width="79" height="42" viewBox="0 0 79 42" fill="none" xmlns="http://www.w3.org/2000/svg">
<g clip-path="url(#clip0_43_752)">
<path d="M0.902344 20.0792H68.6231C57.028 15.0134 55.7647 1.15154 55.7647 1.01338C55.7196 0.506803 56.0805 0.046277 56.5768 0.000224357C57.0731 -0.0458283 57.5243 0.322593 57.5694 0.829172C57.6145 1.61207 59.329 19.5265 77.2404 20.0792C77.5111 20.0792 77.7818 20.0792 78.0977 20.0792C78.5939 20.0792 79 20.5397 79 21.0002C79 21.4607 78.5939 21.9213 78.0977 21.9213C77.827 21.9213 77.5563 21.9213 77.2404 21.9213C59.2838 22.4739 57.6145 40.3884 57.5694 41.1713C57.5243 41.6318 57.1182 42.0002 56.667 42.0002C56.6219 42.0002 56.6219 42.0002 56.5768 42.0002C56.0805 41.9542 55.7196 41.4936 55.7647 40.9871C55.7647 40.8029 57.028 26.9871 68.578 21.8752H0.902344C0.406052 21.8752 0 21.4608 0 20.9542C0 20.4476 0.406052 20.0792 0.902344 20.0792Z" fill="black"/>
</g>
<defs>
<clipPath id="clip0_43_752">
<rect width="79" height="42" fill="white" transform="matrix(-1 0 0 1 79 0)"/>
</clipPath>
</defs>
</svg>
