<svg width="287" height="460" viewBox="0 0 287 460" fill="none" xmlns="http://www.w3.org/2000/svg">
<g clip-path="url(#clip0_43_706)">
<mask id="mask0_43_706" style="mask-type:luminance" maskUnits="userSpaceOnUse" x="58" y="68" width="229" height="392">
<path d="M287 68H58V459.922H287V68Z" fill="white"/>
</mask>
<g mask="url(#mask0_43_706)">
<path d="M217.133 388.435C204.762 369.416 187.832 343.39 190.549 331.554L191.194 329.674C200.317 303.157 205.855 287.04 193.235 270.103L200.3 262.544C204.15 266.465 207.102 269.955 209.244 272.719C215.321 280.554 224.52 285.167 233.986 285.167C234.235 285.167 234.484 285.164 234.733 285.157C246.108 284.865 253.805 278.832 254.128 278.577C254.377 278.378 278.664 258.549 261.633 234.393C260.533 232.832 259.128 230.899 257.49 228.643C241.982 207.284 200.784 150.544 209.84 116.666C209.887 116.488 209.914 116.31 209.924 116.135C215.004 102.594 214.904 90.983 208.518 83.6224C193.693 66.5373 151.449 79.7319 112.342 113.663C93.9827 129.592 79.3119 147.608 71.0333 164.401C62.405 181.893 61.6955 196.184 69.0326 204.641C73.3333 209.597 80.0046 212.099 88.5253 212.099C89.6013 212.099 90.7177 212.045 91.8542 211.964C92.0627 212.055 92.2813 212.132 92.5167 212.166C128.109 217.455 154.448 228.928 173.309 240.913L166.325 247.836C161.61 245.714 156.708 244.252 151.893 242.819C147.286 241.451 142.935 240.156 138.772 238.327C136.479 237.321 133.805 237.459 131.62 238.7C129.643 239.823 128.301 241.679 127.844 243.855C123.782 243.108 120.073 244.551 117.605 247.967C115.002 251.565 114.185 256.582 115.13 260.9C109.931 259.871 105.906 260.647 103.512 263.233C101.021 265.927 100.698 270.096 102.52 275.658C98.2599 274.743 93.9962 274.844 91.3331 277.558C88.1588 280.796 88.5085 286.28 92.399 294.256C92.1838 294.266 91.9753 294.27 91.7601 294.283C91.7265 294.283 91.6962 294.286 91.6659 294.29C87.4459 294.713 85.3006 296.865 84.2448 298.594C80.1324 305.329 85.0081 317.733 87.6275 324.398C87.8629 325 88.0815 325.558 88.2664 326.036C86.6053 327.993 85.7882 330.303 85.9093 332.828C86.2724 340.36 94.8503 349.745 111.397 360.72C112.093 367.704 117.268 373.017 124.071 379.991C134.569 390.755 188.023 462.068 200.014 497.765C200.381 498.857 201.4 499.547 202.496 499.547C202.771 499.547 203.054 499.503 203.33 499.409C204.698 498.948 205.438 497.465 204.977 496.097C192.606 459.27 138.651 387.443 127.82 376.336C118.418 366.696 114.128 362.297 117.988 352.67C122.524 341.362 138.651 323.103 166.819 293.365C167.142 293.022 167.367 292.602 167.471 292.141C168.914 285.735 163.665 275.796 158.631 266.982L157.871 265.648C157.357 264.733 156.341 264.215 155.296 264.336C150.053 264.941 143.678 262.14 138.641 257.049C134.693 253.061 132.504 248.499 132.924 245.143C133.059 244.057 133.785 243.492 134.209 243.253C134.972 242.816 135.873 242.769 136.674 243.122C141.136 245.082 145.85 246.481 150.406 247.836C159.596 250.57 168.278 253.152 175.39 259.972C175.457 260.035 175.525 260.096 175.599 260.15C202.425 280.954 197.691 294.717 186.251 327.972L185.562 329.977C185.542 330.047 185.522 330.118 185.498 330.188C182.092 344.16 198.38 369.201 212.752 391.289C219.342 401.421 260.587 467.68 262.514 472.741C262.756 473.373 263.284 473.87 263.943 474.022C266.448 474.6 268.008 472.387 267.265 470.518C265.046 464.936 223.757 398.61 217.14 388.435H217.133ZM107.352 266.787C108.956 265.056 113.67 265.382 119.367 267.621C126.176 270.298 133.51 275.416 137.454 280.571C137.575 280.799 137.716 281.018 137.911 281.213C137.925 281.226 137.945 281.243 137.958 281.257C139.471 283.398 140.369 285.53 140.362 287.477C140.356 290.591 137.817 293.17 132.82 295.147C128.785 289.428 121.421 283.886 114.118 280.076C112.806 279.39 110.994 278.513 108.943 277.685C106.518 272.379 105.916 268.344 107.356 266.791L107.352 266.787ZM95.0688 281.22C96.3231 279.942 100.163 279.992 105.688 282.023C105.937 282.174 106.212 282.275 106.495 282.336C108.105 282.965 109.841 283.745 111.697 284.713C122.86 290.534 131.546 299.401 130.668 304.078C130.214 306.489 126.774 308.261 120.927 309.139C118.869 305.359 115.432 301.792 111.229 299.145C108.297 297.299 103.959 295.268 98.4079 294.518C98.3944 294.492 98.3877 294.465 98.3742 294.438C94.0836 286.59 93.8516 282.464 95.0688 281.223V281.22ZM88.7069 301.321C89.1171 300.652 89.9174 299.737 92.1401 299.502C105.762 298.661 114.585 307.273 116.969 312.945C116.983 312.975 116.993 313.006 117.006 313.033C117.749 314.845 118.133 317.125 116.983 318.14C115.103 319.798 108.832 319.422 97.3487 312.881C96.0944 312.165 94.4939 312.602 93.781 313.86C93.0648 315.114 93.5019 316.715 94.7595 317.428C95.2303 317.697 95.6943 317.955 96.1516 318.204C96.0978 318.248 96.0406 318.285 95.9902 318.335L92.3082 322.004C90.2671 316.799 86.0337 305.699 88.7069 301.318V301.321ZM154.744 270.735C157.666 275.883 162.915 285.49 162.465 290.349C133.557 320.884 117.975 338.645 113.129 350.72C112.568 352.122 112.151 353.444 111.855 354.708C93.586 342.142 91.2591 335.088 91.138 332.572C91.0607 330.989 91.713 329.694 93.1892 328.497C93.2598 328.44 93.327 328.379 93.3909 328.315L99.689 322.038C100.15 321.577 100.392 320.988 100.439 320.387C112.07 325.868 117.722 324.465 120.449 322.058C122.534 320.218 123.328 317.377 122.759 314.132C130.547 312.76 134.939 309.71 135.816 305.036C136.136 303.338 135.921 301.566 135.292 299.771C143.755 296.237 145.591 291.163 145.598 287.477C145.598 285.793 145.231 284.111 144.572 282.46C145.551 282.087 146.62 281.472 147.777 280.517C149.878 278.782 153.439 274.451 154.747 270.725L154.744 270.735ZM134.918 260.725C139.29 265.143 144.619 268.119 149.781 269.192C148.813 271.616 145.443 276.566 142.662 277.605C142.212 277.773 141.987 277.759 141.829 277.679C136.993 271.169 128.415 265.617 121.596 262.873C119.414 260.039 119.511 254.262 121.848 251.034C123.368 248.932 125.409 248.384 128.069 249.322C128.987 253.112 131.368 257.13 134.922 260.725H134.918ZM253.253 231.719C254.874 233.952 256.263 235.865 257.352 237.409C271.526 257.51 251.703 273.805 250.866 274.481C250.799 274.531 244.151 279.683 234.595 279.928C226.514 280.107 218.596 276.243 213.377 269.511C212.711 268.654 211.965 267.722 211.148 266.737C219.823 264.709 244.504 256.824 253.163 231.592C253.193 231.632 253.227 231.679 253.253 231.719ZM72.9836 201.208C67.2 194.543 68.1987 181.97 75.7241 166.714C83.7034 150.534 97.927 133.096 115.769 117.614C141.882 94.9576 170.679 81.3863 189.123 81.3863C195.865 81.3863 201.228 83.2021 204.564 87.0488C213.424 97.2609 206.087 119.541 188.312 142.679L162.868 122.003C156.563 115.247 141.143 119.144 127.511 131.011C121.186 136.515 116.233 142.894 113.56 148.97C110.607 155.682 110.735 161.388 113.916 165.04C114.024 165.164 114.148 165.272 114.262 165.39L129.222 192.902C129.333 193.107 129.471 193.289 129.626 193.45C122.06 197.674 114.609 201.036 107.517 203.36C91.3532 208.656 78.7638 207.872 72.9802 201.204L72.9836 201.208ZM122.978 168.577C130.436 168.577 140.366 164.203 149.488 156.26C155.813 150.756 160.77 144.377 163.44 138.301C164.606 135.648 165.286 133.156 165.491 130.88L185.064 146.785C178.447 154.872 170.605 162.982 161.775 170.642C152.737 178.483 143.335 185.33 134.027 190.911C133.977 190.74 133.91 190.572 133.819 190.407L121.929 168.537C122.275 168.557 122.622 168.577 122.978 168.577ZM118.462 162.158L118.371 161.99C118.156 161.593 117.847 161.284 117.49 161.055C116.176 158.944 116.461 155.376 118.351 151.082C120.718 145.699 125.194 139.972 130.947 134.962C139.566 127.46 148.328 123.865 153.977 123.865C156.301 123.865 158.1 124.474 159.139 125.671C160.887 127.679 160.709 131.515 158.651 136.196C156.284 141.579 151.809 147.306 146.055 152.316C134.491 162.384 122.669 165.41 118.462 162.158ZM106.202 209.247C107.171 208.965 108.153 208.662 109.148 208.336C126.939 202.505 146.849 190.525 165.205 174.596C181.991 160.033 195.071 144.36 203.37 129.858C204.85 162.494 233.112 203.78 249.424 226.43C249.259 226.665 249.121 226.928 249.037 227.224C240.711 257.16 207.738 262.11 207.371 262.161C207.308 262.171 207.247 262.191 207.186 262.204C192.368 246.054 161.163 220.32 106.202 209.244V209.247ZM178.907 256.098C176.48 253.788 173.901 251.915 171.224 250.348L177.576 244.05C177.643 243.983 177.694 243.909 177.751 243.838C185.32 248.993 191.541 254.154 196.557 258.882L189.869 266.038C186.93 262.81 183.312 259.521 178.907 256.098Z" fill="black"/>
</g>
</g>
<g clip-path="url(#clip1_43_706)">
<path d="M22.95 140.598C24.2839 140.569 25.4885 141.4 25.9303 142.667L28.5604 150.19C29.4274 152.669 32.9453 152.585 33.6956 150.073L35.9798 142.437C36.3633 141.154 37.5262 140.264 38.86 140.234L45.6375 140.08C48.6219 140.013 49.7765 136.155 47.3214 134.45L41.7486 130.584C40.6523 129.823 40.1688 128.435 40.5523 127.156L42.4988 120.649C43.3575 117.781 40.0521 115.487 37.6804 117.301L33.0871 120.808C31.549 121.982 29.4316 122.032 27.8435 120.929L22.1622 116.983C20.0031 115.483 17.1896 117.631 18.0566 120.118L20.6742 127.608C21.116 128.87 20.695 130.274 19.6322 131.089L14.2427 135.206C11.8668 137.02 13.1965 140.824 16.1809 140.753L22.9542 140.598H22.95Z" fill="#FF3B27"/>
<path d="M3.62632 96.0977L11.1082 93.406C12.3628 92.9546 13.7675 93.3642 14.5887 94.4217L18.7402 99.7966C20.57 102.162 24.3506 100.804 24.2589 97.8113L24.0504 91.0194C24.0088 89.682 24.8341 88.4699 26.0887 88.0143L32.466 85.7155C35.2754 84.7041 35.1545 80.6791 32.2868 79.839L26.7431 78.2215C24.8882 77.6781 23.5919 76.0021 23.5294 74.0628L23.3168 67.1371C23.2376 64.504 19.8406 63.5134 18.3609 65.691L13.9092 72.253C13.159 73.3606 11.7793 73.8538 10.4997 73.4818L3.99313 71.5801C1.12541 70.7441 -1.13374 74.0711 0.69609 76.441L4.8476 81.8159C5.66457 82.8734 5.71042 84.3404 4.96014 85.448L0.487681 92.0351C-0.983689 94.2043 1.17126 96.9963 3.63466 96.1102L3.62632 96.0977Z" fill="#FF3B27"/>
<path d="M32.4702 43.3677C33.804 43.2966 35.0295 44.0991 35.5088 45.3488L37.9347 51.6935C39.0018 54.4896 43.0157 54.2807 43.7868 51.3884L45.5458 44.8264C45.8918 43.5349 47.0297 42.6112 48.3635 42.5401L55.1326 42.189C58.1129 42.0344 59.1549 38.1432 56.654 36.5131L51.8148 33.3575C50.1933 32.3001 49.4347 30.3189 49.9349 28.4465L51.7272 21.7549C52.4108 19.2095 49.4431 17.2785 47.4007 18.9337L41.2484 23.9241C40.2105 24.7684 38.7475 24.8436 37.6304 24.1122L31.9492 20.4091C29.4483 18.779 26.3221 21.3119 27.3934 24.108L29.8193 30.4527C30.2986 31.7024 29.9193 33.1193 28.8814 33.9636L22.7 38.9749C20.6659 40.6259 21.9247 43.9236 24.5382 43.7857L32.4786 43.3719L32.4702 43.3677Z" fill="#FF3B27"/>
<path d="M89.5952 33.7336L95.0555 29.7087C96.1309 28.9146 97.5939 28.9062 98.6777 29.6878L104.184 33.6501C106.61 35.3971 109.844 33.0106 108.906 30.1684L107.093 24.6722C106.485 22.8332 107.131 20.8061 108.685 19.6609L114.254 15.5565C116.372 13.9975 115.259 10.6287 112.633 10.6455L104.717 10.6873C103.384 10.6956 102.196 9.8388 101.775 8.5682L99.6447 2.11487C98.7068 -0.727263 94.6887 -0.706365 93.7842 2.14831L91.7251 8.62253C91.3208 9.89731 90.1412 10.7667 88.8074 10.775L80.8587 10.821C78.241 10.8377 77.174 14.1981 79.2998 15.7279L85.7563 20.3756C86.84 21.1572 87.2985 22.549 86.8942 23.8238L84.8351 30.298C83.9264 33.1485 87.1901 35.5016 89.5952 33.7295V33.7336Z" fill="#FF3B27"/>
<path d="M154.365 28.994L148.021 31.3847C146.77 31.857 145.361 31.4683 144.528 30.4192L139.568 24.1916C137.934 22.1394 134.641 23.3849 134.757 26.0055L135.12 33.9677C135.178 35.3052 134.374 36.5298 133.128 37.0021L126.784 39.3928C123.991 40.4461 124.17 44.4711 127.051 45.2652L133.586 47.0708C134.874 47.4261 135.787 48.5713 135.845 49.9087L136.154 56.6964C136.291 59.689 140.164 60.7548 141.806 58.2554L144.986 53.4196C146.049 51.8021 148.033 51.054 149.896 51.568L156.557 53.4071C159.091 54.1051 161.038 51.1459 159.396 49.0895L154.456 42.887C153.623 41.8421 153.556 40.375 154.29 39.2591L158.02 33.5832C159.662 31.0838 157.157 27.9365 154.36 28.9898L154.365 28.994Z" fill="#FF3B27"/>
<path d="M87.6986 64.9219C68.1665 72.0273 55.3827 96.0057 70.7091 113.318C77.1781 120.628 84.8517 122.609 93.9217 124.753C108.506 128.201 119.193 135.302 131.064 144.08C133.269 145.71 136.391 143.724 135.783 141.041C134.591 135.808 132.044 131.641 130.097 126.692C128.876 123.583 127.926 120.381 127.121 117.142C126.625 115.136 126.188 113.117 125.775 111.094C123.399 99.433 122.54 86.1167 116.526 75.6008C110.278 64.6795 99.5946 60.5877 87.6944 64.9136L87.6986 64.9219Z" fill="#FF3B27"/>
</g>
<defs>
<clipPath id="clip0_43_706">
<rect width="229" height="392" fill="white" transform="translate(58 68)"/>
</clipPath>
<clipPath id="clip1_43_706">
<rect width="160" height="152" fill="white"/>
</clipPath>
</defs>
</svg>
