<svg width="181" height="209" viewBox="0 0 181 209" fill="none" xmlns="http://www.w3.org/2000/svg">
<g clip-path="url(#clip0_215_14)">
<g style="mix-blend-mode:multiply">
<path d="M58.3967 113.925C58.3619 113.8 58.3614 113.607 58.2843 113.567C57.8056 113.318 57.7888 112.656 57.2618 112.461L56.964 110.903C56.8465 110.823 56.7373 110.749 56.5651 110.632C56.3059 110.155 56.3929 109.539 56.1881 109.041L56.4876 108.6L56.0511 106.315C56.1548 106.131 56.3464 105.948 56.3223 105.803C56.1909 105.039 56.4493 104.306 56.5366 103.576C56.6153 102.937 56.8478 102.26 57.1103 101.625C57.2973 101.169 57.0502 100.679 57.318 100.149C57.6153 99.5623 57.6609 98.8446 58.033 98.229C58.2773 97.8242 58.3072 97.2922 58.4914 96.5919C58.7994 96.1384 59.2501 95.4749 59.6922 94.8239C59.9549 94.6495 60.2112 94.4799 60.5284 94.2658C61.1631 94.3931 61.8694 94.609 62.5277 95.2617C62.682 95.4953 62.5036 96.0922 63.1084 96.2544L63.3293 97.4109C63.4923 97.5369 63.6468 97.6572 63.8224 97.7918L64.0406 98.9342C64.2057 99.0525 64.3631 99.1686 64.5247 99.2876L64.6723 100.06C64.8339 100.179 64.9948 100.294 65.1606 100.416L65.3088 101.192C65.637 101.341 65.7721 101.589 65.8684 101.94C65.9661 102.279 66.3066 102.551 66.4156 102.892C66.5219 103.218 66.5968 103.515 66.9638 103.657L68.0193 109.182C67.9535 109.297 67.8577 109.465 67.7455 109.662L67.8816 110.374C67.7788 110.697 67.4122 110.92 67.6391 111.305C67.1864 111.957 66.7344 112.614 66.2938 113.254C65.7886 113.632 65.2926 114 64.6308 114.496L60.8933 115.21C60.4877 115.057 60.0052 114.923 59.5636 114.697C59.1508 114.487 58.7859 114.184 58.4031 113.921L58.3967 113.925ZM60.4717 98.6366C60.3577 98.958 60.4814 99.3949 60.1586 99.6758C60.3676 100.1 59.9182 100.369 59.9036 100.751C59.8912 101.05 59.6851 101.349 59.6967 101.639C59.7173 102.033 59.22 102.3 59.4768 102.726C59.7281 103.142 59.3031 103.443 59.2366 103.803C59.1408 104.296 59.0044 104.768 59.0937 105.273C58.5464 105.795 59.139 106.39 58.9878 106.938C58.9136 107.047 58.8395 107.157 58.7625 107.27L59.4219 110.722C59.6983 111.078 59.8523 111.272 60.0841 111.567C60.5041 111.853 61.0458 112.221 61.6673 112.643L62.7463 112.437C62.8424 112.309 62.9592 112.155 63.0903 111.98C63.3265 111.935 63.7211 111.973 63.8161 111.819C64.1379 111.323 64.8726 111.267 65.0226 110.617C64.9893 110.309 64.9554 109.997 64.9308 109.753C65.0563 109.569 65.1304 109.459 65.2103 109.342L64.3124 104.642C64.176 104.54 64.0186 104.424 63.8521 104.299L63.7073 103.541C63.5457 103.422 63.3848 103.306 63.2232 103.187L63.077 102.422C62.9112 102.3 62.7538 102.184 62.6258 102.088C62.4807 101.768 62.6356 101.355 62.2633 101.185C61.7191 100.938 62.1255 100.1 61.4636 99.9455C61.418 99.9359 61.3729 99.8531 61.3593 99.8009C61.3024 99.5414 61.2737 99.2764 61.1998 99.0237C61.1485 98.8508 61.0422 98.6957 60.966 98.5458L60.4653 98.6414L60.4717 98.6366Z" fill="black"/>
<path d="M21.5754 112.923L22.0071 115.183L22.4061 115.454L22.7752 117.387C22.9382 117.513 23.0956 117.629 23.2662 117.757L23.5633 119.312C23.4655 119.469 23.3626 119.639 23.2527 119.81L23.5242 121.231C23.2957 122.005 23.1835 122.699 22.8896 123.303C22.5721 123.956 22.0891 124.527 21.6749 125.133C21.5542 125.17 21.4069 125.184 21.3147 125.256C21.1665 125.38 21.0588 125.543 20.9066 125.722L18.9674 126.092C18.8259 126.002 18.651 125.794 18.4967 125.809C18.217 125.837 18.0004 125.813 17.761 125.65C17.6224 125.556 17.3989 125.591 17.1514 125.558C16.5509 125.15 15.908 124.674 15.2223 124.26C14.6032 123.889 14.1054 123.406 13.6172 122.63L13.5114 122.076C13.3456 121.955 13.1882 121.838 13.0392 121.728L12.14 117.021C12.2198 116.903 12.294 116.794 12.4252 116.601L12.1167 114.986C12.7782 114.527 12.0217 113.762 12.5913 113.339C12.5014 112.83 12.5198 112.333 12.7786 111.87C12.5261 111.275 12.9184 110.765 13.023 110.223C13.1299 109.673 13.2911 109.101 13.713 108.669C13.6272 108.086 14.0387 107.716 14.3114 107.287C14.1204 106.574 14.8389 106.28 14.9775 105.723L16.5994 105.414C16.856 105.705 17.1362 106.024 17.4256 106.352L17.5967 107.248C17.847 107.602 17.997 108.005 18.287 108.183C18.7099 108.446 18.6502 108.841 18.8007 109.189C18.8931 109.405 19.1305 109.557 19.2978 109.744C19.6695 110.159 19.9022 110.688 20.3589 111.032C20.2318 111.649 20.8259 111.908 21.029 112.359C21.1036 112.52 21.2864 112.635 21.5754 112.923ZM15.7495 120.764C16.114 121.199 16.5187 121.538 16.7184 121.972C16.8788 122.314 17.1543 122.608 17.3839 122.605C18.031 122.587 18.4017 123.112 18.9227 123.276C19.195 123.209 19.4427 123.147 19.6381 123.099C20.0146 122.544 20.3483 122.053 20.6849 121.558C20.697 121.372 20.6783 121.179 20.7291 121.005C20.7799 120.83 20.896 120.673 20.926 120.62L20.1716 116.671C20.012 116.562 19.9028 116.488 19.7726 116.4L19.3294 114.08C19.1707 113.957 19.0168 113.84 18.8538 113.714C18.8951 113.011 18.2964 112.632 17.9707 112.114C17.6131 111.542 16.9929 111.127 16.941 110.377C16.7184 110.226 16.5 110.078 16.2816 109.929C15.6288 110.606 15.8137 111.612 15.3193 112.372L15.4634 113.126C15.3564 113.293 15.2529 113.459 15.143 113.63L15.2871 114.384C15.1764 114.57 15.0764 114.735 14.9736 114.905L15.342 116.833C15.2565 116.959 15.1823 117.068 15.0711 117.232L15.7453 120.762L15.7495 120.764Z" fill="black"/>
<path d="M49.0812 117.503C48.9622 117.665 48.8468 117.826 48.745 117.962L46.1605 118.456C45.6954 118.336 45.3955 118.258 45.0035 118.158C44.8146 118.03 44.5231 117.862 44.2673 117.652C43.9765 117.411 43.542 117.337 43.4441 116.862C43.3784 116.557 42.8936 116.525 42.8993 116.115C42.9044 115.759 42.7478 115.475 42.3761 115.385L42.0723 113.795C41.9065 113.673 41.7485 113.554 41.5827 113.432L40.9812 110.283C41.0516 110.193 41.13 110.087 41.2881 109.881C41.2656 109.381 41.0628 108.817 41.0202 108.364C41.2196 107.782 41.4566 107.32 41.5171 106.833C41.5639 106.466 41.3973 106.111 41.6542 105.714C41.7955 105.497 41.8889 105.107 41.9081 104.844C41.9439 104.285 42.4392 103.759 42.064 103.173C42.4236 102.702 42.3943 102.108 42.5706 101.578C42.7839 100.934 42.9662 100.282 43.2148 99.4592C43.3346 99.2829 43.5599 98.9511 43.8081 98.5858L45.0174 98.3547C45.1666 98.4468 45.3865 98.5839 45.6561 98.7517L45.8534 99.7847C46.8269 100.863 47.5172 102.047 48.4406 103.055C48.7733 103.419 48.5984 104.11 49.2112 104.315C49.3645 105.404 50.3484 105.925 50.9517 107.074C50.9396 107.01 50.9887 107.268 51.0372 107.522C51.203 107.643 51.3604 107.759 51.5262 107.881L51.7492 109.048C51.8626 109.125 51.9718 109.2 52.0851 109.277C52.1426 109.386 52.2318 109.49 52.2541 109.606C52.4014 110.32 52.5311 111.037 52.6618 111.721L52.3794 112.137L52.638 113.491C52.5322 113.931 52.5152 114.263 52.375 114.524C52.0658 115.106 51.6985 115.651 51.3751 116.177C51.1609 116.28 50.9008 116.315 50.8419 116.447C50.6388 116.895 49.9868 116.829 49.8725 117.341L49.0933 117.49L49.0812 117.503ZM43.5074 108.624L44.4753 113.691C44.637 113.81 44.7979 113.925 44.9595 114.044L45.1057 114.809C45.2274 114.892 45.3657 114.946 45.4394 115.045C45.5828 115.241 45.6914 115.465 45.8114 115.672L48.216 115.213C48.3976 114.977 48.5349 114.644 48.9395 114.676C49.0447 114.232 49.5473 114.242 49.6974 114.052C49.8144 113.632 49.8972 113.338 50.0185 112.902L49.2769 109.02C49.1257 108.515 48.8244 108.507 48.6967 108.221C48.4949 107.777 48.1332 107.433 48.0026 106.903C47.9101 106.533 47.4188 106.276 47.1528 105.936C46.891 105.598 46.5126 105.225 46.4961 104.851C46.4706 104.297 45.8651 104.226 45.7983 103.724C45.7666 103.481 45.2514 103.386 45.2683 102.977C45.27 102.948 45.0879 102.913 44.9903 102.881C44.8405 103.11 44.6999 103.331 44.5514 103.567C44.9965 104.539 43.9362 105.359 44.2932 106.328C43.8844 107.039 43.9409 107.909 43.5123 108.63L43.5074 108.624Z" fill="black"/>
<path d="M33.1296 105.435L33.2502 106.066C33.4118 106.185 33.5727 106.301 33.7217 106.411L33.8517 107.092C34.8276 107.972 35.2412 109.315 36.1334 110.599L36.4635 112.327C36.6257 112.449 36.7803 112.569 36.9516 112.701L37.6987 116.611C37.6059 116.757 37.5024 116.923 37.3967 117.097C37.521 117.537 37.4557 117.922 37.2736 118.385C37.0757 118.879 37.0804 119.478 36.7974 119.967C36.6359 120.25 36.4764 120.62 36.2162 120.75C35.5947 121.055 35.1906 121.714 34.5422 121.878C33.9636 122.025 33.7074 122.75 32.9604 122.589C32.8497 122.526 32.6816 122.43 32.4841 122.315L31.391 122.524C31.0573 122.441 30.8541 122.008 30.4882 122.312C29.8052 121.836 29.1516 121.38 28.4818 120.916C28.1318 120.442 27.7665 119.945 27.2647 119.27L26.2469 113.942C26.2842 113.869 26.3694 113.703 26.5155 113.416C26.4636 113.144 26.3092 112.757 26.3399 112.382C26.3705 112.026 26.7048 111.71 26.519 111.292C26.3443 110.894 26.9542 110.624 26.7135 110.206C27.0118 109.911 26.9168 109.491 27.0641 109.152C27.3314 108.524 27.3053 107.794 27.6961 107.219C28.064 106.677 28.0123 105.985 28.287 105.472C28.6512 104.796 28.7882 104.021 29.2096 103.396L30.4578 103.157C30.6164 103.375 30.7939 103.616 30.9713 103.856L31.4121 103.772C31.7164 103.987 32.0682 104.183 32.3538 104.454C32.6212 104.706 32.8149 105.031 33.1247 105.429L33.1296 105.435ZM34.1359 112.826L33.7621 110.869C33.6005 110.75 33.4431 110.634 33.2779 110.516L33.1587 109.892C32.8398 109.485 32.6706 109.097 32.3708 108.924C31.8973 108.645 32.2508 107.989 31.7393 107.78C31.2827 107.59 31.5718 107.037 31.2231 106.742C31.0571 106.639 30.8505 106.514 30.6432 106.385C31.103 107.032 29.9434 107.294 30.3171 107.873C29.9317 108.323 29.9876 108.941 29.6495 109.448C29.3314 109.925 29.12 110.598 29.3571 111.265C29.2593 111.422 29.1558 111.588 29.0479 111.77L29.1934 112.531C29.0877 112.705 28.9807 112.872 28.8743 113.042L29.3937 115.76C29.2851 115.938 29.1823 116.108 29.0981 116.241L29.4766 118.222C30.0084 119.341 31.0961 119.583 32.0564 119.904L33.6219 119.605C34.0954 118.908 34.5432 118.248 35.0024 117.572C34.9449 117.137 34.8861 116.696 34.8345 116.311C34.9571 116.13 35.0313 116.021 35.1226 115.887C34.9643 115.058 34.8061 114.211 34.6374 113.366C34.6152 113.25 34.5231 113.151 34.4621 113.042C34.3529 112.967 34.2437 112.893 34.1304 112.816L34.1359 112.826Z" fill="black"/>
<path d="M165.214 145.093C165.651 144.358 166.59 144.205 167.024 143.457C167.409 142.791 168.292 142.648 168.699 141.985L169.873 141.761C170.663 142.188 169.607 142.685 169.96 143.173C169.231 143.989 168.861 145.072 167.964 145.81C167.389 146.281 166.93 146.903 166.3 147.319C166.145 147.422 165.915 147.404 165.696 147.445C165.588 147.59 165.468 147.745 165.34 147.915L164.582 148.06C164.46 148.226 164.344 148.383 164.222 148.549L162.667 148.846C162.513 149.073 162.362 149.296 162.205 149.526L163.552 156.575C163.442 156.749 163.339 156.915 163.229 157.086L163.424 158.108C163.284 158.596 163.225 158.976 163.065 159.306C162.874 159.705 162.569 160.019 162.561 160.532C162.555 160.884 161.992 161.112 162.057 161.549C162.12 161.957 161.589 162.216 161.841 162.639C161.207 163.319 161.201 164.318 160.584 165.028C160.063 165.629 159.672 166.339 159.375 166.772C158.48 167.447 157.76 167.925 157.145 168.547C156.291 168.611 155.83 169.661 154.907 169.384C154.737 169.603 154.617 169.757 154.481 169.929L152.56 170.296C152.472 170.412 152.393 170.514 152.312 170.625C152.211 170.688 152.117 170.79 152.005 170.815C151.549 170.917 151.089 170.997 150.638 171.084C150.525 171.007 150.411 170.93 150.218 170.798L148.455 171.135C147.596 170.886 147.004 170.711 146.242 170.491C145.289 169.847 144.188 169.096 143.18 168.412C142.78 167.885 142.498 167.383 142.095 167.018C141.698 166.659 141.982 165.907 141.287 165.773L141.138 164.994C140.973 164.872 140.815 164.756 140.65 164.637C140.602 164.383 140.552 164.123 140.501 163.858C140.392 163.784 140.279 163.71 140.073 163.567C140.016 163.348 139.936 163.042 139.855 162.735C139.746 162.661 139.637 162.587 139.444 162.456L138.994 160.1C138.801 159.969 138.692 159.895 138.498 159.764L137.592 155.022C137.117 154.831 136.746 155.048 136.367 155.091C136.038 155.132 135.717 155.212 135.407 155.271C135.277 155.183 135.168 155.108 135.059 155.034C135 155.013 134.938 154.959 134.885 154.969C133.509 155.224 132.134 155.491 130.759 155.75C130.699 155.761 130.634 155.748 130.571 155.745C130.462 155.671 130.349 155.598 130.156 155.466L126.623 156.141C126.43 156.01 126.321 155.936 126.128 155.805L123.378 156.33C123.184 156.199 123.075 156.125 122.949 156.039L119.441 156.709C119.267 156.6 119.101 156.497 118.923 156.388L114.604 157.213C114.501 157.138 114.395 157.059 114.341 157.022C114.226 156.96 114.163 156.896 114.113 156.905C113.199 157.072 112.286 157.25 111.391 157.421C111.256 157.33 111.147 157.256 110.954 157.125L108.99 157.5C108.797 157.369 108.688 157.295 108.495 157.163L106.531 157.539C106.337 157.407 106.228 157.333 106.035 157.202L104.071 157.577C103.878 157.446 103.769 157.372 103.643 157.286L101.7 157.657C101.526 157.548 101.36 157.445 101.189 157.335L99.6234 157.634C99.5142 157.56 99.4044 157.482 99.2154 157.354L97.2479 157.73C97.0548 157.598 96.9456 157.524 96.7524 157.393L94.3971 157.843C94.2039 157.712 94.0947 157.638 93.9016 157.506L92.329 157.807C92.1358 157.676 92.0266 157.601 91.8881 157.507L89.9629 157.875C89.7822 157.771 89.6169 157.671 89.4236 157.558L87.4949 157.926C87.3205 157.817 87.1546 157.714 86.9838 157.604L84.2441 158.127C84.1307 158.05 84.0216 157.976 83.8494 157.859C82.7818 157.895 81.7119 158.282 80.6028 158.388C80.4936 158.314 80.3838 158.236 80.1906 158.105L77.4404 158.63C77.2472 158.499 77.138 158.425 76.9449 158.294L74.1947 158.819C74.0015 158.688 73.8923 158.614 73.7579 158.522L58.0395 161.525C57.9519 161.641 57.8316 161.795 57.6998 161.966L54.9849 162.485C54.8631 162.651 54.747 162.808 54.6251 162.974L52.6824 163.345C52.557 163.512 52.4409 163.669 52.3298 163.815L51.332 164.005C51.2741 164.027 51.1733 164.036 51.1589 164.075C50.9725 164.629 50.3026 164.432 50.0584 164.742C49.7708 165.111 49.3663 165.079 49.0766 165.284C48.7096 165.544 48.3622 165.753 47.9383 165.925C47.6295 166.05 47.4054 166.407 46.9865 166.491C46.7121 166.547 46.4851 166.832 46.2392 167.017C45.9926 167.2 45.7523 167.396 45.4924 167.566C44.5862 168.159 44.0225 169.111 43.1253 169.637L48.875 199.734C48.9738 199.792 49.0344 199.861 49.0838 199.851C51.1795 199.458 53.2697 199.055 55.35 198.658C55.4356 198.532 55.5097 198.423 55.5867 198.309C55.6329 198.264 55.6708 198.195 55.723 198.181C57.3584 197.865 58.9944 197.552 60.6297 197.236C60.6897 197.225 60.7449 197.189 60.8028 197.167C60.877 197.057 60.9547 196.948 61.0823 196.755L74.4349 194.204C74.5661 194.011 74.6403 193.902 74.7715 193.709L79.877 192.733L80.1708 192.301L85.643 191.255C85.7648 191.09 85.8844 190.931 86.0062 190.766L93.467 189.34C93.5306 189.233 93.6006 189.121 93.617 189.092C93.7209 188.967 93.7554 188.88 93.8013 188.871C96.938 188.264 100.08 187.668 103.204 187.071L103.444 186.718C103.491 186.676 103.529 186.61 103.581 186.593C103.708 186.554 103.841 186.54 103.971 186.515C117.782 183.877 131.593 181.238 145.404 178.6C145.464 178.588 145.519 178.552 145.577 178.526C145.651 178.417 145.724 178.305 145.856 178.115L156.067 176.164C156.198 175.971 156.273 175.862 156.404 175.669L161.509 174.693C161.64 174.5 161.715 174.391 161.8 174.265L169.631 172.769C169.753 172.603 169.869 172.446 169.994 172.279L173.919 171.53C174.174 171.145 174.433 170.759 174.703 170.353L174.334 168.424C174.443 168.25 174.546 168.08 174.656 167.91L174.584 167.532C174.886 167.087 175.186 166.646 175.574 166.075C175.193 165.976 174.812 165.877 174.666 165.836L173.853 161.58C173.92 161.475 173.99 161.363 174.061 161.255C174.094 161.197 174.163 161.137 174.153 161.087C173.66 158.47 173.157 155.854 172.66 153.252C172.746 153.126 172.82 153.017 172.897 152.904C172.922 152.844 172.976 152.783 172.966 152.73C171.857 146.904 170.744 141.079 169.634 135.25C169.622 135.191 169.636 135.126 169.635 135.064C169.709 134.955 169.782 134.842 169.892 134.686L169.201 131.072C169.067 130.981 168.953 130.904 168.764 130.772L168.238 128.022C168.045 127.89 167.936 127.816 167.806 127.728L167.361 125.401C167.195 125.279 167.037 125.159 166.871 125.037L166.569 123.454C165.919 123.019 165.225 122.615 164.603 122.116C164.223 121.808 163.751 121.866 163.375 121.638C162.974 121.396 162.6 121.117 162.214 120.858C161.828 120.596 161.475 120.225 161.049 120.098C160.48 119.932 159.939 119.74 159.517 119.349C159.064 118.927 158.345 119.182 157.951 118.65C157.773 118.407 157.424 118.59 157.245 118.475C156.95 118.29 156.643 118.308 156.351 118.214C156.048 118.119 155.741 117.907 155.529 117.662C155.187 117.267 154.662 117.484 154.292 117.193C153.936 116.914 153.527 116.535 153.124 116.514C152.581 116.482 152.339 115.977 151.919 115.943C151.411 115.902 150.93 115.756 150.488 115.585C150.077 115.426 149.633 115.32 149.235 115.228C148.777 115.122 148.305 114.701 147.752 115.037C147.667 115.089 147.418 114.801 147.251 114.807C146.733 114.833 146.308 114.483 145.802 114.492C145.436 114.013 144.943 114.532 144.512 114.322C144.073 114.109 143.549 113.888 143.099 113.945C142.292 114.044 141.671 113.53 140.916 113.481C140.569 113.46 140.242 113.105 139.898 112.897L118.711 116.945C118.634 117.058 118.56 117.167 118.483 117.28C118.44 117.325 118.4 117.402 118.351 117.412C112.858 118.465 107.365 119.514 101.9 120.558C101.8 120.705 101.726 120.814 101.617 120.974L87.1613 123.736C87.0205 123.898 86.8946 124.042 86.6785 124.288L77.2996 126.08C77.1684 126.273 77.0942 126.382 77.0029 126.517L71.9327 127.485C71.8074 127.652 71.6871 127.806 71.5589 127.977L64.5212 129.322C64.3994 129.487 64.2797 129.646 64.1614 129.811L56.3198 131.309L56.0916 131.645C56.049 131.689 56.0089 131.766 55.9596 131.776C54.3954 132.082 52.8257 132.378 51.2955 132.671C51.1928 132.822 51.1186 132.931 51.0102 133.091L41.2647 134.952C41.1239 135.114 40.998 135.259 40.7854 135.504L30.2253 137.522L29.9315 137.954L14.266 140.947C14.1406 141.114 14.0239 141.267 13.8957 141.438L12.7427 141.658C12.5438 142.186 11.9169 142.233 11.6209 142.673C11.5182 142.824 11.1313 142.788 10.9127 142.83C10.6588 143.204 10.4335 143.536 10.2396 143.821C10.1234 144.227 10.0203 144.587 9.91793 144.95L10.1301 146.061L10.5291 146.332L18.111 186.019C18.0595 186.113 17.9672 186.28 17.8699 186.46C18.0051 186.708 18.4502 186.762 18.3568 187.229C19.3979 187.896 20.4523 188.576 21.5095 189.251C22.3187 189.144 22.6426 190.113 23.4058 190.109C23.4713 190.108 23.5363 190.084 23.6032 190.072C24.2668 190.522 24.9039 191.007 25.5946 191.409C26.265 191.8 26.798 192.37 27.6027 192.604C28.3338 192.815 28.9633 193.375 29.677 193.801L30.0084 193.738C30.7065 194.35 31.6619 194.416 32.4125 194.901C33.0466 194.758 33.3222 195.703 34.0033 195.423C34.6835 196.057 35.7216 196.019 36.3838 196.693C36.7147 197.028 37.2452 196.821 37.6181 197.166C37.9827 197.506 38.4041 197.78 38.9875 197.811C39.3971 197.832 39.6458 198.464 40.2047 198.31C40.2915 198.286 40.419 198.437 40.5389 198.491C41.006 198.697 41.3013 199.229 41.9021 199.199C42.4445 199.168 42.6756 199.957 43.2963 199.744C43.853 200.094 44.4138 200.447 44.7955 200.685C45.1074 201.093 45.2967 201.339 45.5648 201.689L45.7614 202.719C45.4325 202.986 45.0971 203.259 44.7554 203.536C44.2252 203.63 43.9509 202.941 43.5725 202.987C42.9269 203.07 42.6674 202.382 42.1749 202.425C41.6099 202.47 41.3449 201.849 40.9713 201.902C40.4695 201.972 40.1632 201.402 39.7021 201.647C39.0909 201.413 38.7082 200.807 37.9871 200.743C37.4222 200.694 37.0782 200.022 36.4141 200.123C36.2541 200.146 36.0462 199.919 35.8953 199.951C35.4848 200.041 35.1179 200.053 34.8017 199.736C34.425 199.907 34.2002 199.61 33.9134 199.468C33.5223 199.276 33.0299 199.223 32.7147 198.951C32.3332 198.618 31.8405 198.775 31.4719 198.49C31.1033 198.206 30.6658 198.001 30.3285 197.689C30.0079 197.389 29.5684 197.575 29.265 197.326C28.7261 196.877 27.9935 196.677 27.6726 195.935C27.5614 195.678 27.1706 195.449 26.8684 195.379C25.6747 195.099 24.8167 194.262 23.8379 193.634C22.8892 193.029 21.9712 192.375 21.0977 191.782C20.8843 191.793 20.754 191.8 20.6272 191.806C19.3589 190.945 18.0907 190.083 16.9316 189.296C16.4791 188.706 16.1039 188.215 15.6215 187.584L7.32082 144.134C7.36585 143.892 7.77109 143.679 7.52957 143.276C7.98915 142.64 8.45796 141.994 8.9902 141.261C9.62802 140.773 10.3608 140.209 11.2446 139.536L12.2106 139.352C12.3402 139.188 12.4612 139.037 12.6021 138.857L14.1288 138.565C14.2507 138.399 14.3668 138.242 14.4886 138.076L35.302 134.1C35.3691 133.992 35.439 133.88 35.4761 133.825C35.5629 133.725 35.5946 133.642 35.6439 133.632C37.4725 133.276 39.3031 132.93 41.1154 132.583C41.2067 132.449 41.2809 132.34 41.4121 132.147L50.8368 130.346C50.968 130.153 51.0422 130.044 51.1734 129.851L56.6702 128.801C56.8015 128.607 56.8756 128.498 57.0068 128.305L64.8625 126.804C64.9937 126.611 65.0679 126.502 65.1534 126.376L71.4154 125.18C71.5373 125.014 71.6534 124.856 71.7717 124.691L78.4427 123.417C78.5168 123.308 78.5903 123.195 78.6495 123.103C78.7064 123.038 78.7423 122.958 78.7917 122.948C82.7153 122.195 86.6396 121.445 90.5428 120.7C90.6369 120.561 90.7111 120.452 90.8423 120.259L102.626 118.007C102.757 117.814 102.831 117.705 102.962 117.512L119.065 114.436C119.196 114.242 119.271 114.133 119.365 113.995L139.374 110.172C139.817 110.5 140.42 110.48 140.928 110.785C141.381 111.057 141.975 111.122 142.512 111.257C142.819 111.334 143.082 111.463 143.426 111.43C143.714 111.404 144.062 111.699 144.31 111.616C144.808 111.451 145.182 111.822 145.603 111.785C146.009 111.751 146.268 112.265 146.697 112.004C147.172 111.716 147.498 112.465 147.976 112.194C148.297 112.553 148.715 112.313 149.066 112.388C150.029 112.591 150.952 112.963 151.918 113.184C152.395 113.291 152.878 113.425 153.346 113.58C154.003 113.802 154.738 113.885 155.241 114.41C155.638 114.824 156.232 114.604 156.648 114.985C157.015 115.321 157.44 115.576 158.012 115.642C158.424 115.691 158.774 116.147 159.18 116.38C159.504 116.563 159.947 116.416 160.232 116.76C160.588 117.185 161.215 116.967 161.624 117.349C162.01 117.707 162.539 117.913 162.923 118.274C163.333 118.664 163.922 118.456 164.333 118.846C164.713 119.208 165.203 119.458 165.643 119.757C165.772 119.74 165.904 119.722 166.061 119.703C166.858 120.263 167.673 120.835 168.598 121.488C168.649 121.661 168.74 121.961 168.831 122.266C168.94 122.34 169.053 122.413 169.242 122.545L169.692 124.901C169.885 125.032 169.995 125.106 170.188 125.237L170.563 127.201C170.756 127.332 170.865 127.406 170.991 127.492L171.962 132.573C172.128 132.695 172.285 132.811 172.452 132.936L175.979 151.398C175.906 151.496 175.828 151.602 175.793 151.649C175.728 151.767 175.663 151.831 175.672 151.88C176.24 154.889 176.818 157.896 177.389 160.886C177.298 161.02 177.224 161.129 177.11 161.297L177.675 164.256C177.518 164.772 177.373 165.183 177.267 165.602C177.152 166.055 176.632 166.012 176.414 166.342C176.899 166.567 176.946 167.172 177.401 167.454C177.555 167.549 177.517 167.944 177.559 168.163C177.437 168.369 177.338 168.537 177.253 168.685L177.671 170.871C177.413 171.513 177.36 172.268 176.826 172.765C176.329 173.225 175.761 173.615 175.106 174.128L173.315 174.47C173.193 174.636 173.073 174.794 172.948 174.96L165.487 176.386C165.424 176.493 165.354 176.605 165.34 176.629C165.233 176.759 165.199 176.846 165.153 176.855C162.929 177.287 160.707 177.708 158.5 178.13C158.412 178.26 158.338 178.369 158.263 178.478C158.217 178.52 158.179 178.593 158.126 178.603C155.183 179.169 152.235 179.732 149.292 180.298C149.232 180.31 149.177 180.346 149.12 180.371C149.045 180.48 148.972 180.593 148.84 180.783L106.815 188.811C106.684 189.005 106.609 189.114 106.478 189.307L95.8759 191.332C95.7447 191.526 95.6705 191.635 95.5849 191.761L89.3265 192.956C89.2047 193.122 89.0885 193.28 88.9632 193.446L81.8973 194.796C81.8302 194.904 81.7602 195.016 81.7267 195.07C81.6406 195.174 81.6054 195.257 81.556 195.267C79.7274 195.623 77.8968 195.969 76.0845 196.316C75.9932 196.45 75.9191 196.559 75.7879 196.752L60.4714 199.679L60.1348 200.174L55.4207 201.075C55.2895 201.268 55.2153 201.377 55.1354 201.495L46.3912 203.165C46.306 203.083 46.2296 203.046 46.2195 202.993C46.0629 202.212 45.9176 201.432 45.7748 200.684C45.8746 200.537 45.9516 200.424 46.06 200.264L45.8943 199.397C45.7683 199.312 45.6549 199.235 45.5248 199.146L44.4591 193.568C44.5675 193.409 44.6417 193.299 44.7301 193.169L41.4275 175.882C41.3037 175.788 41.1498 175.672 40.9791 175.543L38.6586 163.397C38.4928 163.275 38.3354 163.159 38.1696 163.037L37.3478 158.735C37.2303 158.656 37.1211 158.581 37.0119 158.507C36.7451 158.182 36.8036 157.761 36.6927 157.391C36.6161 157.296 36.5452 157.193 36.4551 157.104C35.6816 156.346 34.5822 156.406 33.6634 155.997C33.2798 155.825 32.7262 155.931 32.4249 155.692C31.8431 155.23 31.0286 155.309 30.5319 154.775C30.0534 154.26 29.3237 154.381 28.7936 153.978C28.297 153.598 27.8324 153.098 27.0896 153.112C26.8713 153.117 26.6627 152.81 26.4244 152.691C25.7403 152.343 25.2464 151.728 24.3873 151.593C23.7355 151.49 23.3077 150.648 22.4998 150.703C22.0674 150.391 21.6392 150.082 21.2656 149.81C21.0449 149.841 20.9131 149.859 20.7855 149.88C19.5173 149.018 18.2405 148.169 16.9865 147.287C16.5561 146.985 16.0014 147.066 15.5856 146.707C15.1349 146.318 14.6031 146.021 14.1075 145.684C13.6666 145.385 13.2256 145.085 12.7385 144.755L12.4967 143.489C12.8205 143.251 13.1989 143.128 13.4045 142.712C13.8099 142.807 14.2308 142.905 14.7626 143.03C15.2686 143.383 15.867 143.799 16.4653 144.214L16.8602 144.139C17.5825 144.63 18.3006 145.117 19.0181 145.601C19.2364 145.75 19.4986 146.051 19.677 146.009C20.3226 145.849 20.5674 146.519 21.0808 146.585C21.2643 146.609 21.4883 146.595 21.6177 146.698C21.9841 146.99 22.395 147.094 22.8419 147.195C23.144 147.265 23.3878 147.566 23.6751 147.73C24.286 148.078 24.763 148.604 25.547 148.71C26.1434 148.79 26.5087 149.612 27.2686 149.496C28.0413 150.021 28.8098 150.543 29.5825 151.068L29.9739 150.993C30.4694 151.33 30.9777 151.656 31.4619 152.01C31.9334 152.355 32.5599 152.286 33.0393 152.692C33.3321 152.943 33.8562 152.912 34.2727 153.026C34.6892 153.14 35.2008 153.159 35.4985 153.417C36.1156 153.949 37.0773 153.704 37.4763 154.453L37.9523 154.362C38.1849 154.661 38.4161 154.953 38.7315 155.361L38.85 155.982C39.0158 156.103 39.1732 156.22 39.3384 156.338C39.4118 156.722 39.4872 157.117 39.562 157.508C39.6712 157.583 39.7846 157.66 40.0113 157.814C40.2356 158.662 40.3356 159.645 40.5829 160.595C40.6921 160.669 40.8013 160.743 40.9945 160.875L42.1302 166.819C42.6505 166.979 42.6279 166.172 43.1027 166.381C43.5071 165.533 44.4145 165.213 44.9953 164.562C45.3265 164.191 45.9001 164.458 46.1559 163.942C46.3114 163.627 46.7842 163.577 47.0139 163.229C47.1159 163.075 47.507 163.113 47.7327 163.07C47.873 162.886 47.9933 162.732 48.1428 162.539C49.0668 162.746 49.5574 161.775 50.3981 161.68C50.6697 161.055 51.2968 161.238 51.8051 161.068C51.9048 160.939 52.0258 160.788 52.1674 160.611L54.089 160.244C54.2108 160.078 54.3269 159.921 54.4488 159.755L56.8005 159.306C56.8712 159.197 56.9447 159.085 57.016 158.98C57.1313 158.914 57.2306 158.822 57.347 158.8C62.906 157.73 68.467 156.672 74.0062 155.613C74.1406 155.705 74.254 155.782 74.4471 155.913L77.5887 155.313C77.7819 155.444 77.8911 155.518 78.0842 155.649L81.2258 155.049C81.419 155.18 81.5282 155.254 81.7214 155.386L84.8629 154.785L85.2913 155.076L88.0203 154.555C88.1947 154.664 88.3606 154.768 88.5315 154.878L90.0864 154.581C90.2608 154.69 90.4267 154.793 90.6011 154.903L92.5403 154.532C92.6663 154.618 92.7755 154.692 92.9687 154.823L94.9326 154.448C95.1258 154.579 95.2349 154.653 95.4281 154.784L97.392 154.409L97.8288 154.706L99.7539 154.338C99.9318 154.447 100.1 154.542 100.29 154.656L101.827 154.362C102.001 154.472 102.167 154.575 102.338 154.685L104.292 154.312C104.405 154.389 104.514 154.463 104.627 154.54C104.684 154.566 104.746 154.627 104.799 154.617C105.583 154.474 106.362 154.322 107.117 154.178C107.259 154.275 107.373 154.352 107.566 154.483L109.138 154.183C109.332 154.314 109.441 154.388 109.634 154.519L111.989 154.069C112.182 154.2 112.292 154.275 112.426 154.366L115.532 153.772C115.71 153.881 115.879 153.98 116.061 154.092L120.74 153.198C120.914 153.307 121.084 153.41 121.255 153.52L123.599 153.072C123.717 153.152 123.826 153.226 123.935 153.3C123.991 153.326 124.057 153.383 124.106 153.373C125.151 153.181 126.194 152.978 127.203 152.785C127.354 152.888 127.463 152.962 127.623 153.071L131.477 152.334C131.667 152.433 131.838 152.521 132.065 152.642L135.905 151.909C136.089 152.012 136.257 152.108 136.462 152.222L137.241 152.074C137.365 151.9 137.518 151.688 137.668 151.477C137.615 150.968 137.652 150.493 137.838 149.993C138.004 149.545 138.318 149.047 137.988 148.521C138.129 148.092 138.631 147.854 138.577 147.32C138.541 146.943 138.864 146.662 138.861 146.242C138.857 145.837 139.428 145.597 139.393 145.029C139.372 144.708 139.762 144.36 139.976 144.005L139.906 143.641C140.582 142.646 141.258 141.651 141.931 140.66C142.099 140.58 142.358 140.542 142.421 140.413C142.629 139.967 143.273 140.031 143.394 139.518C144.05 139.393 144.702 139.268 145.358 139.143C145.432 139.033 145.506 138.921 145.584 138.811C145.692 138.75 145.792 138.658 145.908 138.636C147.148 138.391 148.39 138.158 149.603 137.926C149.687 137.983 149.738 138.024 149.799 138.057C149.91 138.12 150.063 138.251 150.134 138.219C150.779 137.924 151.381 138.569 152.144 138.223C152.373 138.446 152.66 138.72 152.853 138.909C153.148 138.868 153.28 138.85 153.501 138.819C154.042 139.201 154.652 139.604 155.228 140.053C155.729 140.439 156.358 140.652 156.662 141.325C156.805 141.634 157.266 141.845 157.628 141.999C158.042 142.176 157.985 142.644 158.344 142.878C158.996 143.306 159.744 144.427 160.156 145.211C160.357 145.589 160.611 145.946 160.893 146.272C161.052 146.458 161.307 146.566 161.475 146.68C161.677 146.59 161.81 146.561 161.901 146.482C161.998 146.397 162.057 146.266 162.143 146.14L163.687 145.845C163.809 145.679 163.929 145.521 164.054 145.354L165.221 145.131L165.214 145.093ZM140.285 154.138L141.557 160.795C141.719 160.914 141.879 161.029 142.041 161.148L142.189 161.92C142.65 162.081 142.584 162.576 142.797 162.849C143.117 163.26 143.363 163.67 143.487 164.165C144.083 164.318 143.803 164.996 144.138 165.276C144.533 165.602 144.713 166.087 145.072 166.435C145.112 166.471 145.1 166.561 145.102 166.572C145.843 167.084 146.55 167.571 147.257 168.06C147.386 168.043 147.591 167.971 147.63 168.022C148.069 168.596 148.788 167.907 149.274 168.402C149.387 168.516 149.769 168.388 150.02 168.344C150.61 168.242 151.194 168.12 151.783 168.011C152.167 167.937 152.475 167.824 152.786 167.501C153.057 167.219 153.612 167.215 154.038 167.075C154.086 167.059 154.122 166.975 154.15 166.915C154.291 166.618 154.615 166.724 154.829 166.603C155.096 166.453 155.31 166.211 155.579 166.072C155.974 165.865 157.004 165.285 157.109 165.053C157.309 164.605 157.811 164.517 158.071 164.156C158.046 164.026 158.021 163.895 157.996 163.765C158.296 163.324 158.595 162.883 158.812 162.564C158.957 162.079 159.151 161.72 159.14 161.372C159.127 160.98 159.331 160.729 159.539 160.517C159.855 160.201 159.542 159.727 159.898 159.447C160.289 159.142 160.16 158.601 160.398 158.241C160.622 157.902 160.405 157.607 160.438 157.301C160.462 157.063 160.616 156.839 160.675 156.704L159.257 149.282C159.049 149.092 158.911 148.964 158.814 148.877L158.609 147.805C158.468 147.697 158.314 147.58 158.143 147.448L157.999 146.697C157.833 146.576 157.676 146.459 157.514 146.34L157.355 145.508C156.502 145.288 156.283 144.273 155.473 143.938C155.114 142.976 154.107 142.774 153.407 142.213C152.746 141.678 152.005 141.242 151.287 140.755C150.852 141.02 150.482 140.996 150.174 140.686L145.17 141.642C144.527 142.119 144.082 142.449 143.426 142.936C143.11 143.424 142.645 144.145 142.176 144.867C142.35 145.338 141.948 145.587 141.753 145.905C141.553 146.236 141.738 146.69 141.388 146.962C141.042 147.233 141.224 147.746 140.994 147.995C140.57 148.456 140.648 149.095 140.306 149.562C140.449 150.079 139.971 150.467 140.054 151.032C140.13 151.547 139.821 152.111 139.923 152.643L139.669 153.017L139.818 153.796C139.967 153.906 140.124 154.023 140.282 154.139L140.285 154.138Z" fill="black"/>
<path d="M97.0465 166.795C97.1779 167.062 97.261 167.229 97.3447 167.399L98.5929 167.161C98.6862 167.037 98.8023 166.88 98.9311 166.713L100.084 166.492C100.165 166.378 100.243 166.272 100.413 166.035C100.843 165.876 101.444 165.863 102.001 165.699C102.075 165.589 102.152 165.476 102.226 165.367C102.336 165.309 102.441 165.227 102.561 165.204C103.666 164.986 104.774 164.778 105.846 164.573L106.266 164.858L107.225 164.675C108.044 165.231 108.75 165.71 109.552 166.255C109.553 166.682 110.042 167.064 110.338 167.483C110.182 167.735 110.078 167.901 109.968 168.072L110.191 169.239C110.114 169.353 110.037 169.466 109.942 169.601C109.801 169.836 110.08 170.13 109.978 170.325C109.542 171.18 109.651 172.153 109.34 173.203L109.529 174.19C109.42 174.368 109.32 174.533 109.209 174.715L109.361 175.512C109.728 175.749 110.119 175.999 110.548 176.272L114.046 175.604C114.147 175.464 114.263 175.306 114.382 175.145C114.636 175.096 114.897 175.046 115.161 174.996C115.235 174.887 115.309 174.774 115.455 174.563C115.671 174.508 115.977 174.427 116.312 174.341C116.58 173.585 117.487 173.36 117.803 172.62C118.49 172.295 118.806 171.635 119.207 171.055C119.736 170.285 120.257 169.513 120.782 168.74C121.695 168.335 121.919 167.346 122.58 166.657C123.176 166.543 123.828 166.418 124.482 166.301C124.531 166.291 124.593 166.364 124.687 166.419L125.04 168.266C124.66 168.821 124.292 169.363 123.812 170.065C123.916 170.031 123.795 170.068 123.761 170.082C122.974 171.241 122.229 172.337 121.556 173.328C121.267 173.405 121.142 173.437 120.881 173.505C120.657 173.866 120.338 174.299 120.111 174.774C119.874 175.272 119.234 175.347 119.043 175.84C118.833 176.37 118.133 176.358 117.967 176.905C117.706 176.955 117.445 177.005 117.191 177.053C117.073 177.218 116.953 177.376 116.835 177.541L116.088 177.684C115.95 177.86 115.829 178.011 115.7 178.179L113.782 178.545C113.688 178.684 113.613 178.793 113.514 178.94L111.479 179.328C111.328 179.226 111.215 179.149 111.08 179.057L109.991 179.266C109.636 179.191 109.422 178.793 109.031 179.025C108.494 178.642 107.956 178.258 107.563 177.979C107.257 177.621 107.058 177.384 106.833 177.121L106.246 174.05L106.557 173.592C106.515 173.373 106.496 173.044 106.385 172.751C106.243 172.369 106.62 172.162 106.627 171.854C106.633 171.542 106.434 171.247 106.651 170.91C106.812 170.66 106.786 170.295 106.942 170.039C107.149 169.689 106.911 169.402 106.928 169.051C107.015 168.914 107.119 168.748 107.228 168.574L107.079 167.791C106.649 167.453 106.022 168.059 105.634 167.482L103.642 167.863C103.549 167.987 103.432 168.14 103.304 168.311L101.368 168.681C101.247 168.847 101.13 169.004 101.009 169.17L99.9861 169.365C99.5885 169.675 99.2964 169.906 98.9945 170.143L99.2215 171.331C99.3614 171.432 99.5188 171.549 99.6804 171.668L100.121 173.973C99.7273 174.553 99.3565 175.099 99.1112 175.46C98.5018 175.924 98.0623 176.263 97.3955 176.771L95.9922 177.039C95.871 177.534 95.7724 177.954 95.6695 178.372C95.641 178.491 95.6159 178.704 95.5595 178.715C94.5118 178.893 94.8956 180.022 94.2882 180.573C94.0538 180.647 93.7503 180.742 93.4503 180.836C93.3761 180.945 93.3026 181.058 93.1679 181.251L91.5954 181.552C91.4642 181.745 91.39 181.854 91.2588 182.047L89.6862 182.348C89.555 182.541 89.4809 182.65 89.3953 182.776L87.4525 183.147C87.3307 183.313 87.2146 183.471 87.0963 183.636L85.5343 183.934C85.4602 184.043 85.3867 184.156 85.2548 184.346L83.6823 184.646L83.3457 185.142L81.3818 185.517C81.2506 185.71 81.1764 185.819 81.0452 186.012L78.295 186.538C78.1638 186.731 78.0896 186.84 77.9584 187.033L74.0306 187.784C73.8994 187.977 73.8252 188.086 73.7425 188.208L70.2272 188.879C70.1054 189.045 69.9892 189.203 69.8709 189.368L67.1313 189.891C67.0543 190.004 66.9802 190.114 66.906 190.223C66.797 190.284 66.697 190.372 66.5807 190.395C65.4713 190.614 64.3635 190.822 63.2811 191.029C63.1383 190.932 63.0291 190.857 62.8653 190.746L58.3028 191.618C57.8102 191.431 57.4075 191.35 56.9362 191.389C56.5403 191.421 56.1081 191.167 55.7075 191.003C55.3617 190.857 55.1147 190.597 54.6516 190.583C54.2581 190.571 53.8777 190.11 53.4914 189.847C53.4618 189.272 52.9156 189.186 52.5313 188.839L51.3364 182.584C51.4162 182.313 51.5199 181.957 51.6622 181.459C52.1357 180.761 52.6976 179.934 53.2624 179.103L53.6432 179.03C54.2902 177.883 55.5481 177.409 56.4891 176.462L57.5645 176.256C57.6864 176.09 57.8025 175.933 57.9278 175.766L59.0878 175.545C59.2068 175.383 59.3222 175.222 59.4441 175.057L62.568 174.46C62.6507 174.338 62.7249 174.229 62.8561 174.036L65.2114 173.586C65.3426 173.392 65.4167 173.283 65.5479 173.09L67.1205 172.79C67.2517 172.596 67.3259 172.487 67.4571 172.294L69.0296 171.994C69.1608 171.801 69.235 171.691 69.3206 171.565L70.8684 171.27C70.9902 171.104 71.1064 170.946 71.2282 170.781L72.7937 170.482C72.8643 170.373 72.9378 170.26 72.9948 170.176C73.0546 170.106 73.0898 170.023 73.1392 170.014C73.9206 169.857 74.704 169.711 75.4656 169.565C75.5568 169.431 75.6339 169.318 75.7651 169.125L77.3376 168.824C77.4688 168.631 77.543 168.522 77.6742 168.329L78.8518 168.104C78.983 167.91 79.0572 167.801 79.1513 167.663L80.2867 167.446C80.4162 167.282 80.533 167.128 80.6711 166.952L82.2049 166.659C82.3267 166.493 82.4428 166.336 82.5611 166.171C83.0759 166.072 83.6012 165.972 84.1231 165.872C84.1972 165.763 84.2707 165.65 84.4019 165.457L85.9745 165.157C86.1057 164.964 86.1798 164.854 86.2911 164.691L87.3136 164.495C87.6108 164.234 87.8386 164.03 88.1635 163.741C88.5783 164.133 88.9546 164.496 89.4455 164.961C89.4428 164.947 89.4806 165.145 89.5378 165.445C89.689 165.547 89.8795 165.741 90.1147 165.824C90.4803 165.959 90.4444 166.364 90.6828 166.56C90.8814 166.719 91.1034 166.848 91.2756 166.965C91.472 166.884 91.6088 166.854 91.7003 166.778C91.7975 166.694 91.8564 166.562 91.9448 166.432L93.4821 166.138C93.6074 165.972 93.7277 165.817 93.8559 165.647L94.6246 165.5C94.7821 165.597 94.9481 165.701 95.1224 165.81L95.4221 165.753C96.0376 166.143 96.595 166.497 97.0606 166.792L97.0465 166.795ZM81.258 177.581C81.5852 177.284 81.5266 176.978 81.5056 176.638C81.4862 176.346 81.6409 176.046 81.7224 175.745C81.8038 175.445 81.8866 175.151 81.9622 174.877L81.8396 174.235C82.4537 173.643 82.3853 172.673 82.9905 172.053C82.9383 171.168 83.6585 170.672 84.0486 170.016C84.4879 169.274 85.0093 168.579 85.497 167.861C84.8063 167.383 84.4715 168.002 83.9612 168.392L82.9563 168.584L82.6397 169.05L81.0672 169.351C80.936 169.544 80.8618 169.653 80.7848 169.766L79.6142 169.99C79.3526 170.61 78.2134 170.616 78.4865 171.605C78.0429 172.267 77.6504 172.967 77.1466 173.582C76.598 174.25 76.5636 175.141 76.0164 175.816C75.499 176.455 75.6228 177.371 75.1989 178.117L75.405 179.196C75.2909 179.364 75.2167 179.473 75.1255 179.607C75.4205 181.152 75.7196 182.717 76.0222 184.282C76.0316 184.331 76.1116 184.367 76.1996 184.446L79.0415 183.903C79.1242 183.781 79.2012 183.667 79.3295 183.479L80.7258 183.212C81.2178 182.822 81.4964 182.597 81.7785 182.371L81.4855 180.837C81.5999 180.633 81.6957 180.465 81.7744 180.322L81.2523 177.589L81.258 177.581ZM83.9806 176.911C84.019 177.112 84.2359 177.52 84.1149 177.748C83.7236 178.473 84.0262 179.139 84.135 179.823C84.2171 180.348 84.3203 180.87 84.4405 181.384C84.4635 181.485 84.6087 181.556 84.6932 181.635L85.0704 181.563C85.1958 181.397 85.3119 181.239 85.4315 181.081L87.3672 180.711C87.45 180.59 87.527 180.476 87.6518 180.288L89.2244 179.987C89.3527 179.799 89.4269 179.689 89.5552 179.5L91.1278 179.2C91.2561 179.011 91.3303 178.902 91.4586 178.713L92.6504 178.485C92.8302 178.202 92.9616 177.991 93.0936 177.783C92.9551 177.689 92.8459 177.615 92.6611 177.489L92.1357 174.739C91.9509 174.613 91.8417 174.539 91.6528 174.411L91.2028 172.056C91.018 171.93 90.9046 171.853 90.7954 171.779C90.6661 171.35 90.5403 170.921 90.4109 170.493C89.8081 170.341 90.1391 169.606 89.7593 169.397C89.376 169.188 89.4451 168.689 89.0423 168.532C88.5883 168.356 89.0098 167.731 88.4859 167.495C88.0638 168.116 87.6002 168.731 87.2108 169.39C86.8521 170 86.3557 170.5 86.1207 171.221C85.8863 171.946 85.3648 172.582 85.0282 173.155C84.673 174.432 84.3438 175.617 83.9842 176.91L83.9806 176.911ZM73.6765 184.763L72.627 179.27C72.7334 179.1 72.8404 178.933 72.9461 178.759L72.7252 177.603C72.7708 177.536 72.8269 177.485 72.8443 177.423C73.1349 176.381 73.4297 175.341 74.1461 174.481C74.1994 174.416 74.1053 174.229 74.0797 174.095C74.3057 173.767 74.5478 173.447 74.7486 173.101C74.9273 172.793 75.263 172.561 75.263 172.159C75.183 172.123 75.118 172.069 75.0686 172.079C74.549 172.171 74.0314 172.273 73.5483 172.366C73.4456 172.517 73.3715 172.626 73.2403 172.819L71.6677 173.12C71.5365 173.313 71.4623 173.422 71.3768 173.548C71.0873 173.64 70.7838 173.734 70.4767 173.83C70.23 174.355 69.7951 174.738 69.7381 175.396C69.7022 175.801 69.1973 176.143 69.0113 176.565C68.8354 176.964 68.8637 177.438 68.5122 177.779C68.1267 178.152 68.0105 178.653 67.9097 179.159C67.798 179.703 67.7027 180.295 67.4602 180.747C67.1632 181.297 67.706 181.957 67.1193 182.387C67.1619 182.762 67.2576 183.091 67.061 183.516C66.8975 183.865 67.1309 184.398 67.1805 184.849C67.1935 184.975 67.1959 185.102 67.2025 185.232C67.1283 185.342 67.0542 185.451 66.9543 185.598L67.1941 186.853C67.2929 186.911 67.3564 186.976 67.4029 186.97C68.4479 186.778 69.4951 186.578 70.5141 186.383C70.648 186.204 70.7683 186.05 70.8908 185.887L73.2109 185.444C73.3763 185.201 73.5281 184.982 73.6765 184.763ZM60.3856 188.728L64.5074 187.94C64.5744 187.927 64.6483 187.931 64.7006 187.9C64.753 187.868 64.7797 187.797 64.8723 187.669L64.2809 184.574C64.4263 184.283 64.5109 184.113 64.5717 183.992C64.4976 183.604 64.435 183.276 64.3724 182.948C64.4631 182.715 64.6574 182.47 64.624 182.257C64.5642 181.848 65.1064 181.587 64.8432 181.166C64.5794 180.741 65.0218 180.456 65.075 180.084C65.1742 179.36 65.4057 178.639 65.677 177.955C65.8447 177.532 66.1829 177.179 66.4453 176.793C66.2274 176.187 66.8683 175.908 66.9696 175.424C66.6515 175.174 66.3386 175.45 66.0149 175.438C65.9016 175.592 65.7862 175.753 65.6672 175.914L63.326 176.361C63.207 176.523 63.0909 176.68 62.9726 176.846L61.8302 177.064C61.5522 177.464 61.2856 177.848 61.0995 178.117C61.0483 178.423 61.0669 178.635 60.9783 178.783C60.744 179.183 60.3939 179.531 60.222 179.951C60.0372 180.4 60.0173 180.908 59.9005 181.387C59.8575 181.563 59.7372 181.718 59.6885 181.807C59.7224 182.291 59.9459 182.657 59.796 183.059C59.7218 183.168 59.6477 183.277 59.5707 183.39L59.7189 184.166C59.6125 184.336 59.5054 184.503 59.3991 184.673L59.6928 186.21C59.582 186.396 59.4827 186.565 59.4077 186.689L59.7068 188.254C59.9517 188.427 60.1708 188.579 60.3856 188.728ZM54.8787 180.829C54.4533 181.415 54.0664 181.953 53.7023 182.458L54.6635 187.489C55.2582 187.924 55.7898 188.315 55.9857 188.461C56.6511 188.692 56.9262 188.793 57.2085 188.874C57.2282 188.881 57.2805 188.773 57.2862 188.764C57.3588 188.264 57.0189 187.843 57.2111 187.357C57.2773 187.264 57.3522 187.158 57.427 187.052L57.0525 185.092C57.1589 184.922 57.2659 184.755 57.3723 184.585L57.2248 183.813C57.833 183.324 57.1107 182.508 57.6866 182.022C57.3927 181.325 58.0903 180.673 57.7338 180.05C57.9734 179.697 58.1588 179.424 58.3671 179.118C58.3121 178.964 58.2467 178.794 58.1614 178.558C57.8687 178.614 57.5326 178.576 57.382 178.725C56.6803 179.433 55.6347 179.775 55.2158 180.758L54.8844 180.821L54.8787 180.829ZM95.1685 174.755L95.9477 174.606C96.2169 174.083 96.9574 174.019 97.1424 173.304C96.9734 172.974 97.1023 172.482 96.7958 172.102L96.5145 171.911C96.2662 171.472 96.4212 170.964 96.0879 170.596L95.7561 170.371L95.5136 169.101C94.8664 169.291 95.1856 168.532 94.8412 168.375C93.9915 168.537 93.1664 168.695 92.3427 168.859C92.3004 168.867 92.2749 168.964 92.2414 169.017C92.1771 169.446 92.5862 169.522 92.801 169.766L93.0179 170.901C93.1396 170.984 93.2488 171.058 93.4336 171.183L93.7293 172.731C93.9657 172.916 94.1167 173.037 94.2754 173.161L94.4923 174.296C94.7359 174.461 94.9543 174.61 95.1727 174.758L95.1685 174.755Z" fill="black"/>
<path d="M144.883 130.247C144.954 130.138 145.028 130.029 145.084 129.941C145.144 129.872 145.179 129.788 145.228 129.779C146.927 129.447 148.627 129.126 150.302 128.806C150.393 128.671 150.467 128.562 150.618 128.34L156.901 127.139C157.013 126.976 157.087 126.866 157.189 126.715L163.984 125.417C164.194 125.637 164.518 125.973 164.841 126.31C164.902 126.243 164.959 126.178 165.019 126.111C165.081 126.359 165.143 126.606 165.194 126.816C165.179 127.583 164.383 127.621 164.036 128.196L156.977 129.544C156.846 129.737 156.772 129.847 156.64 130.04L149.962 131.316C149.831 131.509 149.757 131.618 149.626 131.811L144.52 132.786C144.389 132.98 144.315 133.089 144.241 133.198C144.179 133.217 144.122 133.246 144.059 133.258C140.198 133.996 136.337 134.734 132.462 135.474C132.304 135.376 132.138 135.273 131.964 135.163L97.4208 141.762C97.346 141.868 97.2676 141.974 97.1935 142.084C97.1522 142.135 97.1212 142.222 97.0718 142.231C92.6235 143.088 88.1767 143.934 83.7376 144.782C83.652 144.908 83.5778 145.017 83.5037 145.127C83.461 145.171 83.4203 145.245 83.3674 145.255C79.9691 145.908 76.5701 146.557 73.2064 147.2C73.1037 147.351 73.0296 147.46 72.9212 147.62L66.7121 148.806C66.5713 148.968 66.449 149.112 66.2364 149.357L60.3904 150.474C60.2592 150.667 60.1851 150.776 60.0966 150.907L56.9868 151.501C56.8614 151.667 56.7447 151.821 56.6165 151.992L45.2454 154.164C45.0879 154.066 44.9219 153.963 44.7476 153.853L42.1455 154.351C41.3709 154.122 40.7164 153.929 40.0619 153.736C39.9872 153.345 39.9117 152.95 39.8356 152.552C39.9846 152.337 40.1365 152.118 40.3019 151.874L41.0882 151.724C41.2205 151.805 41.3858 151.905 41.5679 152.016L57.6495 148.944C57.7599 148.795 57.8789 148.633 57.9978 148.472L60.7339 147.949L60.9621 147.613C61.0048 147.568 61.0448 147.491 61.0942 147.482C63.5758 147.004 66.058 146.53 68.512 146.061L68.7944 145.645L73.8223 144.685C73.9631 144.523 74.089 144.378 74.3023 144.136L84.8588 142.119C84.99 141.926 85.0642 141.817 85.1554 141.683L98.0779 139.214C98.2039 139.051 98.3242 138.896 98.4559 138.725L129.075 132.876C129.22 132.968 129.39 133.071 129.561 133.181L144.874 130.256L144.883 130.247Z" fill="black"/>
<path d="M22.4516 177.654C22.9429 177.988 23.4534 178.307 23.9318 178.669C24.4012 179.021 25.0911 178.864 25.488 179.373C25.6481 179.58 25.9529 179.339 26.0282 179.427C26.3641 179.827 26.9454 179.522 27.2625 179.9C27.5851 180.288 28.1101 180.147 28.4812 180.387C28.806 180.595 29.2632 180.406 29.5354 180.759C30.0131 180.467 30.3351 181.253 30.8172 180.946C31.4979 181.601 32.4378 181.604 33.2567 181.912C33.4848 181.996 33.761 181.969 33.972 182.079C34.3252 182.264 34.6405 182.518 35.0017 182.763L35.2314 183.965C35.1076 184.599 34.3427 184.727 33.9351 185.291C32.5624 184.782 31.0895 184.552 29.7066 184.008C29.047 184.248 28.7781 183.261 28.1178 183.497C27.6505 183.155 26.9856 183.271 26.5592 182.837C26.3505 182.625 25.9838 182.772 25.8573 182.664C25.5247 182.377 25.0832 182.553 24.7847 182.31C24.1226 181.771 23.216 181.751 22.5571 181.171C21.9646 180.652 21.2583 180.265 20.6494 179.851L20.4177 178.638C20.5796 178.395 20.7314 178.176 20.8791 177.954C21.4009 177.855 21.9262 177.754 22.4516 177.654Z" fill="black"/>
<path d="M30.3873 171.771C31.0501 172.218 31.7095 172.666 32.3688 173.114L32.6706 174.693C32.4282 174.878 32.1823 175.064 31.9413 175.256C31.4777 175.623 31.3648 175.644 30.7283 175.411C30.3788 175.284 29.9591 175.383 29.6684 175.047C29.4439 174.791 29.1143 174.806 28.7902 174.755C28.3677 174.686 28.1362 174.182 27.5792 174.193C27.2588 174.199 26.8305 174.062 26.5279 173.893C26.1278 173.674 25.6075 173.839 25.2912 173.446C24.3447 173.408 23.5101 172.96 22.6122 172.737C21.772 172.529 20.9486 172.255 20.1169 172.033C19.5698 171.886 19.1877 171.78 18.9658 171.23C18.8824 171.023 18.6096 170.896 18.4077 170.719C18.5382 170.12 18.9846 169.779 19.2216 169.317L20.0079 169.167C20.1697 169.268 20.3356 169.371 20.5016 169.475C20.699 169.437 20.893 169.4 21.1222 169.356C22.396 169.731 23.7138 170.067 24.9919 170.521C25.4039 170.669 25.7933 170.258 26.1101 170.578C26.4186 170.892 26.8408 170.672 27.1935 170.912C27.463 171.098 27.8945 171.099 28.2425 171.238C28.5786 171.371 28.9687 171.366 29.3262 171.458C29.6184 171.534 29.9003 171.67 30.1838 171.777C30.2521 171.771 30.3211 171.769 30.3895 171.763L30.3873 171.771Z" fill="black"/>
<path d="M31.3896 163.722L31.5734 164.684C31.462 164.867 31.325 165.086 31.2022 165.285C30.8556 165.556 30.4399 165.504 30.0701 165.615C29.5545 165.403 28.958 165.418 28.4989 165.023C28.0579 164.647 27.3517 164.815 26.9597 164.312C26.0028 164.086 25.0531 163.84 24.1253 163.498C23.6067 163.308 23.0041 163.387 22.5384 163.015C21.9593 163.312 21.4393 162.791 20.8738 162.891C20.4892 162.504 20.0434 162.6 19.6482 162.712C19.063 162.327 18.5085 161.969 17.959 161.599C17.9212 161.573 17.9313 161.473 17.8969 161.293C17.9971 160.861 18.4365 160.521 18.67 160.06L19.8441 159.835C20.0059 159.936 20.1718 160.04 20.3427 160.149L21.1148 160.002C21.4116 160.446 22.0208 160.096 22.33 160.49C23.0901 160.432 23.7777 160.703 24.5012 160.894C25.2051 161.077 25.8855 161.444 26.6491 161.386C27.601 161.873 28.7734 161.85 29.5709 162.677C30.2113 162.796 30.8085 163.014 31.3832 163.727L31.3896 163.722Z" fill="black"/>
<path d="M155.018 148.158L155.148 148.835C155.309 148.954 155.47 149.07 155.632 149.189L156.003 151.132C156.125 151.214 156.234 151.288 156.402 151.403L157.375 156.497C157.005 157.602 156.805 158.89 155.885 159.793C155.6 160.002 155.354 160.187 154.972 160.465L153.17 160.809C153.025 160.716 152.859 160.613 152.688 160.503L152.335 160.57C151.764 160.182 151.218 159.812 150.651 159.427L150.583 159.067C150.301 158.876 150.024 158.688 149.701 158.468L148.42 151.765C148.455 151.697 148.54 151.53 148.678 151.259C148.807 150.865 148.308 150.413 148.613 149.846C148.863 149.378 148.954 148.802 149.069 148.254C149.182 147.717 149.884 147.663 150.126 147.167L152.819 146.653C153.534 147.141 154.248 147.626 155.017 148.151L155.018 148.158ZM151.392 149.359C150.982 150.084 151.192 150.951 150.829 151.806C151.017 152.789 151.228 153.893 151.441 154.992C151.464 155.109 151.546 155.214 151.603 155.323L152.011 155.6L152.311 157.173C152.445 157.264 152.516 157.287 152.551 157.339C152.692 157.538 152.823 157.747 152.973 157.978L153.664 157.846C154.079 157.361 154.378 157.012 154.608 156.741L153.548 151.191C153.371 151.053 153.221 150.936 153.058 150.81L152.843 149.685C152.594 149.51 152.379 149.361 152.168 149.211L151.389 149.36L151.392 149.359Z" fill="black"/>
<path d="M146.925 156.93C147.034 157.004 147.144 157.078 147.253 157.152C147.313 157.258 147.406 157.36 147.431 157.473C147.674 158.705 147.907 159.944 148.142 161.174C147.988 161.401 147.839 161.619 147.68 161.854L146.516 162.077C145.932 161.925 145.735 161.316 145.201 160.724L144.562 157.374C144.377 157.248 144.268 157.174 144.129 157.08L143.011 151.227C143.186 150.748 143.378 150.222 143.583 149.667C143.854 149.597 144.098 149.536 144.464 149.44C144.806 149.718 145.204 150.044 145.684 150.431L146.925 156.926L146.925 156.93Z" fill="black"/>
</g>
</g>
<g clip-path="url(#clip1_215_14)">
<path d="M83.0569 20.9388L86.6808 26.2889C87.395 27.3455 87.3454 28.7326 86.5697 29.7353L81.9277 35.7123C80.3971 37.6836 82.2769 40.4587 84.6693 39.7628L91.9377 37.6605C93.1614 37.306 94.4682 37.7752 95.1825 38.8318L98.8064 44.1819C100.403 46.5381 104.074 45.4744 104.17 42.6282L104.383 36.1743C104.423 34.8987 105.278 33.8039 106.502 33.4493L112.708 31.6479C115.441 30.8551 115.57 27.0333 112.892 26.0669L107.717 24.1988C105.988 23.5772 104.855 21.9019 104.911 20.0621L105.129 13.4831C105.215 10.9815 102.049 9.83484 100.504 11.8095L95.8778 17.7609C95.1021 18.7636 93.7547 19.1481 92.5659 18.7158L86.4903 16.5204C83.8117 15.554 81.4656 18.574 83.0621 20.9302L83.0569 20.9388Z" fill="#FF3B27"/>
</g>
<g clip-path="url(#clip2_215_14)">
<path d="M95.261 79.4544L99.9831 83.8656C100.914 84.7371 101.174 86.1005 100.64 87.2506L97.4426 94.1096C96.3882 96.3717 98.8377 98.6597 101.016 97.4497L107.635 93.785C108.75 93.1673 110.128 93.3345 111.059 94.206L115.781 98.6172C117.861 100.56 121.204 98.7069 120.666 95.9104L119.439 89.5707C119.195 88.318 119.785 87.0606 120.9 86.443L126.551 83.3076C129.039 81.9274 128.316 78.1724 125.489 77.8253L120.029 77.1536C118.205 76.9318 116.728 75.5502 116.374 73.7438L115.125 67.2808C114.652 64.8228 111.311 64.4083 110.244 66.6767L107.055 73.5073C106.522 74.6573 105.294 75.3316 104.038 75.1742L97.6269 74.3836C94.8005 74.0365 93.184 77.5024 95.2642 79.445L95.261 79.4544Z" fill="#FF3B27"/>
</g>
<g clip-path="url(#clip3_215_14)">
<path d="M29.6751 29.5069L36.1291 29.827C37.4028 29.8914 38.4815 30.7649 38.8165 31.9876L40.8025 39.2903C41.4577 41.6985 44.8054 41.8644 45.6875 39.5342L48.3768 32.462C48.8291 31.2709 49.9897 30.5086 51.2634 30.573L57.7174 30.8932C60.5601 31.0337 61.9169 27.4605 59.7003 25.6725L54.6703 21.6233C53.675 20.8242 53.3143 19.4826 53.7666 18.2916L56.0578 12.249C57.067 9.58855 54.0905 7.18773 51.708 8.74738L47.1047 11.7594C45.5685 12.7677 43.5483 12.6662 42.112 11.5152L36.9856 7.38589C35.0378 5.8139 32.2182 7.65475 32.8678 10.0759L34.8427 17.3507C35.1777 18.5734 34.675 19.8813 33.6149 20.5714L28.2082 24.107C25.8256 25.6667 26.8288 29.357 29.6714 29.4976L29.6751 29.5069Z" fill="#FF3B27"/>
</g>
<defs>
<clipPath id="clip0_215_14">
<rect width="164.313" height="104.351" fill="white" transform="translate(0 105.833) rotate(-10.8155)"/>
</clipPath>
<clipPath id="clip1_215_14">
<rect width="33.39" height="35.24" fill="white" transform="translate(101.724 51.151) rotate(-148.614)"/>
</clipPath>
<clipPath id="clip2_215_14">
<rect width="33.39" height="35.24" fill="white" transform="translate(120.174 104.764) rotate(-161.452)"/>
</clipPath>
<clipPath id="clip3_215_14">
<rect width="33.39" height="35.24" fill="white" transform="translate(65.0404 32.7511) rotate(158.337)"/>
</clipPath>
</defs>
</svg>
