<svg width="24" height="24" viewBox="0 0 24 24" fill="none" xmlns="http://www.w3.org/2000/svg">
<g clip-path="url(#clip0_43_1932)">
<path d="M24 12C24 18.6274 18.6274 24 12 24C5.37259 24 0 18.6274 0 12C0 5.37259 5.37259 0 12 0C18.6274 0 24 5.37259 24 12Z" fill="#111114"/>
<path d="M15.5556 11.0686L15.3549 12.6748C15.3207 12.9438 15.0939 13.1446 14.8248 13.1446H12.2249V19.8563C11.9498 19.8804 11.6728 19.8945 11.3917 19.8945C10.7633 19.8945 10.1509 19.8322 9.55865 19.7118V13.1446H7.55899C7.37629 13.1446 7.22571 12.994 7.22571 12.8093V10.8016C7.22571 10.6169 7.37629 10.4663 7.55899 10.4663H9.55865V7.45279C9.55865 5.6037 11.0504 4.10596 12.8914 4.10596H15.2244C15.4071 4.10596 15.5576 4.25653 15.5576 4.44124V6.44894C15.5576 6.63365 15.4071 6.78422 15.2244 6.78422H13.558C12.8212 6.78422 12.2249 7.38452 12.2249 8.12336V10.4663H15.0256C15.3468 10.4663 15.5958 10.7494 15.5556 11.0686Z" fill="white"/>
</g>
<defs>
<clipPath id="clip0_43_1932">
<rect width="24" height="24" fill="white"/>
</clipPath>
</defs>
</svg>
