<svg width="25" height="24" viewBox="0 0 25 24" fill="none" xmlns="http://www.w3.org/2000/svg">
<g clip-path="url(#clip0_43_1936)">
<path d="M24.25 12C24.25 18.6274 18.8774 24 12.25 24C5.62262 24 0.250031 18.6274 0.250031 12C0.250031 5.37259 5.62262 0 12.25 0C18.8774 0 24.25 5.37259 24.25 12Z" fill="#111114"/>
<path d="M15.5045 5.70605H8.99352C7.31508 5.70605 5.95587 7.06727 5.95587 8.7437V15.2547C5.95587 16.9331 7.31709 18.2923 8.99352 18.2923H15.5045C17.1829 18.2923 18.5421 16.9311 18.5421 15.2547V8.7437C18.5421 7.06526 17.1809 5.70605 15.5045 5.70605ZM17.458 15.0378C17.458 16.2364 16.4862 17.2081 15.2876 17.2081H9.21035C8.01175 17.2081 7.04003 16.2364 7.04003 15.0378V8.96053C7.04003 7.76194 8.01175 6.79021 9.21035 6.79021H15.2876C16.4862 6.79021 17.458 7.76194 17.458 8.96053V15.0378Z" fill="white"/>
<path d="M12.2561 8.74365C10.4592 8.74365 8.99957 10.2012 8.99957 12.0001C8.99957 13.799 10.4572 15.2566 12.2561 15.2566C14.0549 15.2566 15.5125 13.799 15.5125 12.0001C15.5125 10.2012 14.0549 8.74365 12.2561 8.74365ZM12.2561 14.1705C11.0595 14.1705 10.0857 13.1967 10.0857 12.0001C10.0857 10.8035 11.0595 9.82982 12.2561 9.82982C13.4526 9.82982 14.4264 10.8035 14.4264 12.0001C14.4264 13.1967 13.4526 14.1705 12.2561 14.1705Z" fill="white"/>
<path d="M15.7294 9.17696C16.0886 9.17696 16.3798 8.88573 16.3798 8.52647C16.3798 8.16721 16.0886 7.87598 15.7294 7.87598C15.3701 7.87598 15.0789 8.16721 15.0789 8.52647C15.0789 8.88573 15.3701 9.17696 15.7294 9.17696Z" fill="white"/>
</g>
<defs>
<clipPath id="clip0_43_1936">
<rect width="24" height="24" fill="white" transform="translate(0.250031)"/>
</clipPath>
</defs>
</svg>
