<svg width="25" height="24" viewBox="0 0 25 24" fill="none" xmlns="http://www.w3.org/2000/svg">
<g clip-path="url(#clip0_43_1942)">
<path d="M24.5 12C24.5 18.6274 19.1274 24 12.5 24C5.87259 24 0.5 18.6274 0.5 12C0.5 5.37259 5.87259 0 12.5 0C19.1274 0 24.5 5.37259 24.5 12Z" fill="#111114"/>
<path d="M8.24972 8.79156C9.10351 8.79156 9.79565 8.09942 9.79565 7.24563C9.79565 6.39184 9.10351 5.69971 8.24972 5.69971C7.39593 5.69971 6.7038 6.39184 6.7038 7.24563C6.7038 8.09942 7.39593 8.79156 8.24972 8.79156Z" fill="white"/>
<path d="M9.15316 9.82178H7.34422C7.13244 9.82178 6.96075 9.99346 6.96075 10.2052V17.1659C6.96075 17.3777 7.13244 17.5494 7.34422 17.5494H9.15316C9.36494 17.5494 9.53663 17.3777 9.53663 17.1659V10.2052C9.53663 9.99346 9.36494 9.82178 9.15316 9.82178Z" fill="white"/>
<path d="M18.2962 12.6544V17.0331C18.2962 17.3162 18.0653 17.5491 17.7802 17.5491H16.2343C15.9512 17.5491 15.7183 17.3182 15.7183 17.0331V13.4273C15.7183 12.7166 15.1421 12.1384 14.4294 12.1384C13.7167 12.1384 13.1404 12.7146 13.1404 13.4273V17.0331C13.1404 17.3162 12.9096 17.5491 12.6245 17.5491H11.0785C10.7955 17.5491 10.5626 17.3182 10.5626 17.0331V10.3355C10.5626 10.0524 10.7934 9.81948 11.0785 9.81948H12.6245C12.9075 9.81948 13.1404 10.0504 13.1404 10.3355V10.6647C13.6564 9.99817 14.5077 9.5625 15.4593 9.5625C16.8808 9.5625 18.2922 10.5924 18.2922 12.6544H18.2962Z" fill="white"/>
</g>
<defs>
<clipPath id="clip0_43_1942">
<rect width="24" height="24" fill="white" transform="translate(0.5)"/>
</clipPath>
</defs>
</svg>
