<svg width="157" height="184" viewBox="0 0 157 184" fill="none" xmlns="http://www.w3.org/2000/svg">
<g clip-path="url(#clip0_215_13)">
<g style="mix-blend-mode:multiply">
<path d="M86.5259 70.5395C87.0442 69.5714 87.5151 68.6956 87.9668 67.8475C87.9209 67.6957 87.888 67.5894 87.8486 67.4603C88.1044 66.9858 88.3637 66.498 88.6259 66.0118C88.5852 65.8438 88.5455 65.6877 88.5006 65.5134C88.7027 65.1355 88.913 64.743 89.1216 64.3534C89.092 64.2413 89.0636 64.1337 88.9989 63.8986C89.1223 63.5383 89.4213 63.1376 89.6189 62.6921C89.3603 62.2958 89.7458 61.836 89.4888 61.4368C89.3203 61.1747 89.0354 61.0051 88.9836 60.6432C88.9373 60.3265 88.7948 60.0177 88.65 59.7267C88.5355 59.4985 88.3956 59.2332 88.1924 59.1166C87.8854 58.9385 87.9919 58.4846 87.6039 58.3764C87.5135 58.353 87.4891 58.0867 87.4302 57.9238C87.0435 57.7168 86.651 57.5066 86.2673 57.3012C86.2113 57.14 86.1566 56.9833 86.1127 56.8555C85.8974 56.7398 85.7026 56.6355 85.5341 56.5458C85.3465 56.5871 85.1892 56.6223 85.053 56.6539C84.785 56.509 84.5388 56.3799 84.3001 56.2513C83.933 56.2504 83.5682 56.2316 83.206 56.2565C82.8948 56.279 82.6283 56.5177 82.2543 56.3293C82.093 56.2474 81.7497 56.4588 81.5264 56.599C81.1321 56.8472 80.7703 57.1403 80.2752 57.501C80.0909 57.8467 79.8254 58.3388 79.5596 58.8383C79.5928 58.9371 79.6257 59.0434 79.6856 59.2183C79.4802 59.6021 79.2504 60.0297 79.0483 60.4076C79.1046 60.5958 79.1375 60.7021 79.186 60.8631C79.0524 61.1106 78.9007 61.3977 78.746 61.6832C78.7727 61.8627 78.8004 62.0197 78.8424 62.2958C78.7628 62.4392 78.5941 62.6672 78.5233 62.9189C78.4544 63.1601 78.5335 63.4453 78.4618 63.6849C78.3861 63.9454 78.2096 64.1805 78.0692 64.4472C78.1021 64.588 78.1373 64.7453 78.1773 64.9284C78.0307 65.1993 77.8757 65.4923 77.7178 65.7837C77.7601 65.9488 77.8028 66.1065 77.848 66.2733C77.744 66.4606 77.641 66.6599 77.5351 66.8577C77.568 66.964 77.6008 67.0703 77.6575 67.2511C77.506 67.5307 77.3299 67.8618 77.1801 68.1385C77.2364 68.3268 77.2693 68.4331 77.3178 68.594C77.1826 68.8444 77.0324 69.1287 76.8778 69.4142C76.909 69.5923 76.9322 69.7507 76.9774 70.0209C76.7981 70.3578 76.5683 70.7854 76.3662 71.1633C76.4225 71.3515 76.4554 71.4579 76.5104 71.6415C76.2039 72.2142 75.8682 72.8396 75.5634 73.4093C75.6214 73.5946 75.6526 73.7039 75.6865 73.8222C75.3768 74.4008 75.0622 74.9881 74.7476 75.5754C74.79 75.7406 74.8326 75.8982 74.8749 76.0634C74.6127 76.5496 74.3517 77.0403 74.0862 77.5323C74.1191 77.6386 74.152 77.745 74.1832 77.8542C74.1654 77.9553 74.1739 78.0711 74.1267 78.1559C73.0001 80.2681 71.8705 82.3787 70.7478 84.47C70.6142 84.5107 70.5078 84.5436 70.3241 84.5986C70.07 85.0701 69.788 85.5989 69.5338 86.0705C69.3456 86.1268 69.2393 86.1596 69.0556 86.2146C68.8551 86.5896 68.6253 87.0172 68.4232 87.3951C68.235 87.4514 68.1287 87.4843 67.995 87.525C67.8485 87.7959 67.6935 88.0889 67.5372 88.3773C67.3727 88.4392 67.2218 88.4971 67.0482 88.5615C66.9523 88.7342 66.8509 88.9306 66.7483 89.1225C66.587 89.1785 66.4319 89.2302 66.2707 89.2862C66.1144 89.5746 65.9577 89.8706 65.7982 90.1649C65.6919 90.1977 65.5855 90.2306 65.3927 90.2882C65.2852 90.4544 65.189 90.8069 64.9927 90.8778C64.0216 91.227 63.6015 92.3148 62.5917 92.6233C62.4942 92.7989 62.3928 92.9953 62.2901 93.1872C62.1288 93.2432 61.9738 93.2949 61.8125 93.3509C61.7069 93.5411 61.6055 93.7376 61.5012 93.9323C61.3919 93.9636 61.2856 93.9965 61.0883 94.0554C60.9316 94.3168 60.738 94.6382 60.5472 94.9611C60.4409 94.994 60.3346 95.0268 60.1753 95.0724C59.3034 96.6981 58.4149 98.3605 57.4911 100.08C57.5068 100.376 57.474 100.717 57.3249 101.083C57.1992 101.392 57.1986 101.855 57.3463 102.147C57.5686 102.589 57.2803 103.018 57.4596 103.413C57.6086 103.744 57.9062 104.036 57.9648 104.378C58.0397 104.795 58.4985 104.927 58.5305 105.401C59.0226 105.666 59.5484 105.947 59.9966 106.188C60.0968 106.435 60.1563 106.583 60.2445 106.797C60.4487 106.787 60.6545 106.775 61.0044 106.759C60.9094 106.737 60.9663 106.738 61.0102 106.762C61.8466 107.207 62.6814 107.655 63.5162 108.104C63.6892 108.295 63.6084 108.676 64.0448 108.738C64.0061 108.938 63.9454 109.131 63.9399 109.327C63.9348 109.481 64.0015 109.637 64.036 109.809C63.7717 109.995 63.5227 110.175 63.1781 110.416C62.9469 110.426 62.5766 110.5 62.2394 110.431C61.9334 110.368 61.6615 110.141 61.4212 110.015C61.2375 110.07 61.1312 110.103 61.0203 110.137C60.0054 109.593 58.9875 109.047 58.0048 108.52C57.9563 108.36 57.9263 108.255 57.8866 108.133C57.5058 107.93 57.1162 107.721 56.8687 107.587C56.3288 106.836 55.8763 106.209 55.3562 105.484C55.199 104.96 54.9669 104.33 54.8227 103.679C54.6973 103.112 54.6643 102.523 54.5799 101.875C54.6482 101.752 54.7495 101.556 54.8539 101.361C54.445 100.904 55.1404 100.555 54.967 100.13C54.7613 99.6173 55.3491 99.3655 55.3457 98.9233C55.3128 98.817 55.28 98.7106 55.2461 98.5923C55.8931 97.3855 56.5434 96.1728 57.1757 94.9923C57.3321 94.9451 57.4384 94.9123 57.563 94.8742C57.871 94.2986 58.1856 93.7113 58.4985 93.1269C58.6598 93.0709 58.8165 93.0162 58.9794 92.9573C59.0817 92.773 59.1831 92.5765 59.2874 92.3817C59.4487 92.3258 59.6038 92.274 59.765 92.218C59.8706 92.0278 59.972 91.8314 60.0633 91.66C60.2373 91.5881 60.5026 91.5516 60.5214 91.4625C60.6386 90.8996 61.2502 90.8601 61.5261 90.4734C61.6074 90.3615 61.9202 90.3361 61.925 90.2584C61.9675 89.6923 62.6422 89.7873 62.8118 89.3646C62.8657 89.2261 62.9889 89.0456 63.1101 89.0134C63.4918 88.919 63.6348 88.4546 64.062 88.4506C64.2199 88.1592 64.3749 87.8662 64.5296 87.5806C64.648 87.5468 64.7543 87.5139 64.9168 87.4625C65.0504 87.215 65.2022 86.9279 65.3568 86.6424C65.522 86.5656 65.6657 86.4998 65.9163 86.3863C66.0434 86.1505 66.2195 85.8195 66.3693 85.5427C66.5576 85.4864 66.6639 85.4535 66.7975 85.4129C66.9441 85.142 67.0975 84.8519 67.2538 84.5634C67.4183 84.5016 67.5691 84.4437 67.7444 84.3763C68.0459 83.8124 68.3605 83.2251 68.6751 82.6378C68.8363 82.5818 68.993 82.5272 69.1526 82.4741C70.044 80.8133 70.9373 79.1421 71.8385 77.4638C71.8053 77.3649 71.7708 77.2615 71.7125 77.0837C71.9715 76.6034 72.2536 76.0746 72.5093 75.6001C72.453 75.4119 72.4202 75.3056 72.3651 75.1219C72.67 74.5521 73.0056 73.9268 73.3121 73.3541C73.2542 73.1688 73.2229 73.0595 73.1679 72.8758C73.528 72.2066 73.9143 71.483 74.2744 70.8138C74.2181 70.6255 74.1852 70.5192 74.1302 70.3355C74.3323 69.9576 74.5621 69.53 74.7626 69.155C74.7063 68.9668 74.6734 68.8605 74.6366 68.7405C74.7897 68.4579 74.9447 68.1649 75.1026 67.8735C75.0603 67.7084 75.0193 67.5477 74.9724 67.3839C75.0764 67.1966 75.1794 66.9972 75.287 66.7966C75.2525 66.6932 75.2196 66.5869 75.163 66.4061C75.316 66.1235 75.4922 65.7925 75.642 65.5157C75.5857 65.3275 75.5528 65.2212 75.5043 65.0602C75.6395 64.8098 75.7896 64.5256 75.9443 64.2401C75.9176 64.0606 75.8899 63.9036 75.8463 63.6304C75.9749 63.3917 76.1495 63.0636 76.2993 62.7869C76.243 62.5986 76.2101 62.4923 76.1551 62.3086C76.3572 61.9307 76.5869 61.5031 76.7874 61.1282C76.7311 60.9399 76.6983 60.8336 76.6615 60.7136C76.8652 60.3328 77.0755 59.9403 77.2841 59.5507C77.2418 59.3855 77.1962 59.2262 77.1539 59.0611C77.4669 58.4767 77.783 57.8865 78.0944 57.305C78.0533 57.1444 78.0149 56.9929 77.9765 56.8414C78.0949 56.8075 78.2012 56.7746 78.3621 56.7262C78.548 56.3775 78.7534 55.9938 78.9145 55.6966C79.2529 55.4594 79.5078 55.2831 79.7766 55.0954C80.7032 54.8058 81.6571 54.5083 82.6065 54.2121C83.0107 54.4978 83.3497 54.1768 83.8189 54.1041C83.9301 54.1659 84.1087 54.2995 84.3116 54.3547C84.4537 54.3953 84.6244 54.3292 84.8533 54.3031C85.1785 54.476 85.568 54.6846 85.9267 54.8799C86.1709 54.847 86.3774 54.82 86.6502 54.7838C86.7448 54.9857 86.8356 55.1739 86.9384 55.3956C87.3895 55.6384 87.8802 55.8993 88.3664 56.1616C88.4194 56.3212 88.4741 56.4779 88.5246 56.6284C88.6767 56.7129 88.8263 56.7883 88.9785 56.8728C89.3764 57.4459 89.7755 58.0236 90.1805 58.6045C90.5348 58.3456 90.6209 57.9492 90.8162 57.625C90.9887 57.3417 91.132 57.0422 91.2753 56.7772C91.4181 56.7339 91.5244 56.701 91.6808 56.6538C92.7109 54.7293 93.7589 52.7726 94.8069 50.8158C94.9704 50.742 95.1154 50.6808 95.3554 50.5728C95.4678 50.3634 95.6065 50.0652 95.7817 49.791C95.952 49.5256 95.9707 49.1263 96.3752 49.0599C96.7722 48.9931 96.6745 48.4105 97.011 48.3905C97.5683 48.3592 97.4335 47.6296 97.9647 47.5761C98.3546 47.536 98.2672 46.9208 98.7569 46.8251C99.0697 46.7652 99.3082 46.3769 99.6115 46.1892C99.9255 45.9959 100.38 45.9496 100.594 45.6891C100.907 45.3115 101.467 45.5155 101.707 45.0898C101.946 44.6671 102.597 44.9634 102.798 44.4701C103.209 44.323 103.619 44.1639 104.031 44.0288C104.614 43.8397 105.2 43.6672 105.774 43.4882C105.886 43.55 105.984 43.6007 106.082 43.6514C106.498 43.5569 106.873 43.4053 107.348 43.4813C107.728 43.5426 108.157 43.3484 108.598 43.3479C109.001 43.3458 109.42 43.4943 109.868 43.2874C110.203 43.1325 110.677 43.2923 111.09 43.2997C111.558 43.3064 112.024 43.2665 112.487 43.3015C112.899 43.3313 113.362 43.1865 113.704 43.5639C114.107 43.328 114.549 43.6768 114.956 43.4741C115.289 43.8811 115.843 43.5258 116.153 43.767C116.558 44.0797 116.999 43.6776 117.402 43.9932C117.711 44.2373 118.269 43.8658 118.606 44.294C118.762 44.2542 118.918 44.2145 119.09 44.1725C119.373 44.3256 119.666 44.4806 119.955 44.6369C120.12 44.5946 120.28 44.5536 120.447 44.5083C120.736 44.6646 121.029 44.8196 121.317 44.9759C121.432 44.9405 121.539 44.9076 121.643 44.8777C121.746 44.9001 121.857 44.9003 121.946 44.9462C123.663 45.8609 125.379 46.7832 127.068 47.6863C127.113 47.8335 127.146 47.9398 127.191 48.0917C127.642 48.3344 128.127 48.5921 128.614 48.8544C128.678 49.0205 128.705 49.1925 128.801 49.3105C129.03 49.5871 129.529 49.6192 129.527 50.1121C129.823 50.3302 130.254 50.4237 130.262 50.9065C130.735 51.0124 130.936 51.4152 131.146 51.7763C131.355 52.1375 131.662 52.419 131.847 52.8091C132.019 53.1687 132.41 53.4238 132.598 53.7811C132.865 54.2931 133.279 54.6991 133.545 55.2066C133.638 55.3844 133.878 55.5102 133.915 55.6916C134.052 56.3418 134.552 56.7995 134.724 57.4422C135.123 58.9505 135.573 60.4444 136.083 61.9185C136.252 62.4068 136.089 62.8793 136.239 63.3413C136.395 63.8185 136.533 64.301 136.678 64.7838C136.626 64.8775 136.573 64.974 136.522 65.0723C136.829 65.7823 136.633 66.562 136.858 67.2806C136.66 67.5612 136.824 67.8395 136.942 68.0544C137.103 68.3505 136.782 68.5974 136.919 68.8341C137.166 69.2583 136.63 69.505 136.727 69.9107C136.806 70.2573 136.819 70.6475 136.743 70.9918C136.676 71.2991 136.453 71.5697 136.327 71.81C136.382 71.9937 136.415 72.1 136.471 72.2883C136.271 72.6632 136.041 73.0909 135.839 73.4687C135.895 73.657 135.928 73.7633 135.965 73.8833C135.655 74.4618 135.341 75.0491 135.026 75.6364C135.068 75.8016 135.111 75.9593 135.153 76.1244C134.736 76.9036 134.314 77.6916 133.892 78.4795C133.787 78.5095 133.681 78.5423 133.462 78.6048C132.868 79.6266 132.314 80.77 131.684 81.8637C131.573 81.8979 131.467 81.9307 131.278 81.987C131.078 82.362 130.848 82.7896 130.646 83.1675C130.458 83.2238 130.351 83.2567 130.204 83.3013C130.095 83.5049 129.97 83.7377 129.857 83.9471C129.982 84.2807 130.306 84.2842 130.518 84.4402C130.624 84.4073 130.73 84.3744 130.84 84.3432C130.939 84.364 131.054 84.363 131.144 84.4088C131.979 84.8494 132.811 85.2959 133.616 85.7278C133.661 85.8751 133.694 85.9814 133.724 86.0861C133.805 86.154 133.873 86.2379 133.964 86.2882C134.203 86.429 134.441 86.5876 134.701 86.6782C135.023 86.788 134.941 87.1486 135.154 87.3092C135.324 87.4379 135.628 87.5259 135.661 87.6787C135.729 87.9843 135.999 88.0844 136.126 88.3116C136.202 88.4498 136.282 88.5821 136.363 88.719C136.443 88.8513 136.521 88.9865 136.617 89.1091C136.714 89.2316 136.828 89.3369 136.981 89.5024C137.12 89.9624 137.284 90.494 137.439 91.0282C137.557 91.4378 137.664 91.8231 137.613 92.2884C137.571 92.6747 137.691 93.1204 137.745 93.5333C137.798 93.9342 137.566 94.146 137.496 94.4786C137.518 94.556 137.551 94.6623 137.607 94.8505C137.407 95.2255 137.177 95.6531 136.975 96.031C137.031 96.2193 137.064 96.3256 137.111 96.482C136.397 97.8162 135.665 99.1827 134.886 100.634C134.831 100.657 134.685 100.721 134.495 100.808C134.208 101.276 133.899 101.786 133.584 102.297C133.066 102.265 133.128 102.87 132.787 103.029C132.687 103.078 132.574 103.095 132.459 103.131C132.355 103.318 132.254 103.514 132.152 103.703C131.988 103.758 131.835 103.814 131.675 103.867C131.572 104.059 131.466 104.257 131.364 104.449C130.638 104.831 130.348 105.064 129.971 105.613C129.801 105.664 129.527 105.715 129.289 105.827C129.059 105.937 128.876 106.157 128.643 106.246C128.381 106.346 128.342 106.684 128.013 106.712C127.691 106.74 127.726 107.146 127.518 107.341C127.427 107.367 127.321 107.4 127.141 107.453C127.031 107.626 126.885 107.847 126.739 108.068C126.632 108.101 126.526 108.134 126.371 108.178C126.129 108.63 125.873 109.111 125.61 109.598C125.444 109.67 125.299 109.731 125.116 109.813C124.325 111.285 123.518 112.794 122.728 114.273C122.774 114.425 122.806 114.531 122.846 114.66C122.645 115.035 122.437 115.425 122.228 115.814C122.269 115.982 122.307 116.141 122.352 116.316C122.2 116.595 122.045 116.888 121.889 117.177C121.931 117.342 121.972 117.502 122.018 117.669C121.912 117.859 121.811 118.056 121.708 118.248C121.741 118.362 121.773 118.468 121.806 118.574C121.869 118.95 121.37 119.201 121.616 119.655C121.766 119.93 121.253 120.178 121.411 120.556C121.592 120.994 121.156 121.249 121.031 121.64C121.057 121.765 121.092 121.922 121.132 122.113C120.99 122.375 120.835 122.668 120.677 122.959C120.718 123.128 120.761 123.285 120.803 123.458C120.651 123.738 120.495 124.033 120.338 124.322C120.381 124.487 120.422 124.648 120.467 124.814C120.363 125.002 120.26 125.201 120.156 125.396C120.572 125.853 119.874 126.2 120.038 126.629C120.234 127.132 119.677 127.397 119.657 127.818C119.694 127.938 119.725 128.048 119.783 128.233C119.582 128.608 119.353 129.036 119.15 129.413C119.207 129.602 119.24 129.708 119.278 129.833C118.179 131.88 117.077 133.941 115.958 136.026C115.833 136.072 115.681 136.125 115.514 136.185C115.36 136.468 115.205 136.761 115.049 137.049C114.888 137.105 114.731 137.16 114.57 137.216C114.466 137.403 114.365 137.6 114.322 137.676C114.012 137.898 113.801 138.049 113.497 138.267C112.815 138.474 112.015 138.715 111.324 138.925C110.96 138.911 110.702 138.901 110.316 138.886C110.245 138.847 110.051 138.743 109.859 138.64C109.692 138.685 109.531 138.726 109.371 138.767C108.492 138.295 107.606 137.822 106.727 137.349C106.616 137.384 106.51 137.417 106.404 137.449C105.988 137.46 105.737 137.106 105.396 137.036C105.312 136.713 105.269 136.425 104.866 136.419C104.421 136.69 104.452 137.289 104.083 137.601C104.133 137.747 104.168 137.855 104.228 138.03C104.021 138.416 103.791 138.844 103.589 139.222C103.646 139.41 103.679 139.517 103.727 139.677C103.593 139.925 103.442 140.212 103.287 140.498C103.314 140.677 103.341 140.834 103.382 141.106C103.255 141.341 103.079 141.672 102.929 141.949C102.985 142.137 103.018 142.244 103.073 142.427C102.873 142.802 102.643 143.23 102.441 143.608C102.497 143.796 102.53 143.902 102.567 144.022C102.363 144.403 102.155 144.793 101.944 145.185C101.987 145.351 102.028 145.511 102.074 145.675C101.708 146.356 101.343 147.042 100.97 147.734C101.004 147.838 101.039 147.941 101.069 148.038C101.049 148.15 101.058 148.265 101.013 148.352C99.9403 150.368 98.8631 152.377 97.7923 154.375C97.6633 154.414 97.5569 154.447 97.3703 154.5C96.906 155.364 96.4136 156.286 95.9476 157.153C95.7594 157.209 95.6531 157.242 95.5468 157.275C95.133 157.627 95.1595 158.331 94.5915 158.54C94.1637 158.697 94.215 159.384 93.6316 159.324C93.4721 159.619 93.3171 159.912 93.1591 160.203C92.9979 160.259 92.8412 160.314 92.6799 160.37C92.5759 160.557 92.4729 160.756 92.3718 160.945C92.2122 160.998 92.0555 161.053 91.905 161.103C91.8189 161.259 91.7763 161.446 91.6596 161.545C91.3859 161.776 91.0621 161.953 90.7797 162.179C90.4972 162.405 90.2726 162.713 89.9725 162.895C89.7063 163.057 89.5549 163.406 89.1835 163.398C89.1216 163.862 88.441 163.66 88.3891 164.133C87.5307 164.196 87.0608 164.981 86.3118 165.254C86.0791 165.714 85.5862 165.678 85.1925 165.843C85.1405 165.936 85.0852 166.036 85.0638 166.081C84.4044 166.324 83.72 166.453 83.1892 166.809C82.6118 167.201 81.9593 167.252 81.35 167.481C80.7255 167.716 80.0469 167.814 79.4416 168.091C78.9585 168.313 78.4596 168.032 78.0198 168.259C77.511 168.52 76.9449 168.305 76.4439 168.49C75.9702 168.668 75.4941 168.587 75.0412 168.527C74.7342 168.487 74.5151 168.633 74.2524 168.644C73.9943 168.654 73.7003 168.556 73.4835 168.65C72.9597 168.876 72.4323 168.737 71.9094 168.768C71.3896 168.801 70.8813 168.703 70.3449 168.807C69.7479 168.923 69.107 168.843 68.4886 168.833C68.023 168.823 67.5583 168.791 66.9526 168.765C66.894 168.733 66.6992 168.628 66.5103 168.527C66.3435 168.573 66.1829 168.614 66.0178 168.656C65.8275 168.55 65.6311 168.449 65.4392 168.346C65.3283 168.38 65.2191 168.412 65.0383 168.468C64.8501 168.387 64.6059 168.282 64.3646 168.179C64.2582 168.211 64.1519 168.244 63.9972 168.289C63.6427 168.099 63.259 167.894 62.8723 167.687C62.6941 167.718 62.5371 167.746 62.2698 167.793C61.8305 167.557 61.3017 167.275 60.8302 167.02C60.6419 167.077 60.5356 167.11 60.4111 167.148C58.7591 166.261 57.0908 165.37 55.3949 164.459C55.3506 164.338 55.2973 164.186 55.2341 164.017C54.5619 163.655 53.8764 163.29 53.1955 162.924C53.1584 162.811 53.1239 162.708 53.0383 162.469C52.7378 162.245 52.2702 162.073 51.8588 161.814C51.8259 161.708 51.793 161.601 51.7367 161.413C51.3618 161.213 50.9341 160.983 50.751 160.885C50.4544 160.502 50.3493 160.229 50.1964 160.194C49.6856 160.087 49.7908 159.456 49.3144 159.28C49.0253 159.173 48.7754 158.781 48.644 158.459C48.4813 158.063 48.0195 157.86 48.0236 157.349C48.0264 156.972 47.5159 156.822 47.491 156.391C47.4636 155.951 46.9924 155.724 46.9009 155.275C46.8305 154.926 46.8317 154.482 46.3807 154.308C46.3498 154.295 46.3507 154.204 46.3289 154.153C46.0651 153.566 46.021 152.922 45.6066 152.351C45.2361 151.839 45.1672 151.108 44.9713 150.474C44.7741 149.836 44.6012 149.189 44.3858 148.556C44.2117 148.042 44.4287 147.493 44.1739 146.972C43.9342 146.487 44.1909 145.921 44.1088 145.428C43.9817 144.691 44.043 143.967 43.9904 143.241C43.962 142.857 44.2731 142.628 44.2184 142.333C44.1659 142.055 44.2936 141.77 44.2247 141.564C44.099 141.176 44.2996 140.939 44.41 140.636C44.4562 140.505 44.3696 140.323 44.3348 140.124C44.4732 139.867 44.6282 139.574 44.7845 139.286C44.7422 139.121 44.7012 138.96 44.6576 138.791C44.8122 138.505 44.9672 138.212 45.1252 137.921C45.0812 137.758 45.0402 137.598 44.9979 137.433C45.3108 136.848 45.6254 136.261 45.9367 135.679C45.9012 135.564 45.87 135.455 45.8186 135.292C47.186 132.739 48.573 130.151 49.9648 127.555C50.0604 127.527 50.1667 127.495 50.352 127.437C50.8687 126.471 51.4146 125.454 51.9313 124.488C52.1166 124.43 52.2259 124.399 52.4096 124.344C52.716 123.771 53.0517 123.146 53.3565 122.576C53.5447 122.52 53.6511 122.487 53.774 122.452C53.9761 122.074 54.1847 121.685 54.395 121.292C54.5578 121.233 54.7129 121.181 54.8758 121.123C55.0289 120.84 55.1855 120.544 55.3515 120.238C55.453 120.214 55.5606 120.186 55.7605 120.136C56.0326 119.804 56.1749 119.32 56.4544 118.92C56.5607 118.888 56.667 118.855 56.7762 118.823C57.0636 118.623 57.1279 118.28 57.3427 117.955C57.4344 117.914 57.5797 117.845 57.7907 117.748C57.9636 117.423 58.1689 117.039 58.3759 116.652C58.5408 116.583 58.6874 116.519 58.8828 116.436C59.0492 116.157 59.2429 115.836 59.4109 115.554C59.5809 115.503 59.6872 115.47 59.8101 115.435C60.0139 115.054 60.2225 114.664 60.4311 114.275C60.5924 114.219 60.7491 114.164 60.9103 114.108C61.065 113.822 61.2217 113.526 61.3845 113.226C61.4875 113.199 61.5952 113.171 61.771 113.123C61.978 112.736 62.2078 112.309 62.4099 111.931C62.5982 111.875 62.7045 111.842 62.8882 111.787C63.0887 111.412 63.3184 110.984 63.5205 110.606C63.7088 110.55 63.8151 110.517 63.9988 110.462C64.2529 109.991 64.535 109.462 64.7891 108.99C64.9773 108.934 65.0837 108.901 65.2673 108.846C65.6274 108.177 66.0154 107.45 66.3738 106.784C66.5621 106.728 66.6684 106.695 66.7884 106.658C67.2024 105.885 67.6212 105.103 68.0418 104.318C68.203 104.262 68.3597 104.207 68.521 104.151C69.0425 103.177 69.569 102.194 70.0987 101.206C70.2017 101.179 70.3093 101.15 70.364 101.135C70.4631 101.094 70.5399 101.087 70.561 101.049C71.3542 99.5785 72.14 98.1079 72.9222 96.6507C73.0512 96.6113 73.1559 96.5814 73.3185 96.5299C75.9491 91.6191 78.5991 86.6731 81.2541 81.7184C81.2267 81.6228 81.1939 81.5165 81.1333 81.3221C81.2831 81.0453 81.4625 80.7084 81.6419 80.3715C83.2472 77.3764 84.8512 74.3768 86.4624 71.3849C86.6008 71.1286 86.698 70.8916 86.4898 70.5424L86.5259 70.5395ZM46.6123 146.132C46.6306 146.437 47.1146 146.958 46.8446 147.59C47.2657 148.976 47.6823 150.364 48.1035 151.75C48.5302 152.002 48.6155 152.455 48.6725 152.87C48.7361 153.342 49.2245 153.517 49.2913 153.983C49.3529 154.396 49.432 154.854 49.8603 155.103C49.9349 155.596 50.2069 155.996 50.496 156.379C50.8109 156.791 51.143 157.186 51.376 157.656C51.5399 157.988 52.1281 157.936 52.1192 158.455C52.1179 158.52 52.2658 158.598 52.3566 158.648C52.592 158.783 52.831 158.904 53.017 159.003C53.0734 159.192 53.1062 159.298 53.1625 159.486C53.5375 159.687 53.9651 159.916 54.343 160.119C54.3993 160.307 54.4322 160.413 54.4872 160.597C55.0599 160.903 55.6852 161.239 56.2667 161.55C56.3159 161.731 56.3442 161.838 56.3728 161.938C58.1494 162.89 59.9172 163.837 61.6791 164.781C61.8443 164.739 62.002 164.696 62.1687 164.651C62.6578 164.915 63.1456 165.174 63.6113 165.425C63.7944 165.385 63.9534 165.347 64.1289 165.306C64.5384 165.748 65.1578 165.563 65.6065 165.79C66.026 166 66.4389 165.739 66.8594 165.995C67.1674 166.185 67.6625 166.066 68.079 166.067C68.4387 166.068 68.7976 166.118 69.1582 166.13C69.9828 166.155 70.8106 166.106 71.6326 166.225C72.2266 165.9 72.9026 166.069 73.5373 165.946C74.181 165.821 74.8974 166.062 75.5583 165.782C75.8631 166.15 76.3207 165.581 76.6268 165.954C76.9487 165.857 77.2598 165.731 77.5875 165.672C77.9455 165.606 78.3243 165.648 78.6784 165.569C79.167 165.461 79.642 165.288 80.1203 165.144C80.6531 164.984 81.1811 164.799 81.7218 164.666C82.202 164.546 82.4577 164.037 82.9965 164.018C83.5564 163.996 83.8736 163.418 84.4344 163.339C84.8054 163.284 84.9835 162.874 85.3902 162.79C85.7319 162.719 86.0654 162.491 86.3421 162.261C86.5007 162.127 86.5888 161.927 86.8306 161.878C87.0966 161.826 87.1296 161.408 87.4698 161.444C88.0971 160.9 88.7964 160.461 89.4846 160.001C89.6115 159.42 90.4452 159.443 90.5026 158.809C91.1239 158.786 91.1269 157.919 91.7528 157.895C91.8763 157.5 92.2329 157.361 92.516 157.12C92.793 156.883 92.9044 156.455 93.0899 156.114C93.1143 156.07 93.1634 156.043 93.1712 156.036C93.3529 155.957 93.4995 155.893 93.666 155.821C94.0326 155.14 94.3946 154.46 94.7416 153.814C94.898 153.767 95.0027 153.737 95.147 153.691C96.4216 151.312 97.7107 148.908 98.9953 146.504C99.044 146.416 99.0414 146.304 99.0608 146.2C99.028 146.093 98.9951 145.987 98.9626 145.873C99.2248 145.387 99.4857 144.896 99.7464 144.413C99.704 144.248 99.663 144.087 99.6207 143.922C99.8277 143.536 100.038 143.143 100.24 142.765C100.198 142.593 100.16 142.434 100.116 142.264C100.325 141.874 100.534 141.485 100.734 141.11C100.698 140.982 100.665 140.876 100.607 140.691C100.757 140.414 100.933 140.083 101.063 139.841C101.016 139.574 100.989 139.417 100.957 139.239C101.164 138.852 101.37 138.468 101.538 138.152C101.504 137.915 101.481 137.757 101.466 137.653C101.626 137.351 101.758 137.106 101.898 136.847C101.861 136.7 101.823 136.541 101.779 136.372C101.932 136.089 102.087 135.796 102.244 135.508C102.201 135.342 102.16 135.182 102.118 135.017C102.325 134.63 102.535 134.237 102.736 133.863C102.694 133.69 102.656 133.531 102.612 133.361C102.77 133.07 102.923 132.78 103.073 132.503C103.034 132.374 103.001 132.268 102.948 132.081C103.097 131.804 103.274 131.473 103.404 131.232C103.357 130.964 103.329 130.807 103.298 130.629C103.505 130.242 103.71 129.859 103.898 129.507C103.851 129.351 103.818 129.244 103.78 129.12C103.931 128.84 104.086 128.547 104.242 128.259C104.202 128.091 104.159 127.933 104.116 127.763C104.269 127.481 104.425 127.185 104.582 126.896C104.539 126.731 104.497 126.574 104.456 126.405C104.663 126.019 104.873 125.626 105.078 125.242C105.043 125.127 105.01 125.021 104.954 124.833C105.154 124.458 105.384 124.03 105.586 123.652C105.53 123.464 105.497 123.357 105.442 123.174C105.696 122.702 105.978 122.173 106.214 121.734C106.169 121.464 106.14 121.31 106.109 121.132C106.369 120.648 106.627 120.164 106.868 119.715C106.821 119.559 106.788 119.453 106.748 119.312C106.998 118.846 107.261 118.36 107.516 117.866C107.537 117.828 107.504 117.763 107.499 117.711C107.466 117.604 107.433 117.498 107.399 117.387C107.661 116.901 107.923 116.407 108.186 115.921C108.142 115.759 108.101 115.598 108.058 115.433C108.319 114.95 108.58 114.459 108.836 113.985C108.792 113.808 108.757 113.65 108.714 113.48C109.028 112.893 109.341 112.309 109.646 111.739C109.607 111.61 109.574 111.504 109.517 111.315C109.983 110.448 110.474 109.53 110.921 108.698C110.875 108.428 110.846 108.274 110.835 108.211C113.506 103.226 116.134 98.3215 118.743 93.4487C118.9 93.4015 119.004 93.3716 119.149 93.3254C119.714 92.2724 120.29 91.1943 120.871 90.1195C120.892 90.0815 120.96 90.0694 121.007 90.046C121.114 90.0131 121.22 89.9803 121.334 89.9477C121.596 89.4615 121.857 88.9708 122.119 88.4846C122.281 88.4287 122.437 88.374 122.599 88.318C122.806 87.9313 123.016 87.5388 123.218 87.1609C123.385 87.1007 123.539 87.0444 123.702 86.9855C123.86 86.6942 124.013 86.4041 124.155 86.142C124.338 86.0675 124.489 86.0095 124.617 85.9581C124.765 85.6843 124.877 85.4284 125.032 85.1968C125.178 84.9754 125.55 85.0634 125.66 84.7414C125.746 84.4904 125.905 84.265 125.998 84.0907C126.2 84.0305 126.307 83.9976 126.416 83.9664C126.609 83.6451 126.806 83.3254 126.971 83.0568C127.159 83.0005 127.265 82.9676 127.371 82.9347C127.627 82.5217 127.805 82.0573 128.026 81.7552C128.268 81.6713 128.371 81.6368 128.486 81.5967C128.746 81.1135 129.007 80.6228 129.263 80.1483C129.432 80.0852 129.584 80.0318 129.704 79.9875C130.982 77.6032 132.244 75.2481 133.497 72.9076C133.458 72.7785 133.428 72.6738 133.366 72.4749C133.539 72.1497 133.829 71.7861 133.927 71.3737C134.011 71.0297 133.98 70.6717 134.113 70.3014C134.246 69.9384 134.119 69.4774 134.101 68.9852C134.166 68.8681 134.267 68.6717 134.381 68.4593C134.046 67.8215 134.328 67.0664 134.002 66.4185C134.38 65.717 133.491 65.0898 133.884 64.3889C133.73 63.6525 133.259 62.9773 133.46 62.1738C133.252 61.48 133.039 60.7875 132.83 60.0937C132.622 59.3999 132.409 58.7074 132.2 58.0091C132.106 57.9571 132.009 57.9035 131.875 57.8362C131.831 57.1765 131.324 56.7455 131.002 56.2072C130.573 55.4903 129.866 54.9294 129.77 54.0411C129.554 53.9254 129.36 53.8211 129.241 53.759C129.012 53.379 128.832 53.0611 128.631 52.7542C128.433 52.4489 127.978 52.4413 127.863 51.9643C127.794 51.6691 127.165 51.6494 127.17 51.0967C126.664 50.8276 126.14 50.5443 125.667 50.2931C125.61 50.1048 125.578 49.9985 125.545 49.8922C123.975 49.0512 122.402 48.2086 120.832 47.3676C120.674 47.4102 120.513 47.4512 120.347 47.4965C119.957 47.2878 119.564 47.0776 119.198 46.882C119.012 46.9204 118.832 47.0115 118.699 46.9683C118.397 46.8698 118.164 46.656 117.775 46.777C117.447 46.8783 117.126 46.3324 116.713 46.6278C116.336 46.3957 115.926 46.3406 115.494 46.4028C115.155 46.0121 114.641 46.4154 114.278 46.1301C113.823 46.5285 113.482 45.9638 113.048 45.9871C112.173 46.0332 111.289 46.0175 110.418 45.9319C110.116 45.9024 109.868 45.9636 109.636 46.0645C109.309 46.2047 108.999 45.8602 108.694 46.0853C108.25 45.8923 107.819 46.2543 107.448 46.1783C106.966 46.0796 106.599 46.266 106.183 46.3455C106.089 46.2935 105.99 46.2383 105.895 46.1892C105.466 46.3191 105.046 46.5107 104.609 46.5593C104.082 46.6189 103.812 47.1123 103.332 47.2054C102.996 47.2718 102.778 47.4797 102.524 47.6875C102.248 47.9168 101.913 48.1332 101.57 48.2142C101.217 48.2979 101.063 48.5955 100.777 48.724C100.679 48.7692 100.503 48.7975 100.494 48.8541C100.425 49.3786 99.9136 49.4659 99.6067 49.7359C99.3311 49.9772 98.9806 50.1119 98.823 50.4992C98.7795 50.6052 98.5415 50.6339 98.2895 50.7429C98.1053 51.0886 97.8755 51.5162 97.675 51.8912C97.4868 51.9475 97.3805 51.9804 97.2742 52.0133C96.6434 53.1908 96.011 54.3713 95.3819 55.5459C95.2223 55.599 95.0656 55.6536 94.9043 55.7096C94.6404 56.1987 94.3811 56.6865 94.1156 57.1785C93.8159 57.215 93.6468 57.3816 93.4801 57.6336C93.3196 57.8814 93.0263 58.0441 92.7728 58.2594C92.8037 58.4106 92.8314 58.5676 92.8845 58.8306C92.5943 59.3741 92.257 60.0023 91.9522 60.5721C92.0101 60.7574 92.0413 60.8667 92.0781 60.9866C91.9251 61.2692 91.77 61.5622 91.6121 61.8536C91.6544 62.0188 91.7 62.1781 91.7423 62.3432C91.6367 62.5335 91.5353 62.7299 91.4326 62.9218C91.4766 63.084 91.5176 63.2446 91.5628 63.4114C91.3542 63.801 91.144 64.1935 90.9467 64.5626C90.9868 64.7457 91.0248 64.9046 91.0655 65.0727C90.9092 65.3612 90.7542 65.6542 90.619 65.9046C90.6597 66.1071 90.6904 66.2658 90.7249 66.4381C90.4626 66.9243 90.2066 67.4062 89.9606 67.8632C90.0052 68.0104 90.038 68.1167 90.0943 68.305C89.7343 68.9742 89.3463 69.7007 88.9878 70.3671C89.0441 70.5553 89.077 70.6616 89.1164 70.7907C88.5997 71.7559 88.072 72.7341 87.553 73.7172C87.5319 73.7552 87.568 73.8212 87.58 73.8892C87.609 73.9818 87.6419 74.0881 87.6734 74.1899C85.0919 79.0055 82.515 83.8197 79.9367 88.6294C79.9807 88.7917 80.0217 88.9523 80.0591 89.0918C78.7342 91.561 77.422 94.0143 76.115 96.4514C75.9414 96.5158 75.7922 96.5708 75.6277 96.6326C74.6824 98.3975 73.7371 100.162 72.8015 101.91C72.6724 101.949 72.5632 101.98 72.3779 102.038C71.8612 103.003 71.3152 104.021 70.818 104.951C70.569 105.062 70.4224 105.126 70.2589 105.2C69.8416 105.979 69.426 106.755 69.0282 107.499C68.8719 107.547 68.7655 107.579 68.6592 107.612C68.2114 108.302 67.9053 109.074 67.4949 109.696C67.2884 109.757 67.1821 109.79 67.0712 109.825C66.7567 110.412 66.4421 110.999 66.1275 111.586C65.9679 111.639 65.8112 111.694 65.65 111.75C65.3877 112.236 65.1268 112.727 64.8726 113.199C64.7007 113.26 64.5498 113.318 64.3853 113.38C64.2274 113.671 64.074 113.961 63.9258 114.235C63.7967 114.274 63.6875 114.306 63.5022 114.364C63.3017 114.739 63.0719 115.166 62.8698 115.544C62.6816 115.6 62.5752 115.633 62.4416 115.674C62.2577 115.978 62.0669 116.301 61.8976 116.578C61.7276 116.629 61.6212 116.662 61.433 116.718C61.2309 117.096 61.0011 117.524 60.8006 117.899C60.6124 117.955 60.5061 117.988 60.3998 118.021C60.2418 118.312 60.0852 118.608 59.9289 118.897C59.7693 118.95 59.6125 119.004 59.4513 119.06C59.2427 119.45 59.0324 119.842 58.8335 120.214C58.6599 120.279 58.5091 120.337 58.3462 120.396C58.1883 120.687 58.0349 120.977 57.8867 121.251C57.7547 121.289 57.6484 121.322 57.4631 121.38C57.2626 121.755 57.0328 122.182 56.8307 122.56C56.6424 122.616 56.5361 122.649 56.3524 122.704C56.1519 123.079 55.9222 123.507 55.7201 123.885C55.5318 123.941 55.4255 123.974 55.3192 124.007C54.9237 124.595 54.6784 125.278 54.3069 125.796C54.1079 125.858 53.9987 125.889 53.8924 125.922C53.3123 127.001 52.7352 128.082 52.1568 129.158C51.9971 129.211 51.8404 129.266 51.7035 129.313C50.5889 131.389 49.487 133.45 48.3918 135.492C48.4351 135.669 48.4732 135.828 48.5123 135.999C48.1994 136.583 47.8848 137.171 47.5914 137.72C47.6308 137.918 47.663 138.074 47.6936 138.232C47.6557 138.625 47.1183 138.82 47.3018 139.29C47.4935 139.779 46.8374 140.05 46.9458 140.49C47.021 140.796 46.9707 141.024 46.8108 141.257C46.6109 141.548 47.0135 141.906 46.6976 142.178C46.9364 142.583 46.6946 142.908 46.5227 143.245C46.604 143.512 46.7498 143.781 46.7518 144.046C46.7536 144.664 46.6836 145.28 46.6256 146.17L46.6123 146.132ZM106.927 128.133C106.771 128.429 106.611 128.724 106.455 129.012C106.499 129.174 106.54 129.335 106.582 129.5C106.373 129.89 106.163 130.282 105.966 130.651C106.007 130.832 106.046 130.99 106.085 131.161C105.928 131.45 105.773 131.743 105.627 132.014C105.667 132.147 105.7 132.254 105.733 132.36C105.752 132.803 105.146 133.053 105.365 133.561C105.95 133.874 106.537 134.188 107.115 134.498C107.176 134.666 107.229 134.818 107.276 134.947C107.54 135.243 107.814 134.951 108.146 135.021C108.858 135.401 109.637 135.818 110.4 136.23C110.831 136.04 111.26 136.248 111.69 136.107C112.162 135.952 112.484 135.595 112.966 135.361C113.094 135.122 113.245 134.838 113.38 134.587C113.541 134.539 113.647 134.506 113.781 134.465C114.744 132.668 115.717 130.854 116.682 129.039C116.729 128.954 116.724 128.84 116.743 128.736C116.71 128.629 116.677 128.523 116.646 128.414C116.855 128.024 117.065 127.632 117.274 127.242C117.23 127.08 117.189 126.919 117.146 126.754C117.254 126.561 117.353 126.367 117.448 126.19C117.405 126.013 117.367 125.854 117.329 125.687C117.592 125.275 117.803 124.875 117.728 124.328C117.693 124.067 117.934 123.784 117.895 123.413C117.859 123.091 118.162 122.731 118.297 122.427C118.25 122.27 118.218 122.161 118.186 122.055C118.347 121.716 118.508 121.376 118.639 121.1C118.58 120.903 118.547 120.797 118.514 120.69C118.672 120.399 118.829 120.103 118.985 119.814C118.941 119.652 118.9 119.492 118.858 119.326C118.96 119.135 119.065 118.94 119.198 118.692C118.839 118.382 119.187 118.127 119.287 117.823C119.38 117.53 119.133 117.19 119.406 116.905C119.699 116.597 119.553 116.198 119.619 115.844C119.678 115.539 119.905 115.267 120.022 115.049C119.958 114.841 119.928 114.736 119.895 114.63C120.221 113.877 120.693 113.193 120.985 112.509C120.92 112.301 120.887 112.194 120.856 112.085C121.224 111.401 121.591 110.713 121.961 110.026C122.113 109.973 122.268 109.921 122.432 109.867C122.799 109.186 123.166 108.497 123.531 107.819C123.646 107.784 123.753 107.751 123.939 107.697C124.138 107.325 124.369 106.895 124.462 106.72C124.852 106.412 125.07 106.315 125.163 106.148C125.426 105.674 126.026 105.532 126.244 105.022C126.933 104.657 127.503 104.113 128.162 103.712C128.882 103.277 129.391 102.615 130.067 102.136C130.588 102.169 130.504 101.548 130.861 101.401C130.968 101.369 131.074 101.336 131.183 101.304C131.29 101.111 131.392 100.915 131.494 100.723C131.654 100.67 131.811 100.615 131.972 100.559C132.234 100.073 132.495 99.5823 132.749 99.1108C132.918 99.0477 133.072 98.9914 133.188 98.9484C133.781 97.8382 134.36 96.7618 134.928 95.7029C134.889 95.5738 134.856 95.4675 134.803 95.2809C135.003 94.906 135.233 94.4783 135.417 94.1326C135.291 93.5533 135.479 93.0759 135.422 92.6343C135.36 92.1596 135.512 91.7002 135.334 91.207C135.181 90.7853 134.715 90.5764 134.713 90.1043C134.271 89.8934 134.238 89.2431 133.689 89.149C133.649 88.5029 132.967 88.5529 132.687 88.2291C132.61 88.0444 132.549 87.8994 132.497 87.7788C131.627 87.3112 130.807 86.8293 129.947 86.44C129.699 86.3289 129.355 86.4789 129.026 86.3268C128.718 86.1861 128.319 86.2483 127.956 86.2192C127.655 86.4235 127.675 86.9743 127.165 86.9552C126.962 87.2717 126.763 87.5897 126.583 87.8726C126.426 87.9198 126.32 87.9527 126.214 87.9856C126.02 88.3069 125.823 88.6266 125.664 88.8939C125.475 88.9502 125.369 88.9831 125.258 89.0172C125.1 89.3086 124.945 89.6016 124.787 89.893C124.626 89.949 124.471 90.0007 124.31 90.0567C123.943 90.7377 123.578 91.4232 123.216 92.0954C123.047 92.1585 122.895 92.2119 122.732 92.2708C122.154 93.3472 121.578 94.4252 121.008 95.487C120.879 95.5264 120.774 95.5563 120.621 95.6052C118.303 99.9316 115.969 104.287 113.638 108.637C113.675 108.757 113.708 108.864 113.761 109.05C113.191 110.112 112.593 111.231 112.023 112.293C112.081 112.478 112.11 112.583 112.167 112.771C111.807 113.44 111.419 114.167 111.06 114.833C111.118 115.018 111.149 115.128 111.204 115.311C110.949 115.786 110.667 116.315 110.409 116.792C110.468 116.97 110.5 117.076 110.535 117.179C110.271 117.676 110.007 118.165 109.746 118.648C109.789 118.814 109.831 118.971 109.874 119.136C109.61 119.626 109.35 120.113 109.091 120.594C109.128 120.714 109.161 120.82 109.217 121.008C108.963 121.48 108.681 122.008 108.427 122.48C108.485 122.665 108.516 122.775 108.571 122.958C108.315 123.433 108.035 123.959 107.781 124.43C107.839 124.615 107.87 124.725 107.925 124.908C107.725 125.283 107.495 125.711 107.293 126.089C107.351 126.274 107.382 126.383 107.437 126.567C107.235 126.945 107.005 127.373 106.804 127.748C106.862 127.933 106.895 128.039 106.924 128.147L106.927 128.133Z" fill="black"/>
<path d="M57.023 125.676C57.1276 125.646 57.234 125.613 57.4206 125.56C57.6763 125.085 57.9584 124.557 58.2141 124.082C58.4024 124.026 58.5087 123.993 58.6924 123.938C58.8929 123.563 59.1226 123.135 59.3248 122.757C59.513 122.701 59.6193 122.668 59.803 122.613C59.9528 122.337 60.129 122.005 60.2788 121.729C60.467 121.672 60.5733 121.64 60.757 121.585C61.0128 121.11 61.2932 120.584 61.5473 120.113C61.7356 120.056 61.8419 120.024 61.9602 119.99C62.1133 119.707 62.2683 119.414 62.4262 119.123C62.5875 119.067 62.7426 119.015 62.9038 118.959C63.1108 118.572 63.3211 118.18 63.5297 117.79C63.6909 117.734 63.846 117.682 64.0073 117.627C64.2712 117.137 64.5305 116.65 64.7895 116.169C64.9094 116.133 65.0157 116.1 65.204 116.043C65.5104 115.471 65.8445 114.848 66.1509 114.276C66.3392 114.219 66.4455 114.186 66.6292 114.131C66.7806 113.852 66.9567 113.521 67.1049 113.247C67.2932 113.191 67.3995 113.158 67.5286 113.118C67.6767 112.844 67.8301 112.554 67.9864 112.266C68.1509 112.204 68.3018 112.146 68.4738 112.085C68.5696 111.912 68.671 111.716 68.7753 111.521C68.9366 111.465 69.0917 111.413 69.2529 111.357C69.4092 111.069 69.5659 110.773 69.7238 110.481C69.833 110.45 69.9394 110.417 70.1383 110.355C70.295 110.094 70.4887 109.773 70.6794 109.45C70.7857 109.417 70.895 109.386 71.0803 109.328C71.2808 108.953 71.5105 108.525 71.7127 108.147C71.9009 108.091 72.0072 108.058 72.1909 108.003C72.3914 107.628 72.6212 107.2 72.8233 106.822C73.0115 106.766 73.1178 106.733 73.2469 106.694C73.3951 106.42 73.5485 106.13 73.7064 105.839C73.8693 105.78 74.0231 105.723 74.1938 105.657C74.6045 104.89 75.0234 104.108 75.4439 103.323C75.6052 103.267 75.7602 103.215 75.9215 103.159C76.394 102.28 76.8668 101.394 77.3409 100.513C77.4502 100.481 77.5565 100.448 77.6628 100.416C77.7103 100.392 77.7841 100.383 77.8023 100.344C78.5402 98.973 79.2753 97.6006 79.999 96.2488C80.1372 96.2068 80.2435 96.1739 80.3999 96.1267C81.6646 93.7658 82.9456 91.3755 84.2266 88.9853C84.1941 88.8715 84.1612 88.7652 84.1033 88.5799C84.2531 88.3032 84.4309 87.9692 84.579 87.6954C84.5227 87.5071 84.4899 87.4008 84.4505 87.2717C84.6494 86.8997 84.858 86.5101 85.0666 86.1205C85.0259 85.9524 84.9878 85.7934 84.9461 85.6133C85.5671 84.4533 86.1979 83.2758 86.827 82.1012C86.7847 81.936 86.7421 81.7783 86.6997 81.6132C87.2782 80.5367 87.8553 79.4558 88.4338 78.3794C88.4025 78.2701 88.3696 78.1638 88.3198 77.9983C88.6155 77.1555 89.192 76.3996 89.5543 75.5402C89.5214 75.4339 89.4886 75.3275 89.4323 75.1393C89.6864 74.6678 89.9685 74.139 90.2226 73.6674C90.1663 73.4792 90.1334 73.3729 90.0784 73.1892C90.2789 72.8142 90.5086 72.3866 90.7108 72.0087C90.6545 71.8205 90.6216 71.7142 90.5822 71.5851C90.8363 71.1135 91.0957 70.6257 91.3579 70.1396C91.3172 69.9715 91.2791 69.8125 91.2374 69.6324C91.5975 68.9631 91.9628 68.2776 92.3309 67.5937C92.2886 67.4285 92.246 67.2709 92.2037 67.1057C92.4659 66.6195 92.7269 66.1288 92.9907 65.6397C92.9565 65.5288 92.9266 65.4241 92.8937 65.3178C92.8856 65.2635 92.8553 65.2008 92.8765 65.1627C93.1852 64.5722 93.501 63.9894 93.8042 63.4226C93.7622 63.2844 93.7294 63.1781 93.6838 63.0188C94.7919 60.9538 95.915 58.8549 97.0348 56.7619C97.1502 56.7265 97.2565 56.6936 97.4432 56.6402C97.8032 55.9709 98.1896 55.2474 98.5497 54.5781C98.7379 54.5218 98.8442 54.4889 99.0279 54.4339C99.2284 54.059 99.4582 53.6313 99.6603 53.2535C99.8485 53.1971 99.9548 53.1643 100.07 53.1288C100.225 52.8433 100.38 52.5503 100.538 52.2589C100.699 52.2029 100.856 52.1482 101.015 52.0952C101.118 51.9033 101.224 51.7056 101.274 51.6149C101.531 51.4356 101.725 51.3406 101.868 51.194C102.085 50.9695 102.426 50.9483 102.602 50.6098C102.756 50.3122 103.092 50.0315 103.412 49.9225C103.879 49.7643 104.248 49.4446 104.688 49.2793C105.52 48.9675 106.388 48.7488 107.245 48.489C107.691 48.7061 108.088 48.467 108.5 48.3589C108.808 48.7139 109.264 48.1626 109.568 48.5309C109.914 48.2597 110.305 48.6526 110.666 48.4509C110.957 48.2912 111.291 48.4075 111.596 48.3817C112.172 48.3302 112.74 48.4731 113.309 48.3867C113.737 48.3183 114.076 48.9158 114.537 48.5402C114.859 48.7953 115.219 48.7539 115.605 48.7616C115.897 48.7667 116.185 49.0414 116.435 49.1765C116.601 49.1267 116.707 49.0939 116.845 49.0519C118.729 50.0593 120.628 51.0793 122.503 52.0818C122.549 52.2337 122.579 52.3384 122.621 52.4691C123.093 52.7232 123.58 52.9825 124.066 53.2447C124.125 53.4076 124.182 53.5614 124.245 53.7305C124.522 53.8803 124.815 54.0353 125.103 54.1916C125.157 54.3558 125.214 54.5095 125.267 54.6692C125.558 54.8271 125.851 54.9821 126.142 55.14C126.177 55.2509 126.21 55.3572 126.239 55.4619C126.332 55.8195 126.885 55.6861 126.924 56.0983C126.964 56.5152 127.517 56.4506 127.587 56.7384C127.672 57.0882 128.039 57.1999 128.1 57.5322C128.161 57.869 128.505 57.8644 128.722 58.0461C129.001 58.4882 128.973 59.0549 129.317 59.5253C129.626 59.9492 129.725 60.5289 129.897 61.0459C130.055 61.5202 130.192 62.0056 130.336 62.4838C129.953 62.9603 130.531 63.3884 130.389 63.8917C130.268 64.3226 130.38 64.8174 130.371 65.283C130.361 65.7486 130.329 66.2133 130.298 66.8204C130.266 66.8789 130.163 67.0708 130.061 67.2626C130.106 67.4294 130.147 67.59 130.191 67.7523C130.085 67.9425 129.982 68.1418 129.88 68.3337C129.914 68.4446 129.947 68.5509 130.004 68.7437C129.946 68.876 129.858 69.0686 129.735 69.345C129.746 69.4158 129.766 69.5726 129.806 69.8515C129.632 70.1796 129.401 70.6102 129.2 70.9852C129.256 71.1734 129.289 71.2797 129.33 71.4133C127.583 74.6706 125.828 77.9499 124.087 81.1954C123.935 81.2413 123.83 81.2712 123.7 81.3135C123.129 82.3753 122.556 83.4504 121.977 84.5268C121.814 84.5857 121.661 84.642 121.491 84.7051C121.237 85.1767 120.976 85.6674 120.714 86.1536C120.553 86.2096 120.396 86.2642 120.237 86.3173C119.924 86.9017 119.607 87.4919 119.293 88.0792C119.182 88.1134 119.077 88.1433 118.88 88.2022C118.402 88.9249 118.045 89.7951 117.551 90.5814C117.441 90.6156 117.334 90.6485 117.178 90.6957C116.674 91.6374 116.153 92.6114 115.631 93.5854C115.468 93.6593 115.321 93.7234 115.072 93.834C114.415 95.0584 113.713 96.3722 113.036 97.6317C112.851 97.6896 112.742 97.7208 112.613 97.7602C111.306 100.197 109.994 102.651 108.661 105.134C108.687 105.252 108.725 105.411 108.768 105.589C108.147 106.749 107.517 107.926 106.887 109.101C106.93 109.266 106.972 109.424 107.015 109.589C106.28 110.961 105.543 112.336 104.808 113.709C104.839 113.818 104.872 113.924 104.905 114.031C104.913 114.085 104.943 114.148 104.925 114.187C104.616 114.778 104.299 115.364 103.996 115.93C104.038 116.069 104.071 116.175 104.124 116.362C103.819 116.931 103.483 117.557 103.177 118.129C103.233 118.318 103.266 118.424 103.321 118.608C103.065 119.082 102.785 119.608 102.531 120.079C102.587 120.268 102.62 120.374 102.659 120.503C102.249 121.271 101.831 122.05 101.411 122.835C101.452 123.003 101.49 123.162 101.531 123.342C101.383 123.616 101.227 123.912 101.07 124.2C101.113 124.365 101.158 124.525 101.197 124.688C101.04 124.98 100.885 125.273 100.727 125.564C100.761 125.675 100.791 125.779 100.847 125.968C100.647 126.343 100.417 126.77 100.215 127.148C100.271 127.336 100.304 127.443 100.351 127.599C100.215 127.906 100.062 128.25 99.9111 128.592C100.278 129.075 99.463 129.495 99.8491 129.993C99.6944 130.279 99.5394 130.572 99.3831 130.86C99.4238 131.028 99.4619 131.187 99.5052 131.364C99.3554 131.641 99.2004 131.934 99.0441 132.222C99.0893 132.389 99.1303 132.55 99.1726 132.715C99.0147 133.006 98.8597 133.299 98.7066 133.582C98.7503 133.752 98.7884 133.911 98.8336 134.078C98.5714 134.564 98.3104 135.054 98.0547 135.529C98.0927 135.653 98.1256 135.76 98.1728 135.916C97.9853 136.268 97.7783 136.654 97.5729 137.038C97.6042 137.216 97.6319 137.373 97.6788 137.641C97.4962 137.983 97.2664 138.411 97.0659 138.786C97.1222 138.974 97.1551 139.08 97.1915 139.208C97.0417 139.485 96.8884 139.775 96.7304 140.066C96.7711 140.234 96.8092 140.393 96.8541 140.567C96.652 140.945 96.4434 141.335 96.2364 141.722C96.2816 141.888 96.3197 142.047 96.362 142.212C96.0491 142.797 95.7329 143.387 95.42 143.971C95.4541 144.082 95.4854 144.192 95.5183 144.298C95.5235 144.351 95.5537 144.413 95.5326 144.451C94.5902 146.218 93.6449 147.983 92.7126 149.724C92.7559 149.867 92.7887 149.973 92.8359 150.13C92.7284 150.33 92.6046 150.56 92.4856 150.781C92.3627 150.816 92.2564 150.849 92.1137 150.893C91.8137 151.454 91.5008 152.038 91.1879 152.622C91.0247 152.689 90.8738 152.747 90.6908 152.821C90.6014 152.982 90.5016 153.176 90.3973 153.37C90.2345 153.429 90.0807 153.486 89.9132 153.546C89.5516 154.218 89.1847 154.906 88.8181 155.587C88.6569 155.643 88.5002 155.698 88.3389 155.754C88.0767 156.24 87.8157 156.731 87.5535 157.217C87.4426 157.251 87.3334 157.283 87.2225 157.317C86.8932 157.482 86.944 157.901 86.6713 158.11C86.0546 158.476 85.6939 159.194 84.9991 159.459C84.6776 159.583 84.6969 159.9 84.261 160.244C84.2701 160.242 83.997 160.285 83.7304 160.352C83.4712 160.418 83.4271 160.781 83.0906 160.801C82.7661 160.82 82.5207 161.02 82.2737 161.258C82.0968 161.432 81.758 161.435 81.4892 161.52C81.2339 161.6 80.925 161.605 80.8546 161.952C79.5671 162.34 78.2875 162.721 76.9834 163.111C76.9103 163.071 76.8137 163.017 76.6699 162.945C76.2232 163.088 75.7407 163.226 75.2716 163.402C74.8087 163.573 74.2858 163.467 73.8687 163.618C73.4181 163.782 73.0005 163.527 72.5983 163.713C72.138 163.929 71.6577 163.773 71.1889 163.804C70.7275 163.835 70.2596 163.774 69.6509 163.746C69.5953 163.715 69.4005 163.611 69.2057 163.507C69.0435 163.551 68.8828 163.592 68.7161 163.637C68.5258 163.531 68.3294 163.43 68.1375 163.327C67.6795 163.732 67.3275 163.035 66.9062 163.214C66.4617 163.408 66.124 162.726 65.6374 163.134C65.2186 162.909 64.7909 162.679 64.416 162.479C64.2277 162.535 64.1214 162.568 64.0014 162.605C62.3465 161.717 60.6782 160.825 58.9881 159.917C58.9442 159.79 58.8895 159.633 58.8336 159.472C58.3533 159.213 57.8596 158.95 57.3617 158.681C57.3347 158.578 57.3093 158.472 57.2807 158.372C57.0484 158.025 56.6296 157.972 56.3372 157.733C56.3043 157.627 56.2715 157.521 56.2402 157.412C56.0317 157.001 55.3762 157.12 55.2645 156.617C55.1616 156.154 54.4408 156.225 54.4771 155.663C53.8973 155.418 53.6913 154.844 53.3497 154.39C53.1272 154.094 52.855 153.84 52.8051 153.433C52.7569 153.058 52.328 152.893 52.2589 152.479C52.1804 152.007 51.7853 151.684 51.4665 151.293C51.047 149.903 50.6115 148.467 50.1659 146.987C50.1919 146.94 50.2455 146.843 50.2978 146.742C50.0544 146.132 50.143 145.504 50.1314 144.869C50.1215 144.301 49.9471 143.725 50.0297 142.99C50.0557 142.943 50.1601 142.749 50.2628 142.557C50.2188 142.395 50.1778 142.234 50.1355 142.069C50.2398 141.874 50.3441 141.679 50.45 141.482C50.0649 141.03 50.64 140.691 50.5872 140.248C50.5412 139.855 50.6926 139.438 50.8211 138.647C50.865 138.568 51.0935 138.136 51.2969 137.763C51.2406 137.575 51.2077 137.468 51.1709 137.348C51.4299 136.868 51.6892 136.38 51.9531 135.891C51.9108 135.726 51.8681 135.568 51.8258 135.403C53.5615 132.166 55.2974 128.922 57.0363 125.68L57.023 125.676ZM58.4669 156.615C58.8594 156.825 59.2519 157.035 59.6415 157.244C59.6975 157.405 59.7493 157.56 59.7974 157.694C61.681 158.701 63.5454 159.702 65.3863 160.69C65.5664 160.648 65.7254 160.61 65.8646 160.58C66.3133 160.806 66.7088 161.156 67.2485 160.942C67.5761 161.373 68.0997 160.975 68.4578 161.219C68.8786 161.503 69.4599 161.09 69.8278 161.559C69.8434 161.579 69.9276 161.538 69.9815 161.537C70.652 161.488 71.3296 161.516 71.9926 161.604C72.4306 161.664 72.7975 161.182 73.2502 161.491C73.3143 161.534 73.4554 161.459 73.5594 161.444C74.1489 161.362 74.6603 161.041 75.3028 161.049C75.9407 161.058 76.5808 160.774 77.2577 160.61C77.3133 160.641 77.4099 160.695 77.5052 160.744C78.1489 160.55 78.7898 160.354 79.4289 160.162C79.6948 159.765 80.1314 159.648 80.5489 159.592C81.0161 159.53 81.1879 158.986 81.6643 158.99C82.1406 158.994 82.3043 158.396 82.782 158.405C83.1562 158.413 83.2517 157.972 83.5807 157.918C83.8509 157.872 83.8554 157.595 84.0124 157.464C84.367 157.163 84.7587 156.906 85.2554 156.542C85.3367 156.396 85.4917 156.103 85.6451 155.813C85.8063 155.757 85.9614 155.705 86.1227 155.649C86.3313 155.26 86.5415 154.867 86.7453 154.486C86.8653 154.45 86.9716 154.417 87.1598 154.36C87.4663 153.788 87.8003 153.165 88.1068 152.593C88.295 152.536 88.4013 152.504 88.585 152.449C89.3672 150.991 90.1741 149.483 90.9546 148.028C91.14 147.97 91.2476 147.942 91.351 147.908C91.633 147.379 91.9164 146.855 92.1773 146.364C92.1288 146.203 92.096 146.097 92.0582 145.965C92.6792 144.805 93.31 143.627 93.9362 142.451C93.9573 142.413 93.9212 142.347 93.9114 142.295C93.8785 142.189 93.8457 142.083 93.8128 141.977C94.0767 141.487 94.3392 140.994 94.5999 140.511C94.5559 140.348 94.5149 140.188 94.4726 140.023C94.6812 139.633 94.8915 139.24 95.0887 138.871C95.047 138.691 95.0089 138.532 94.9699 138.361C95.1278 138.07 95.2812 137.78 95.4278 137.509C95.3871 137.375 95.3542 137.269 95.2979 137.081C95.4477 136.804 95.6238 136.473 95.7736 136.196C95.7173 136.008 95.6845 135.902 95.6294 135.718C95.8852 135.243 96.1656 134.718 96.4198 134.246C96.3635 134.058 96.3306 133.951 96.2967 133.833C96.5557 133.353 96.815 132.865 97.0789 132.376C97.0366 132.211 96.994 132.053 96.9516 131.888C97.0573 131.698 97.1586 131.501 97.2613 131.309C97.219 131.144 97.1764 130.987 97.1311 130.82C97.289 130.528 97.4441 130.235 97.602 129.944C97.223 129.454 97.9935 129.032 97.6666 128.552C97.8135 128.204 97.9616 127.862 98.0867 127.567C98.0525 127.353 98.0277 127.198 97.9981 127.017C98.1528 126.731 98.3045 126.444 98.4381 126.196C98.3896 126.035 98.3567 125.929 98.3004 125.741C98.5026 125.363 98.7323 124.935 98.9361 124.555C98.8794 124.374 98.8449 124.27 98.8121 124.164C98.9703 123.865 99.1299 123.571 99.2846 123.285C99.2422 123.12 99.1996 122.963 99.1573 122.797C99.4718 122.21 99.7864 121.623 100.094 121.047C100.058 120.927 100.026 120.818 99.9685 120.633C100.329 119.963 100.715 119.24 101.075 118.571C101.019 118.382 100.986 118.276 100.931 118.092C101.131 117.717 101.361 117.29 101.563 116.912C101.507 116.724 101.474 116.617 101.419 116.434C101.779 115.764 102.167 115.038 102.526 114.371C102.468 114.186 102.436 114.077 102.403 113.971C102.798 113.129 103.309 112.34 103.654 111.552C103.588 111.347 103.555 111.241 103.524 111.139C104.472 109.368 105.421 107.597 106.365 105.836C106.321 105.673 106.28 105.513 106.237 105.348C106.762 104.368 107.287 103.388 107.807 102.417C107.77 102.297 107.737 102.191 107.689 102.03C108.479 100.558 109.286 99.0492 110.094 97.5376C110.199 97.5077 110.305 97.4748 110.491 97.4169C110.957 96.5499 111.447 95.6315 111.913 94.7645C112.099 94.7066 112.208 94.6754 112.392 94.6203C113.014 93.4574 113.665 92.2448 114.287 91.0818C114.472 91.0239 114.582 90.9927 114.686 90.9627C115.202 90.1848 115.511 89.2841 116.051 88.5731C116.217 88.5233 116.323 88.4905 116.429 88.4576C116.904 87.576 117.376 86.6898 117.849 85.8111C118.008 85.7581 118.165 85.7034 118.326 85.6474C118.535 85.2578 118.745 84.8653 118.951 84.4816C119.069 84.4477 119.175 84.4148 119.361 84.3569C119.721 83.6876 120.107 82.9641 120.467 82.2948C120.652 82.2369 120.762 82.2056 120.945 82.1506C121.989 80.2027 123.061 78.2021 124.085 76.2892C124.334 76.1786 124.48 76.1145 124.532 76.0898C125.468 74.3425 126.359 72.6817 127.231 71.056C127.184 70.8996 127.151 70.7933 127.095 70.6051C127.297 70.2272 127.527 69.7995 127.727 69.4246C127.671 69.2363 127.638 69.13 127.607 69.0208C127.765 68.7294 127.92 68.4364 128.077 68.145C128.034 67.9828 127.993 67.8222 127.95 67.657C128.056 67.4668 128.157 67.2704 128.196 67.2001C128.211 66.8636 128.194 66.6516 128.233 66.451C128.262 66.2949 128.435 66.142 128.411 66.0061C128.301 65.3285 128.369 64.6467 128.443 63.9905C128.492 63.5356 128.09 63.1706 128.315 62.7368C128.341 62.6899 128.386 62.6304 128.374 62.5895C128.269 62.2133 128.153 61.8427 128.039 61.4691C127.813 60.7236 127.59 59.9752 127.36 59.2235C127.269 59.1732 127.172 59.1195 127.077 59.0705C127.021 58.9092 126.967 58.7525 126.911 58.5913C126.72 58.4856 126.524 58.3843 126.344 58.2881C126.284 58.1206 126.227 57.9669 126.168 57.804C125.877 57.646 125.587 57.4927 125.31 57.3428C125.274 57.2154 125.241 57.1091 125.183 56.9238C124.906 56.774 124.575 56.5978 124.333 56.4675C124.226 56.2201 124.162 56.0735 124.089 55.907C123.606 55.6464 123.121 55.3887 122.67 55.146C122.624 54.9941 122.593 54.8849 122.547 54.7406C121.396 54.1244 120.221 53.4953 119.048 52.8632C119.01 52.8421 118.998 52.7742 118.975 52.7267C118.942 52.6204 118.909 52.5141 118.876 52.4003C118.588 52.244 118.292 52.0873 117.995 51.9262C117.843 51.9646 117.682 52.0056 117.516 52.0508C116.835 51.6843 116.146 51.3174 115.474 50.9557C115.301 50.9977 115.142 51.0358 114.994 51.0758C114.243 50.5249 113.287 51.1235 112.607 50.5817C112.281 50.68 112.013 50.7614 111.894 50.7981C111.34 50.7668 110.904 50.643 110.523 50.742C109.631 50.9702 108.758 50.8456 107.875 50.7805C107.447 50.9104 107.022 51.0344 106.595 51.1688C106.225 51.2846 105.861 51.4083 105.492 51.5287C105.301 52.0389 104.704 51.8304 104.401 52.1485C104.348 52.2451 104.321 52.3758 104.24 52.4382C103.831 52.7547 103.414 53.0514 102.996 53.3555C102.915 53.5019 102.839 53.6514 102.758 53.7978C102.601 53.8525 102.446 53.9042 102.288 53.9618C102.132 54.2503 101.975 54.5462 101.822 54.8288C101.656 54.8861 101.502 54.9424 101.34 55.0013C100.971 55.6852 100.606 56.3707 100.244 57.0429C100.12 57.0809 100.014 57.1138 99.8253 57.1701C99.5189 57.7428 99.1848 58.3652 98.8784 58.9379C98.6931 58.9958 98.5838 59.0271 98.4548 59.0665C97.762 60.3627 97.0565 61.6749 96.3718 62.9565C96.4177 63.1084 96.4505 63.2147 96.4834 63.321C96.2417 63.9909 95.7665 64.5503 95.5664 65.1935C95.6149 65.3544 95.6478 65.4607 95.6859 65.5852C95.3778 66.1608 95.0587 66.7494 94.75 67.34C94.7305 67.3751 94.7695 67.4427 94.7991 67.5894C94.806 67.6047 94.8434 67.7097 94.8798 67.8026C94.5065 68.5028 94.1366 69.1896 93.7733 69.8647C93.817 70.0345 93.855 70.1934 93.9003 70.3602C93.638 70.8464 93.3771 71.3371 93.1214 71.8116C93.1594 71.9361 93.1923 72.0424 93.2457 72.229C93.0452 72.604 92.8154 73.0316 92.6133 73.4095C92.6696 73.5978 92.7025 73.7041 92.7575 73.8878C92.557 74.2627 92.3272 74.6904 92.1251 75.0682C92.1814 75.2565 92.2143 75.3628 92.2472 75.4691C92.0055 76.139 91.5303 76.6984 91.3315 77.3461C91.38 77.5071 91.4128 77.6134 91.448 77.7363C90.8744 78.8039 90.2989 79.882 89.7247 80.9645C89.7052 80.9997 89.7443 81.0673 89.7713 81.2048C89.7807 81.2292 89.8182 81.3342 89.853 81.4301C89.0562 82.9137 88.2688 84.3872 87.4833 85.8502C87.527 86.02 87.5667 86.176 87.5999 86.3093C87.3276 86.8205 87.0637 87.3096 86.8063 87.787C86.6818 87.8251 86.5771 87.855 86.4191 87.9052C86.0477 88.5949 85.6629 89.3156 85.2798 90.0333C85.3153 90.1487 85.3465 90.2579 85.3885 90.3961C83.4329 94.0429 81.4672 97.7147 79.5148 101.356C79.3675 101.4 79.2612 101.433 79.073 101.489C78.2908 102.947 77.4839 104.455 76.7033 105.91C76.518 105.967 76.4104 105.996 76.2251 106.054C75.9693 106.528 75.6873 107.057 75.4315 107.531C75.2478 107.586 75.1402 107.615 75.0355 107.645C74.8773 107.944 74.7193 108.235 74.563 108.523C74.4018 108.579 74.2467 108.631 74.0854 108.687C73.8768 109.077 73.6666 109.469 73.4628 109.85C73.3428 109.887 73.2365 109.92 73.0255 109.983C72.9605 110.1 72.8624 110.29 72.76 110.475C72.6297 110.716 72.501 110.955 72.3902 111.161C72.2293 111.21 72.123 111.243 72.0167 111.276C71.6409 111.511 71.7574 112.143 71.222 112.259C70.7772 112.356 70.847 113.1 70.2074 113.024C70.0394 113.341 69.8604 113.67 69.7102 113.954C69.5282 114.006 69.4205 114.035 69.3159 114.065C69.1576 114.363 68.998 114.658 68.8434 114.943C68.6821 114.999 68.527 115.051 68.3658 115.107C68.1571 115.497 67.9469 115.889 67.7431 116.27C67.6232 116.307 67.5139 116.338 67.3286 116.396C67.0222 116.968 66.6881 117.591 66.3817 118.164C66.1963 118.222 66.0871 118.253 65.9034 118.308C65.7029 118.683 65.4732 119.11 65.271 119.488C65.0828 119.545 64.9765 119.577 64.7928 119.632C64.5923 120.007 64.3625 120.435 64.1604 120.813C63.9722 120.869 63.8659 120.902 63.6822 120.957C63.48 121.335 63.2503 121.763 63.0465 122.143C62.8661 122.193 62.7569 122.224 62.6538 122.251C62.4403 122.649 62.23 123.042 62.023 123.428C61.8618 123.484 61.7067 123.536 61.5438 123.595C61.3859 123.886 61.2309 124.179 61.086 124.447C60.9107 124.515 60.7599 124.573 60.5954 124.634C60.4391 124.923 60.2857 125.213 60.1505 125.463C59.9567 125.543 59.8117 125.605 59.6469 125.674C59.2296 126.453 58.8124 127.232 58.4098 127.985C58.2625 128.03 58.1562 128.063 58.0515 128.093C56.8225 130.389 55.5905 132.684 54.3827 134.943C54.4311 135.104 54.464 135.21 54.5203 135.398C54.2139 135.971 53.8782 136.596 53.5718 137.169C53.6268 137.352 53.6626 137.46 53.6941 137.562C53.4823 137.958 53.272 138.35 53.065 138.737C53.1073 138.902 53.15 139.06 53.1952 139.226C53.0373 139.518 52.8823 139.811 52.7406 140.073C52.7758 140.265 52.8851 140.509 52.8211 140.569C52.4082 140.968 52.6835 141.5 52.5139 141.957C52.3628 142.367 52.2944 142.877 52.4737 143.34C52.1187 143.648 52.67 144.104 52.3017 144.409C52.5155 144.975 52.2464 145.55 52.3207 146.119C52.3843 146.591 52.8081 147.014 52.5188 147.535C52.6968 148.062 52.8719 148.588 53.0659 149.163C53.1202 149.224 53.2584 149.32 53.3216 149.455C53.548 149.936 53.4871 150.55 54.0103 150.89C54.1133 151.491 54.4818 151.944 54.838 152.406C54.9004 152.487 55.0259 152.564 55.027 152.645C55.0261 153.184 55.5695 153.44 55.6685 153.924C56.2044 154.11 56.3148 154.746 56.8046 154.995C56.9688 155.078 57.0589 155.316 57.3351 155.688C57.5358 155.795 57.9634 156.025 58.3384 156.226C58.3963 156.411 58.4246 156.518 58.4575 156.625L58.4669 156.615Z" fill="black"/>
<path d="M96.256 82.1936C96.2215 82.0902 96.1886 81.9839 96.161 81.8958C96.1476 81.8233 96.1144 81.7589 96.1356 81.7208C97.078 79.9544 98.0249 78.1866 98.9621 76.4363C98.9227 76.3073 98.8898 76.201 98.8335 76.0127C99.5098 74.7532 100.212 73.4394 100.889 72.1799C100.831 71.9946 100.802 71.887 100.744 71.7017C101.261 70.7365 101.807 69.7186 102.324 68.7534C102.266 68.5681 102.235 68.4588 102.18 68.2751C102.486 67.7025 102.822 67.0771 103.126 66.5074C103.069 66.322 103.037 66.2128 103.001 66.0928C103.309 65.5172 103.623 64.9299 103.938 64.3426C103.895 64.1774 103.854 64.0168 103.812 63.8517C104.017 63.4679 104.228 63.0754 104.448 62.6653C104.989 62.5868 105.308 63.0891 105.799 63.1627C105.88 63.3955 105.951 63.5994 106.048 63.8718C105.735 64.4562 105.4 65.0815 105.093 65.6542C105.151 65.8395 105.183 65.9488 105.238 66.1325C105.037 66.5074 104.807 66.9351 104.605 67.3129C104.661 67.5012 104.694 67.6075 104.749 67.7912C104.389 68.4605 104.001 69.187 103.643 69.8533C103.701 70.0386 103.732 70.1478 103.769 70.2678C103.301 71.1377 102.832 72.018 102.358 72.8997C102.4 73.0648 102.441 73.2254 102.482 73.3935C101.962 74.3646 101.435 75.3473 100.902 76.3418C100.937 76.4377 100.976 76.5398 100.981 76.558C101.013 76.7017 101.049 76.7677 101.032 76.8044C100.3 78.1784 99.5633 79.5537 98.8331 80.9172C98.8711 81.0418 98.9011 81.1464 98.934 81.2528C98.9392 81.3054 98.9649 81.3695 98.9438 81.4075C98.055 83.0774 97.162 84.7411 96.282 86.3815C96.3266 86.5287 96.3595 86.635 96.4158 86.8233C95.7931 87.9862 95.1429 89.1989 94.5203 90.3618C94.5782 90.5471 94.6065 90.6547 94.6644 90.84C93.7779 92.4921 92.8651 94.1984 91.9786 95.8504C92.0366 96.0357 92.0665 96.1404 92.1059 96.2695C89.3791 101.36 86.6459 106.463 83.8931 111.601C83.7773 111.644 83.6236 111.7 83.4529 111.766C81.6211 115.183 79.7824 118.619 77.9392 122.057C77.7796 122.11 77.6229 122.164 77.4633 122.217C76.2541 124.471 75.0462 126.73 73.8305 128.996C73.7275 129.023 73.6211 129.055 73.5483 129.076C73.4674 129.112 73.3906 129.119 73.3711 129.154C72.2633 131.212 71.1598 133.275 70.0598 135.326C69.5974 135.448 69.3281 135.092 68.998 134.928C68.6605 134.763 68.2774 134.646 68.0019 134.294C68.3802 133.585 68.7695 132.863 69.1591 132.134C69.2563 132.104 69.3626 132.071 69.5463 132.016C70.749 129.774 71.978 127.477 73.1807 125.235C73.3644 125.18 73.4707 125.147 73.6589 125.091C74.9123 122.75 76.195 120.357 77.4483 118.017C77.632 117.962 77.7384 117.929 77.8674 117.889C82.4881 109.263 87.1198 100.623 91.7664 91.9497C91.7371 91.83 91.702 91.6727 91.6603 91.4925C92.4392 90.0412 93.225 88.5706 94.0153 87.0988C93.973 86.9336 93.9303 86.7759 93.8864 86.6137C94.6734 85.1477 95.4624 83.6713 96.2544 82.1965L96.256 82.1936Z" fill="black"/>
<path d="M113.776 76.4016C113.881 76.3717 113.987 76.3388 114.083 76.3115C114.144 76.2841 114.218 76.2753 114.237 76.2402C114.924 74.9677 115.606 73.692 116.282 72.4325C116.414 72.3947 116.52 72.3618 116.706 72.3039C117.012 71.7312 117.346 71.1088 117.658 70.5273C118.048 70.4033 118.25 70.6533 118.48 70.7771C118.71 70.9009 119.02 70.9353 119.151 71.2646C118.877 71.7788 118.594 72.303 118.326 72.8054C118.184 72.8487 118.077 72.8816 117.889 72.9379C116.897 74.7876 115.88 76.6888 114.887 78.5385C114.702 78.5964 114.594 78.6247 114.473 78.6644C113.689 80.1246 112.901 81.5981 112.113 83.067C111.951 83.123 111.795 83.1777 111.634 83.2336C111.112 84.2076 110.585 85.1904 110.056 86.179C109.953 86.206 109.845 86.2343 109.745 86.263C108.704 87.8558 104.036 96.4909 98.0765 107.847C98.1094 107.953 98.1422 108.059 98.1735 108.169C98.1787 108.221 98.2044 108.285 98.1833 108.323C97.2409 110.09 96.2956 111.855 95.3649 113.593C95.4095 113.741 95.4423 113.847 95.4882 113.999C94.1926 116.415 92.882 118.866 91.5685 121.314C91.6014 121.49 91.6291 121.647 91.676 121.914C91.0729 123.042 90.421 124.257 89.8 125.417C89.8579 125.603 89.8892 125.712 89.9273 125.836C89.357 126.898 88.7814 127.976 88.203 129.053C88.2437 129.221 88.2818 129.38 88.3238 129.552C87.9114 130.323 87.4909 131.108 87.0737 131.887C87.116 132.052 87.157 132.213 87.1993 132.378C86.7804 133.16 86.3599 133.945 85.9427 134.724C85.9769 134.835 86.0081 134.944 86.066 135.13C85.8448 135.742 85.4063 136.318 85.1425 136.979C85.1754 137.086 85.2083 137.192 85.2525 137.347C85.0114 137.795 84.7537 138.28 84.4915 138.766C84.5227 138.944 84.5504 139.101 84.5973 139.368C84.2551 140.006 83.8688 140.729 83.5087 141.398C83.565 141.587 83.5979 141.693 83.6425 141.84C83.4485 142.203 83.2428 142.595 83.0299 142.978C83.0088 143.016 82.9408 143.028 82.8518 143.078C82.3493 142.811 81.8251 142.527 81.2436 142.216C81.2994 141.723 81.7266 141.374 81.8529 140.843C81.8285 140.749 81.7875 140.588 81.7451 140.423C82.1117 139.742 82.4786 139.054 82.8468 138.37C82.8126 138.259 82.7813 138.15 82.726 137.973C82.8923 137.453 83.2817 136.972 83.4903 136.411C83.4574 136.304 83.4245 136.198 83.3803 136.043C83.6737 135.494 83.985 134.912 84.298 134.328C84.2667 134.15 84.239 133.993 84.1921 133.726C84.585 132.99 85.025 132.17 85.4374 131.4C85.3811 131.212 85.3482 131.105 85.3117 130.978C85.7777 130.111 86.2473 129.23 86.7198 128.352C86.6791 128.184 86.641 128.025 86.599 127.852C87.1173 126.884 87.6421 125.904 88.1653 124.927C88.1201 124.76 88.082 124.601 88.0397 124.436C88.7747 123.064 89.5098 121.692 90.2449 120.319C90.2107 120.208 90.1778 120.102 90.1466 119.993C90.1414 119.94 90.1111 119.877 90.1293 119.838C91.3343 117.578 92.5435 115.324 93.7413 113.09C93.698 112.947 93.668 112.843 93.6208 112.686C94.7046 110.665 95.8033 108.61 96.9065 106.554C96.8753 106.376 96.8505 106.221 96.8118 106.008C99.9623 100.126 103.139 94.1969 106.301 88.2945C106.448 88.25 106.554 88.2171 106.743 88.1608C107.469 86.8031 108.226 85.3927 108.953 84.035C109.138 83.977 109.247 83.9458 109.365 83.9119C109.885 82.9409 110.41 81.9611 110.935 80.9812C111.096 80.9252 111.251 80.8735 111.413 80.8175C112.201 79.3486 112.989 77.8751 113.781 76.4003L113.776 76.4016Z" fill="black"/>
</g>
</g>
<g clip-path="url(#clip1_215_13)">
<path d="M20.4108 50.0161L25.6951 46.2968C26.7387 45.5637 28.1264 45.5885 29.1429 46.3461L35.2022 50.8802C37.2006 52.3752 39.9415 50.4459 39.2029 48.0663L36.9706 40.8368C36.5941 39.6197 37.0399 38.3046 38.0835 37.5716L43.3677 33.8523C45.6949 32.2138 44.5655 28.5623 41.718 28.517L35.2614 28.4206C33.9852 28.4032 32.8753 27.5677 32.4989 26.3505L30.5864 20.1776C29.7448 17.4595 25.9212 17.3987 25.003 20.0943L23.228 25.3012C22.6376 27.0413 20.9828 28.2045 19.1423 28.1811L12.5605 28.0809C10.0577 28.0405 8.96803 31.2266 10.97 32.7353L17.0035 37.2542C18.0199 38.0118 18.4286 39.3521 18.0176 40.5484L15.9315 46.6625C15.0133 49.358 18.075 51.6496 20.4021 50.0111L20.4108 50.0161Z" fill="#FF3B27"/>
</g>
<g clip-path="url(#clip2_215_13)">
<path d="M78.6982 36.7646L83.024 31.9641C83.8786 31.0175 85.2372 30.7333 86.3966 31.2461L93.3119 34.3205C95.5925 35.3341 97.8362 32.844 96.5873 30.688L92.8045 24.1353C92.167 23.0322 92.3094 21.651 93.164 20.7044L97.4898 15.9039C99.3948 13.7893 97.4823 10.48 94.6959 11.0685L88.3793 12.4092C87.1311 12.6758 85.8633 12.1078 85.2258 11.0047L81.9896 5.41097C80.565 2.94785 76.8235 3.73817 76.5272 6.57034L75.9535 12.0415C75.7645 13.8693 74.4096 15.3711 72.6098 15.7572L66.1703 17.122C63.7211 17.6386 63.3666 20.9873 65.6538 22.0134L72.5405 25.0788C73.6999 25.5916 74.3961 26.8076 74.2612 28.0653L73.5858 34.49C73.2894 37.3222 76.7837 38.8762 78.6887 36.7616L78.6982 36.7646Z" fill="#FF3B27"/>
</g>
<g clip-path="url(#clip3_215_13)">
<path d="M29.9348 103.236L30.1392 96.777C30.1807 95.5023 31.0347 94.4082 32.2512 94.0513L39.5171 91.9347C41.9132 91.2363 42.019 87.8862 39.6734 87.046L32.5541 84.484C31.3551 84.0532 30.5721 82.9065 30.6136 81.6318L30.818 75.1731C30.9076 72.3283 27.3106 71.0359 25.5626 73.2842L21.6042 78.386C20.8232 79.3954 19.4883 79.7801 18.2893 79.3493L12.2066 77.1668C9.52846 76.2054 7.18141 79.2245 8.78354 81.5787L11.8776 86.1272C12.9133 87.6451 12.8481 89.6668 11.723 91.1235L7.68631 96.3231C6.14951 98.2989 8.04064 101.085 10.4498 100.392L17.688 98.2869C18.9045 97.9301 20.2212 98.4092 20.9302 99.4568L24.5621 104.799C26.1643 107.153 29.836 106.084 29.9256 103.24L29.9348 103.236Z" fill="#FF3B27"/>
</g>
<defs>
<clipPath id="clip0_215_13">
<rect width="71.6419" height="136.876" fill="white" transform="translate(93.4368 29) rotate(29.0372)"/>
</clipPath>
<clipPath id="clip1_215_13">
<rect width="33.39" height="35.24" fill="white" transform="translate(50.2834 30.8103) rotate(120.358)"/>
</clipPath>
<clipPath id="clip2_215_13">
<rect width="33.39" height="35.24" fill="white" transform="translate(103.557 11.4014) rotate(107.52)"/>
</clipPath>
<clipPath id="clip3_215_13">
<rect width="33.39" height="35.24" fill="white" transform="translate(32.5443 67.8179) rotate(67.3096)"/>
</clipPath>
</defs>
</svg>
