<svg width="190" height="252" viewBox="0 0 190 252" fill="none" xmlns="http://www.w3.org/2000/svg">
<g clip-path="url(#clip0_215_15)">
<g style="mix-blend-mode:multiply">
<path d="M57.1933 121.206C57.3781 121.134 57.5613 121.067 57.7683 120.986C57.996 121.079 58.2405 121.265 58.4776 121.257C58.9046 121.242 59.3441 121.018 59.7534 121.07C60.1453 121.119 60.5441 120.86 60.8392 121.012C61.2967 121.249 61.7255 120.983 62.128 121.097C62.5171 121.209 62.8708 120.757 63.2315 121.097C63.5883 121.435 63.9572 121.057 64.332 121.082C65.009 121.128 65.7106 121.047 66.3424 120.699C66.62 120.546 66.8931 120.46 67.2619 120.555C67.4891 120.615 67.8549 120.347 68.0871 120.148C68.7432 119.594 69.3157 118.942 70.0538 118.49C70.2018 117.936 70.7592 117.984 71.2425 117.685C71.3054 117.486 71.4966 117.174 71.4639 116.895C71.3853 116.211 71.1851 115.556 71.5097 114.872C71.6065 114.668 71.2371 114.439 71.3936 114.145C71.578 113.794 71.1048 113.427 71.4124 113.043C71.7286 112.648 71.1624 112.184 71.46 111.768C71.1681 111.383 71.4801 111.033 71.5095 110.669C71.5452 110.188 71.4085 109.692 71.3307 109.096L71.5824 108.478C71.5089 108.288 71.4401 108.108 71.3706 107.919L71.6255 107.294C71.5508 106.713 71.4849 106.222 71.4244 105.753C71.5548 105.365 71.6771 104.998 71.801 104.626C71.3101 104.1 72.2178 103.502 71.6993 102.965L72.1402 101.883C72.0722 101.69 72.005 101.507 71.9363 101.305L72.5215 99.8683C72.4496 99.6739 72.3808 99.4944 72.3112 99.3055L72.9043 97.8497L72.7115 97.3903C72.8313 97.04 72.9761 96.6172 73.1232 96.2C73.072 96.0782 73.0209 95.9565 72.9465 95.7793L76.972 85.8991C77.1512 85.729 77.4462 85.5556 77.5732 85.2999C77.7322 84.9885 77.8906 84.7456 78.2598 84.6712L78.7023 83.5852C78.8856 83.4948 79.0619 83.4106 79.2508 83.3178L79.5377 82.6135C79.7234 82.5286 79.8997 82.4444 80.0759 82.3602L80.3116 81.7818C80.52 81.596 80.7765 81.4161 80.9703 81.1877C81.2117 80.9098 81.6878 80.8652 81.7337 80.393C81.7696 79.9901 82.3196 80.0674 82.3942 79.772C82.5506 79.1521 83.1014 78.8902 83.497 78.5376C83.8536 78.2241 84.1079 77.6899 84.7107 77.6602C84.8509 77.6532 84.9824 77.4315 85.1235 77.31C85.4524 77.0311 85.7539 76.7181 86.1115 76.4922C86.4438 76.2835 86.8422 76.1934 87.1916 76.0101C87.3434 75.9297 87.4456 75.7465 87.6686 75.5024C88.1924 75.2846 88.8654 75.0037 89.533 74.7251C89.902 73.9991 90.7452 74.0536 91.3193 73.6223C91.3601 73.5334 91.4161 73.4185 91.4768 73.2919C92.3229 72.9347 93.173 72.579 93.8532 72.2919C94.4794 71.6202 95.0813 71.3791 96.0226 71.3727C96.8537 71.0185 97.8816 70.5748 98.9008 70.1412L99.2856 70.298C100.08 69.8419 101.023 69.9782 101.845 69.6248C102.433 69.924 102.886 69.0029 103.488 69.4362C104.7 68.8105 106.042 69.0224 107.326 68.8941C107.666 68.8582 108.06 68.5418 108.418 68.8759C108.865 68.5211 109.316 68.9891 109.686 68.9012C110.11 68.8035 110.423 68.8439 110.796 68.9865C111.092 69.1025 111.374 68.7129 111.712 68.9286C111.93 69.0679 112.196 69.1348 112.479 69.25C112.631 69.202 112.811 69.1423 113.037 69.0694L114.078 69.4934C114.271 69.4251 114.452 69.3615 114.656 69.2885L115.355 69.5733C115.546 69.4994 115.729 69.4318 115.917 69.3619L117.74 70.1043C117.867 70.0506 117.988 69.9993 118.11 69.9479C118.235 69.9573 118.365 69.9414 118.475 69.9862C120.367 70.748 122.254 71.5215 124.115 72.2799L124.308 72.7392L126.802 73.7552C126.909 73.9412 127 74.1018 127.16 74.3828L130.046 75.5587C130.135 75.769 130.186 75.8908 130.248 76.0402L132.047 76.773C132.137 76.9565 132.221 77.1329 132.313 77.322L133.751 77.9076C133.835 78.0934 133.919 78.2698 134.005 78.4517L135.081 78.8901C135.17 79.0775 135.253 79.2539 135.334 79.4153L136.336 79.8233C136.399 79.9364 136.447 80.1575 136.583 80.2498C136.905 80.4591 137.273 80.5906 137.609 80.7778C137.887 80.9277 137.841 81.3542 138.221 81.4676C138.637 81.5914 139.028 81.7325 139.272 82.2355C139.432 82.5622 140.128 82.5291 140.192 83.1013C140.761 83.1677 141.016 83.6432 141.346 84.0119C141.633 84.3306 141.89 84.6783 142.197 84.9688C142.556 85.3029 142.802 85.7334 143.175 86.0645C143.397 86.2606 143.447 86.6434 143.622 86.9118C143.751 87.1113 144.075 87.2386 144.113 87.4376C144.225 88.0613 144.834 88.3188 145.041 88.8571C145.254 89.4121 145.495 89.9554 145.726 90.5033L146.114 90.6617C146.343 91.5165 146.844 92.2758 147.008 93.2004C147.162 94.0799 147.612 94.9099 147.933 95.7613C147.784 96.3749 148.084 96.8869 148.327 97.4034C148.551 97.8756 148.377 98.392 148.608 98.8808C148.844 99.3807 148.666 100.019 149.018 100.516C148.979 101.5 149.148 102.468 149.209 103.443C149.236 103.871 149.232 104.296 149.268 104.724C149.313 105.21 149.515 105.77 149.33 106.167C149.108 106.645 149.461 107.037 149.289 107.471C149.037 108.112 149.451 108.895 148.844 109.428C148.928 109.673 148.991 109.855 149.063 110.059L148.778 110.759C148.852 110.95 148.92 111.129 148.99 111.318L148.395 112.778C148.446 112.9 148.497 113.022 148.595 113.254C148.476 113.591 148.325 114.007 148.176 114.428C148.228 114.549 148.279 114.671 148.36 114.865C148.234 115.231 148.085 115.652 147.946 116.05C148.009 116.199 148.06 116.321 148.127 116.481L143.913 126.826C143.741 126.898 143.62 126.95 143.47 127.013L142.289 129.913C142.105 130.003 141.933 130.089 141.737 130.188L141.004 131.986C140.874 132.048 140.76 132.102 140.639 132.163C140.558 132.249 140.442 132.321 140.395 132.426C140.204 132.848 140.043 133.278 139.87 133.703C139.743 133.757 139.621 133.808 139.499 133.86C139.445 133.892 139.363 133.914 139.343 133.961C139.087 134.568 138.844 135.175 138.607 135.758C138.447 135.825 138.325 135.877 138.115 135.966L137.517 137.433L137.041 137.634C136.79 138.137 136.533 138.657 136.277 139.172C135.661 139.201 135.814 139.905 135.432 140.135C135.317 140.203 135.192 140.239 135.059 140.295L134.473 141.735C134.686 142.515 134.541 143.387 135.229 144.025C135.811 144.565 136.295 145.208 136.795 145.824C137.154 146.259 137.968 146.091 138.111 146.92L140.334 147.826C140.422 148.036 140.474 148.158 140.532 148.296L142.346 149.035C142.43 149.221 142.51 149.396 142.597 149.578C143.445 149.924 144.301 150.272 145.153 150.62C145.204 150.741 145.255 150.863 145.306 150.985C145.339 151.039 145.359 151.126 145.402 151.143C146.74 151.693 148.079 152.238 149.398 152.776C149.463 152.931 149.514 153.053 149.603 153.263L151.095 153.871C151.217 154.82 152.481 154.436 152.592 155.334L153.664 155.771C153.754 155.954 153.839 156.127 153.938 156.323L154.641 156.609C154.725 156.795 154.805 156.97 154.891 157.152L155.806 157.525C156.292 158.062 156.63 158.503 157.041 158.867C157.516 159.295 158.167 159.867 158.346 160.394C158.486 160.805 158.966 160.84 159.055 161.261C159.123 161.578 159.301 161.871 159.423 162.178C159.573 162.541 159.717 162.907 159.861 163.273C159.542 163.832 160.123 164.225 160.13 164.737C160.136 165.285 160.056 165.84 160.256 166.394C160.323 166.577 160.085 166.87 159.992 167.098C160.069 167.304 160.137 167.483 160.211 167.674L159.918 168.394C159.987 168.583 160.06 168.764 160.128 168.957L159.389 170.77C159.447 170.909 159.498 171.031 159.575 171.213L158.494 173.865C158.367 173.919 158.245 173.97 158.035 174.059L157.772 174.704C157.647 175.011 157.566 175.345 157.385 175.611C157.221 175.856 156.92 176.009 156.725 176.241C156.564 176.433 156.508 176.818 156.337 176.868C155.97 176.971 155.945 177.392 155.646 177.485C155.198 177.629 155.097 178.202 154.607 178.269C154.458 178.827 153.818 178.7 153.544 179.015C153.278 179.319 153.011 179.536 152.647 179.677C152.214 179.84 151.795 180.036 151.367 180.211C150.698 180.48 150.043 180.896 149.358 180.971C148.511 181.061 147.654 181.097 146.802 181.209C146.58 181.238 146.321 181.031 146.093 180.939C145.888 181.016 145.708 181.085 145.518 181.159L144.426 180.714L143.956 180.912C143.616 180.792 143.199 180.645 142.779 180.497C142.657 180.548 142.505 180.674 142.419 180.639C141.65 180.335 140.756 180.742 140.043 180.176C139.848 180.239 139.665 180.297 139.438 180.37L138.397 179.946C138.205 180.014 138.023 180.078 137.819 180.151L136.751 179.716C136.561 179.789 136.378 179.857 136.193 179.928L135.113 179.489C134.919 179.561 134.739 179.63 134.558 179.694C134.068 179.164 133.449 179.572 132.9 179.481C132.01 179.339 131.081 179.259 130.162 179.435C129.928 179.482 129.643 179.371 129.437 179.461C128.962 179.671 128.439 179.651 127.98 179.789C126.976 180.096 126.019 180.569 125.052 180.996C124.716 181.148 124.601 181.587 124.174 181.68C123.802 181.762 123.452 181.968 123.142 182.099L122.871 182.764C123.387 184.016 123.241 185.397 123.4 186.737C123.458 187.224 123.5 187.727 123.535 188.205C123.572 188.665 123.33 189.158 123.469 189.669C123.535 189.902 123.512 190.159 123.538 190.546L123.153 191.49C123.227 191.681 123.294 191.864 123.363 192.053L123.07 192.773C123.124 192.9 123.175 193.022 123.226 193.144C123.273 193.558 122.996 193.876 122.867 194.328C122.896 194.436 122.941 194.62 123.024 194.943L122.149 197.091C122.237 197.302 122.288 197.423 122.349 197.567L118.878 206.086C118.701 206.161 118.579 206.212 118.435 206.273L117.7 208.079C117.516 208.169 117.34 208.253 117.153 208.342L116.713 209.42C116.59 209.476 116.471 209.533 116.331 209.595C115.969 209.888 115.955 210.382 115.716 210.767C115.153 210.835 115.097 211.354 114.872 211.726C114.287 211.781 114.371 212.494 114.011 212.66C113.583 212.857 113.556 213.282 113.298 213.511C112.959 213.814 112.594 214.046 112.489 214.531C112.319 214.608 112.143 214.693 111.96 214.783L111.668 215.499C111.486 215.586 111.312 215.666 111.137 215.746L110.913 216.297C110.167 217.026 109.238 217.565 108.515 218.665C108.444 218.682 108.127 218.764 108 218.794C107.42 219.375 106.893 219.724 106.486 220.16C106.062 220.616 105.568 220.864 105.028 221.02C104.607 221.142 104.569 221.618 104.157 221.73C103.797 221.826 103.484 221.988 103.241 222.37C103.063 222.651 102.572 222.721 102.24 222.917C102.089 223.007 101.989 223.264 101.844 223.283C101.211 223.365 100.973 224.015 100.421 224.213C100.058 224.34 99.5772 224.452 99.3965 224.727C99.1409 225.118 98.7626 225.147 98.4422 225.338C98.1258 225.53 97.6401 225.498 97.553 226.003C96.8269 226.313 96.1202 226.677 95.3702 226.922C94.7094 227.139 94.168 227.625 93.3649 227.573C92.8335 227.54 92.2722 227.94 91.8631 228.09C91.5417 228.092 91.3404 228.046 91.1816 228.11C90.7638 228.27 90.3194 228.08 89.8861 228.312C89.5224 228.508 89.0055 228.641 88.6321 228.535C88.1015 228.388 87.763 228.69 87.3455 228.805C87.284 228.821 87.2018 228.865 87.1657 228.841C86.7415 228.568 86.3029 229.105 85.8828 228.81C85.5515 229.106 85.1231 228.752 84.7915 228.971C84.3911 229.234 83.9489 229.173 83.5106 229.215C82.9006 229.274 82.2905 229.333 81.6831 229.351C81.0773 229.366 80.4868 229.557 79.8417 229.33C79.4292 229.185 78.8785 229.424 78.2966 229.504L77.6722 229.249C77.4835 229.319 77.3003 229.387 77.1099 229.461L76.03 229.021C75.8973 229.077 75.7756 229.128 75.5654 229.217L74.1007 228.62C73.8905 228.709 73.7689 228.76 73.5532 228.851L72.0884 228.255C71.8783 228.343 71.7566 228.395 71.6183 228.453L61.2824 224.242C61.208 224.065 61.1569 223.943 61.0965 223.799L58.9248 222.914C58.8347 222.731 58.7548 222.556 58.6664 222.369L57.2212 221.78C57.1351 221.598 57.0552 221.423 56.9667 221.236L56.2677 220.951C56.173 220.756 56.0876 220.584 56.0091 220.428C55.6832 220.295 55.3769 220.17 55.0705 220.046C54.9948 219.951 54.9025 219.862 54.8449 219.756C54.4093 218.983 53.5302 218.656 53.0454 217.936C52.5052 217.913 52.3908 217.385 52.0722 217.099C51.7028 216.77 51.4243 216.385 50.9328 216.153C50.5914 215.991 50.4407 215.462 50.1571 215.135C49.8399 214.767 49.3629 214.499 49.1563 214.085C48.9497 213.671 48.3913 213.558 48.3784 213.039C47.6297 212.876 47.9239 211.817 47.1878 211.645C47.005 211.093 46.7115 210.611 46.2858 210.218C46.2865 209.553 45.4834 209.4 45.3782 208.793C45.2866 208.265 44.668 208.086 44.5434 207.549C44.4295 207.053 44.0816 206.682 43.7544 206.282C43.4335 205.89 43.3185 205.329 43.114 204.842C42.9095 204.355 42.705 203.868 42.5005 203.381C42.296 202.894 42.0915 202.407 41.887 201.92C41.6825 201.433 41.5072 200.93 41.2624 200.463C41.0976 200.149 41.2227 199.842 41.1736 199.546C41.1246 199.228 40.9368 198.936 40.809 198.632C41.1947 198.224 40.482 197.76 40.8771 197.352C40.7872 196.921 40.4335 196.598 40.5207 196.069C40.5957 195.604 40.253 195.051 40.3765 194.625C40.5138 194.153 40.0622 193.744 40.3865 193.33C40.0717 192.945 40.4163 192.448 40.171 192.05C40.4549 191.004 40.2243 189.975 40.1032 188.934C40.0572 188.53 40.51 188.104 40.1485 187.654C40.4251 187.189 39.9986 186.685 40.2794 186.175C40.4717 185.827 40.1136 185.346 40.3759 184.893C40.5019 184.674 40.3187 184.292 40.361 183.997C40.4057 183.685 40.7211 183.304 40.6233 183.095C40.3433 182.49 40.7698 182.095 40.9011 181.57C40.8541 181.427 40.7924 181.241 40.7207 181.024L41.1503 179.969C41.0823 179.777 41.0135 179.597 40.9416 179.403L41.8394 177.199C41.7874 177.091 41.7252 176.974 41.6817 176.878C41.6891 176.725 41.6617 176.59 41.705 176.484C42.768 173.852 43.8428 171.225 44.9073 168.613C45.0511 168.552 45.1728 168.501 45.3497 168.426C45.7916 167.757 45.941 166.896 46.3731 166.173C46.4947 166.121 46.6164 166.07 46.7878 165.998L47.5092 164.227C47.6935 164.123 47.8595 164.03 48.0786 163.908L48.497 162.881C48.682 162.787 48.8504 162.7 49.0535 162.594L49.3357 161.902C49.5214 161.817 49.6937 161.731 49.8794 161.646L50.3203 160.564C50.5004 160.481 50.6767 160.397 50.8387 160.326L51.1384 159.59C51.0315 159.335 50.9293 159.092 50.8224 158.837L50.4061 158.667C50.2289 158.215 50.0378 157.728 49.8444 157.237C49.2253 157.003 49.2555 156.299 48.8717 155.881C48.3347 155.3 47.7383 154.764 47.3059 154.083C46.355 153.562 45.7815 152.677 45.1367 151.855C44.9915 151.672 44.6815 151.623 44.4169 151.497C44.3486 151.35 44.2648 151.174 44.1748 150.99L43.4404 150.691C43.3994 150.578 43.3555 150.45 43.3192 150.348C42.9982 149.956 42.4973 149.949 42.1249 149.705C42.0737 149.584 42.0226 149.462 41.9529 149.296C41.5795 148.965 41.0452 148.894 40.5812 148.673C40.1707 148.478 39.7385 148.325 39.3537 148.168C39.2816 147.997 39.2305 147.875 39.1585 147.703L36.6569 146.684C36.5535 146.5 36.4609 146.333 36.3396 146.114C35.9887 145.953 35.5883 145.767 35.2389 145.602C35.1576 145.408 35.1065 145.286 35.0484 145.148L33.9881 144.716C33.9189 144.582 33.8836 144.444 33.7992 144.359C33.377 143.912 32.9484 143.48 32.6031 142.968C32.5048 142.827 32.3013 142.753 32.1366 142.663C31.6878 142.416 31.4287 141.962 31.1636 141.578C30.9156 141.22 30.6384 140.878 30.4133 140.52C30.1453 140.099 29.9089 139.668 29.5785 139.276C29.3027 138.953 29.2303 138.501 28.8347 138.203C28.562 137.995 28.342 137.479 28.3869 137.144C28.4749 136.501 28.1143 136.037 27.974 135.494C27.7762 134.72 27.7442 133.9 27.8103 133.119C27.8422 132.738 27.7825 132.378 27.8142 132.02C27.8507 131.649 28.0808 131.298 28.2026 130.999C28.1166 130.794 28.0655 130.672 28.0004 130.517L30.4869 124.415C31.4579 123.549 32.3663 122.735 33.3888 121.821C34.2183 121.471 35.1986 121.077 36.1626 120.643C36.6336 120.432 37.1323 120.41 37.6167 120.3C38.105 120.191 38.5786 120.063 39.0839 120.003C39.4457 119.958 39.8508 120.155 40.1828 119.868C40.5149 119.581 40.9106 119.756 41.278 119.709C42.1902 119.594 43.1081 119.555 44.0184 119.467C44.1997 119.449 44.4158 119.413 44.5626 119.492C45.0922 119.776 45.7319 119.206 46.2189 119.731C46.3982 119.661 46.5814 119.594 46.7702 119.524L47.4967 119.82C47.6144 119.767 47.7361 119.716 47.9383 119.624L49.0458 120.075C49.2559 119.986 49.3776 119.935 49.5656 119.855L50.5866 120.271C50.7934 120.213 50.9725 120.167 51.2914 120.081L52.709 120.659C52.9192 120.57 53.0408 120.519 53.1957 120.453L54.256 120.885C54.4526 120.819 54.6342 120.755 54.8418 120.684L55.9061 121.117C56.0964 121.043 56.2796 120.976 56.4645 120.904L57.1831 121.197L57.1933 121.206ZM116.315 204.138L119.154 197.17C119.085 196.981 119.016 196.801 118.942 196.611L119.824 194.447C119.753 194.239 119.691 194.053 119.637 193.893C119.772 193.563 119.983 193.259 119.999 192.949C120.024 192.518 119.801 192.065 120.117 191.671C120.489 191.208 119.889 190.669 120.277 190.199C120.549 189.869 119.981 189.464 120.304 189.109C120.636 188.744 120.298 188.372 120.295 188.009C120.292 186.971 120.16 185.935 120.073 184.9C119.651 184.42 119.966 183.769 119.695 183.255C120.119 182.652 119.251 182.22 119.482 181.598C119.568 181.363 119.292 181.007 119.227 180.696C119.164 180.4 119.127 180.087 119.146 179.782C119.176 179.258 118.934 178.797 118.864 178.314C118.788 177.783 118.751 177.222 118.736 176.675C118.714 176.065 118.596 175.457 118.597 174.847C118.599 174.325 118.379 173.864 118.312 173.377C118.235 172.846 118.232 172.281 118.178 171.74C118.08 170.764 118.151 169.77 117.892 168.811C118.213 168.451 117.742 168.099 117.889 167.704C117.987 167.442 117.763 167.047 117.882 166.812C118.084 166.407 117.815 166.055 117.893 165.706C117.975 165.335 118.17 164.993 118.281 164.721C118.181 164.483 118.13 164.361 118.039 164.146L118.637 162.678C118.549 162.468 118.498 162.346 118.442 162.222L119.188 160.393C119.117 160.208 119.046 160.023 118.986 159.865L123.019 149.966C123.216 149.867 123.388 149.781 123.573 149.686L123.996 148.648C124.208 148.532 124.378 148.441 124.544 148.348C124.676 147.452 125.552 147.065 125.889 146.317C125.926 146.227 126.12 146.21 126.242 146.158C126.376 145.874 126.509 145.593 126.604 145.393C126.84 145.296 126.962 145.245 127.082 145.198L127.379 144.47C127.56 144.383 127.739 144.305 127.91 144.223C128.016 143.738 128.366 143.496 128.719 143.204C128.982 142.985 128.988 142.542 129.428 142.35C129.796 142.188 129.694 141.463 130.285 141.415C130.524 141.053 130.563 140.519 131.141 140.451L131.436 139.727C131.621 139.642 131.796 139.562 131.978 139.475L132.418 138.393C132.604 138.308 132.78 138.224 132.962 138.138L133.244 137.445C133.446 137.344 133.616 137.252 133.801 137.158L134.219 136.131C134.438 136.009 134.604 135.916 134.789 135.813L135.51 134.042C135.682 133.969 135.803 133.918 136.013 133.829L136.611 132.362L137.087 132.161C137.329 131.567 137.577 130.957 137.83 130.349C137.849 130.301 137.937 130.287 138.095 130.204C138.111 130.197 138.234 130.155 138.351 130.116L139.098 128.282C139.285 128.193 139.461 128.109 139.643 128.023L140.828 125.115C140.971 125.054 141.093 125.003 141.27 124.928L144.891 116.039C144.833 115.901 144.782 115.779 144.694 115.569L145.12 114.522C145.037 114.199 144.991 114.02 144.963 113.908C145.095 113.461 145.367 113.141 145.324 112.729C145.273 112.607 145.222 112.485 145.171 112.364C145.34 111.813 145.652 111.307 145.751 110.861C145.645 110.593 145.6 110.469 145.55 110.343L145.989 109.265C145.919 109.067 145.85 108.887 145.789 108.711C146.23 108.079 145.738 107.309 146.13 106.684C145.722 106.234 146.292 105.824 146.194 105.403C145.853 103.957 146.227 102.411 145.574 101.012C145.793 100.532 145.442 100.156 145.355 99.7299C145.266 99.3082 145.376 98.8577 145.116 98.4492C144.873 98.07 145.167 97.5842 144.889 97.1637C144.64 96.7869 144.497 96.3293 144.349 95.8931C144.291 95.7318 144.352 95.5271 144.367 95.2211C144.188 94.795 143.956 94.251 143.726 93.703C143.47 93.0942 143.176 92.5017 142.97 91.8719C142.784 91.3053 142.358 90.925 142.064 90.443C141.827 90.0575 141.714 89.5938 141.456 89.2271C141.217 88.8819 140.826 88.6493 140.564 88.3134C140.301 87.9719 140.361 87.3957 139.809 87.2576C139.83 86.5415 139.027 86.6821 138.752 86.2443C138.496 85.8374 138.175 85.3899 137.767 85.1778C137.248 84.9114 137.112 84.1999 136.437 84.1495C136.329 84.1426 136.247 83.8384 136.133 83.6359L134.715 83.0583C134.631 82.8724 134.547 82.6961 134.465 82.5157L133.381 82.0742C133.299 81.8939 133.215 81.7175 133.13 81.5316L132.05 81.0916C131.992 80.9533 131.941 80.8315 131.853 80.6212L130.388 80.0244C130.3 79.8141 130.249 79.6923 130.158 79.4765L128.328 78.7309C128.24 78.5206 128.189 78.3988 128.098 78.1829L125.168 76.9894C125.08 76.7791 125.029 76.6573 124.979 76.5316C124.101 76.114 123.17 75.8129 122.386 75.4338C122.287 75.1824 122.236 75.0606 122.187 74.9444L117.063 72.8565C116.874 72.9264 116.694 72.9956 116.504 73.0694L115.444 72.6374C115.232 72.7072 115.051 72.7708 114.854 72.8376L113.798 72.4072L113.311 72.6126L112.262 72.1854C111.944 72.2712 111.765 72.3175 111.636 72.3522L110.635 71.9443C110.469 72.0009 110.288 72.0645 110.094 72.1368C109.747 72.078 109.45 71.8744 109.005 71.9547C108.491 72.048 107.933 72.1694 107.352 71.9326C106.998 71.7886 106.474 71.8827 106.096 72.0359C105.491 72.2849 104.88 72.3019 104.261 72.3481C104.077 72.3604 103.892 72.3767 103.712 72.4136C103.409 72.4733 103.168 72.6826 102.795 72.641C102.448 72.6051 102.004 73.0206 101.717 72.9172C101.028 72.6641 100.526 73.5013 99.8761 73.1308C99.2552 73.2724 98.7474 73.6757 98.054 73.7143C97.4362 73.7471 96.835 74.1215 96.2291 74.361C95.6786 74.5771 95.1311 74.8083 94.6002 75.0324L94.4431 75.418C93.951 75.6258 93.4804 75.8929 92.9762 76.0178C92.4365 76.1512 92.2499 76.6991 91.7468 76.8887C91.1585 77.1078 90.5624 77.3008 90.0393 77.7529C89.5179 78.2012 88.7387 78.3379 88.1358 78.7162C87.7727 78.9445 87.528 79.3541 87.0618 79.4532C86.9458 79.4793 86.8326 79.5662 86.7477 79.6509C86.4431 79.9489 86.1698 80.2826 85.8465 80.5592C85.5176 80.8381 85.145 81.0671 84.7912 81.3175C84.7927 81.887 83.9542 81.7197 83.9455 82.2805C83.374 82.3459 83.341 82.8876 83.0998 83.2435C82.4403 83.2776 82.5928 84.1059 82.074 84.2891C81.4881 84.4909 81.7026 85.2343 81.2617 85.541C81.1401 85.5924 81.0184 85.6438 80.8968 85.6951C80.7088 86.1003 80.5224 86.5015 80.3705 86.8296C80.1437 86.9253 80.0221 86.9766 79.9004 87.028L75.4165 98.0336C75.4877 98.2186 75.5565 98.398 75.626 98.5869L74.8918 100.389C74.9628 100.597 75.0261 100.779 75.0941 100.972L74.6708 102.01C74.7417 102.241 74.8011 102.421 74.8449 102.572C74.7295 102.855 74.6481 103.111 74.5268 103.342C74.3783 103.616 74.6589 103.928 74.5815 104.061C74.2068 104.712 74.7448 105.481 74.2592 106.1C74.328 106.28 74.3968 106.459 74.4664 106.648L74.1746 107.364C74.2426 107.557 74.418 107.812 74.3551 107.91C74.0685 108.344 74.5957 108.747 74.3143 109.224C74.1254 109.542 74.2352 110.059 74.2731 110.483C74.3079 110.914 74.4238 111.338 74.4925 111.765C74.5007 111.823 74.4781 111.901 74.4416 111.946C74.0634 112.402 74.5542 112.951 74.2792 113.412C74.808 113.935 73.9856 114.504 74.3408 115.071C74.4833 115.294 74.3012 115.651 74.41 115.98C74.494 116.234 74.1747 116.613 74.25 116.878C74.3468 117.225 74.2962 117.484 74.2104 117.807C74.1406 118.091 74.3138 118.441 74.226 118.713C74.0996 119.102 73.968 119.447 74.2245 119.818C73.8904 120.177 74.4578 120.583 74.1972 120.908C73.8475 121.339 74.3374 121.8 74.1046 122.191C73.789 122.719 74.3414 123.352 73.8669 123.842C73.9371 124.389 74.0112 124.938 74.077 125.428C73.9776 125.672 73.9039 125.853 73.8285 126.038C73.8958 126.222 73.9646 126.401 74.0365 126.595L73.5972 127.674C73.6675 127.872 73.7363 128.051 73.7966 128.218C73.6695 128.598 73.5114 128.896 73.6374 129.351C73.7411 129.714 73.4353 130.195 73.3207 130.589C73.3822 130.797 73.4321 130.978 73.4913 131.181L72.9206 132.582L73.1158 133.047C72.582 134.357 72.0353 135.699 71.4926 137.043C71.4734 137.09 71.517 137.163 71.5291 137.223C71.5803 137.344 71.6314 137.466 71.6848 137.593L70.0417 141.627C69.8725 141.704 69.6963 141.789 69.509 141.878L68.6241 144.05C68.4352 144.142 68.2589 144.226 68.0755 144.317L67.4904 145.753L66.9982 145.961C66.8828 146.244 66.6543 146.592 66.6139 146.961C66.554 147.523 65.8164 147.457 65.7791 147.942C65.7401 148.453 65.2063 148.415 65.0206 148.725L64.6342 149.673C64.469 149.752 64.2944 149.833 64.111 149.923L63.8193 150.639C63.6375 150.726 63.4628 150.806 63.2755 150.895L62.9838 151.611C62.851 151.667 62.7146 151.699 62.61 151.775C62.5166 151.847 62.4449 151.956 62.3827 152.063C62.2583 152.279 62.1734 152.487 61.9578 152.679C61.5028 153.077 60.9792 153.396 60.6873 154.011C60.497 154.41 59.9433 154.634 59.4832 154.988L59.2235 155.626C59.0417 155.712 58.8631 155.791 58.7161 155.859C58.5125 156.134 58.5835 156.567 58.1937 156.67C57.7944 156.773 57.7391 157.246 57.3246 157.375C56.9694 157.483 57.1334 158.137 56.6522 158.239C56.1339 158.354 56.3648 159.113 55.8088 159.208C55.3278 159.287 55.5705 159.95 55.1457 160.094C55.024 160.145 54.9024 160.197 54.7807 160.248L54.4841 160.976C54.3039 161.058 54.1277 161.143 53.942 161.228L53.4723 162.38C52.666 162.235 53.0214 163.431 52.2739 163.434C52.0718 163.829 51.8642 164.226 51.6957 164.561C51.4734 164.69 51.3152 164.787 51.1277 164.898L50.7109 165.921C50.5284 165.998 50.4068 166.05 50.1911 166.141L49.5883 167.62C49.3814 167.701 49.2613 167.749 49.1413 167.796L48.3942 169.63C48.2124 169.716 48.0323 169.799 47.8853 169.867L44.7432 177.579C44.8013 177.718 44.8524 177.84 44.943 178.055L44.196 179.889C44.2843 180.099 44.3354 180.221 44.4261 180.437L43.8489 181.853C43.9341 182.173 43.9801 182.352 44.0361 182.563L43.6209 183.582C43.6999 183.77 43.7511 183.892 43.8068 184.025L43.5151 184.741C43.5885 184.931 43.6558 185.115 43.7269 185.3L43.4352 186.016C43.507 186.21 43.5759 186.39 43.6515 186.609C43.1496 187.189 43.7096 187.972 43.2925 188.591C43.5879 188.923 43.2747 189.332 43.4447 189.69C43.6037 190.03 43.4946 190.422 43.559 190.792C43.624 191.172 43.205 191.616 43.5303 192.065C43.2001 192.426 43.6245 192.778 43.5383 193.169C43.4488 193.569 43.5874 194.015 43.6277 194.444C43.668 194.874 43.7988 195.317 43.725 195.723C43.626 196.247 44.1763 196.627 44.0422 196.99C43.8726 197.462 44.3565 197.87 44.0267 198.286C44.1545 198.591 44.3675 198.889 44.3873 199.2C44.4088 199.506 44.3342 199.802 44.4817 200.114C44.7905 200.772 45.0109 201.468 45.3435 202.112C45.6939 202.792 45.8035 203.557 46.3852 204.175C46.8527 204.668 47.011 205.448 47.3081 206.101C47.3353 206.158 47.3662 206.24 47.411 206.253C47.9707 206.408 47.817 207.089 48.1486 207.32C48.6267 207.653 48.6222 208.293 48.9843 208.551C49.4185 208.856 49.4738 209.282 49.7091 209.649C49.875 209.905 50.2289 209.98 50.3138 210.345C50.3857 210.64 50.4588 211 50.8536 211.088C51.0148 211.58 51.6287 211.748 51.7194 212.289C52.2865 212.291 52.12 213.127 52.6799 213.135C52.9709 213.533 53.2635 213.928 53.5584 214.328C54.1958 214.303 54.2665 215.006 54.7129 215.248C54.9091 215.351 54.9841 215.661 55.1586 215.829C55.337 215.998 55.6769 215.939 55.7443 216.099C55.8465 216.343 55.8977 216.465 55.9488 216.586L56.6753 216.882C56.7614 217.064 56.8413 217.239 56.9259 217.425L57.6249 217.71C57.7235 217.906 57.809 218.078 57.903 218.263L58.9633 218.695C59.026 218.845 59.0771 218.967 59.1678 219.182L60.2673 219.63C60.3556 219.841 60.4068 219.962 60.4974 220.178L62.3274 220.924C62.4157 221.134 62.4668 221.256 62.5319 221.411C65.866 222.769 69.2197 224.136 72.5789 225.5C72.6849 225.543 72.8221 225.521 72.9481 225.526C73.0658 225.473 73.1875 225.422 73.3092 225.371L74.77 225.966C74.9588 225.896 75.138 225.827 75.3284 225.753L76.3808 226.182C76.6042 226.117 76.8416 225.961 76.9609 226.028C77.3932 226.259 77.8126 226.219 78.249 226.103C78.7377 226.601 79.3398 226.112 79.9096 226.298C80.4463 226.475 81.1169 226.313 81.7209 226.224C82.6332 226.086 83.5897 226.279 84.4655 225.837C84.8007 225.666 85.2294 225.974 85.5584 225.672C85.8838 225.874 86.2035 225.775 86.4648 225.583C86.8196 225.319 87.2034 225.512 87.567 225.44C88.4157 225.267 89.3297 225.452 90.1201 224.962C90.6803 225.272 91.1095 224.612 91.5742 224.719C92.1782 224.855 92.5644 224.48 93.0397 224.325C93.5797 224.146 94.1935 224.337 94.6894 223.951C95.0307 223.687 95.3753 223.414 95.7532 223.206C96.1549 222.984 96.5963 222.833 97.0244 222.659C97.436 222.492 97.5825 221.941 98.086 221.908C98.5328 221.879 98.5665 221.347 98.962 221.219C99.3931 221.082 99.9469 220.959 100.179 220.637C100.45 220.265 100.79 220.183 101.126 220.022C101.472 219.856 101.562 219.378 102 219.337C102.433 219.297 102.564 218.773 102.887 218.689C103.609 218.501 103.97 217.818 104.663 217.577C105.297 217.358 105.567 216.56 106.248 216.328C106.268 215.841 106.864 215.918 107.015 215.535C107.157 215.175 107.732 215.226 107.792 214.764C108.381 214.711 108.286 213.988 108.649 213.829C109.085 213.635 109.114 213.238 109.358 212.966C109.68 212.602 110.123 212.346 110.583 211.992L110.843 211.355C111.025 211.268 111.203 211.19 111.385 211.103L111.832 210.005C112.535 210.012 112.411 209.237 112.853 208.949C113.245 208.695 113.509 208.239 114.138 207.527L114.587 206.425C114.797 206.336 114.918 206.285 115.073 206.22C115.312 205.633 115.561 205.023 115.813 204.415C115.832 204.368 115.918 204.348 115.971 204.319C116.093 204.268 116.215 204.216 116.336 204.165L116.315 204.138ZM43.1162 122.311C42.7671 122.449 42.403 122.589 42.0412 122.736C41.6812 122.405 41.3201 122.786 40.9423 122.747C40.2063 122.676 39.4691 122.89 38.7571 123.109C38.1698 122.842 37.7386 123.676 37.0999 123.333C36.9531 123.255 36.6284 123.513 36.385 123.615C36.1417 123.718 35.8789 123.79 35.6613 123.931C35.4073 124.093 35.2141 124.354 34.9562 124.515C34.0511 125.073 33.8537 125.254 33.1946 126.119C33.0873 126.259 32.8688 126.312 32.6513 126.43C32.1495 127.661 31.6269 128.944 31.1098 130.224C31.0666 130.331 31.0884 130.468 31.0805 130.589C31.1316 130.71 31.1827 130.832 31.2339 130.954L30.6391 132.414C30.7103 132.599 30.7775 132.782 30.851 132.973L30.6217 133.535C30.6499 134.006 30.6675 134.311 30.6874 134.723C30.8989 135.226 31.1766 135.826 31.4007 136.445C31.5985 136.993 32.0399 137.393 32.2751 137.884C32.5553 138.466 33.1807 138.808 33.2886 139.476C33.9043 140.066 34.2822 140.881 35.0723 141.313C35.3226 141.451 35.4953 141.747 35.6938 141.979C35.8547 142.168 36.003 142.366 36.2067 142.619L37.2003 143.024C37.2927 143.213 37.3765 143.389 37.4666 143.573L38.8999 144.157C38.9604 144.301 39.0115 144.423 39.0998 144.633L41.6249 145.662C41.7812 145.941 41.8754 146.103 41.9789 146.288L44.1073 147.155C44.1794 147.326 44.2305 147.448 44.2816 147.57C44.561 147.716 44.8364 147.86 45.0601 147.974L45.2484 148.423L46.2497 148.831C46.4559 149.089 46.6041 149.287 46.7666 149.472C46.9651 149.705 47.1387 149.986 47.3897 150.135C47.669 150.303 47.898 150.438 48.0817 150.751C48.2856 151.105 48.6951 151.336 48.9708 151.66C49.2888 152.037 49.5584 152.454 49.8493 152.853C50.4164 152.854 50.2427 153.696 50.8098 153.698C51.373 154.597 52.2835 155.262 52.5538 156.363C52.5875 156.505 52.8231 156.601 52.9736 156.704C53.1445 156.824 52.9862 157.269 53.3926 157.159C53.6378 156.782 53.6849 156.25 54.2463 156.176C54.4548 155.642 55.244 155.537 55.2394 154.851C55.4196 154.769 55.5958 154.685 55.7942 154.591C55.8872 154.363 55.9365 153.961 56.0944 153.91C56.5033 153.783 56.6011 153.319 56.9641 153.214C57.4314 153.079 57.2775 152.456 57.6319 152.339C58.0978 152.185 58.0876 151.727 58.3453 151.488C58.614 151.244 58.8691 150.921 59.1781 150.781C59.6159 150.583 59.6532 150.199 59.8265 149.875C60.0082 149.788 60.1829 149.708 60.4034 149.605C60.4128 148.829 61.4047 148.687 61.5187 147.936C62.1805 147.907 62.0139 147.068 62.5445 146.89C63.1248 146.691 62.908 145.942 63.3607 145.64C63.4824 145.588 63.604 145.537 63.8142 145.448L64.2646 144.343C64.4732 144.258 64.5948 144.206 64.7165 144.155L65.3129 142.691C65.4946 142.605 65.6693 142.525 65.855 142.44L66.594 140.626C66.7323 140.567 66.8539 140.516 67.0364 140.439L69.0163 135.579C68.9675 135.463 68.9163 135.341 68.8257 135.126L70.1723 131.82L69.9423 131.272L70.5402 129.805C70.4519 129.594 70.4008 129.473 70.3497 129.351C70.4984 128.93 70.6454 128.513 70.766 128.172C70.673 127.95 70.6219 127.829 70.5685 127.701L70.8634 126.977C70.7923 126.792 70.725 126.609 70.6516 126.418L70.9337 125.726C70.8659 125.51 70.731 125.313 70.77 125.15C70.8466 124.782 71.0748 124.48 70.8795 124.038C70.7159 123.664 71.267 123.256 70.9452 122.753C70.7621 122.472 71.3971 122.116 71.1307 121.815C70.6561 121.979 70.2203 122.127 69.7844 122.275C69.6027 122.913 68.9619 122.867 68.517 123.071C68.0666 123.278 67.641 123.637 67.0639 123.502C66.5566 123.387 66.1642 124.081 65.6049 123.757C65.0718 123.952 64.5039 123.84 63.9644 123.951C63.4808 124.047 62.9646 124.089 62.5064 124.068C61.9639 124.04 61.4022 123.935 60.8639 123.986C60.4106 124.031 59.9924 124.136 59.584 123.868C59.1338 124.153 58.5707 123.804 58.1194 124.125C58.0925 124.146 57.9968 124.089 57.9427 124.053C57.5805 123.818 57.2242 123.962 56.8411 124.003C56.5014 124.039 56.1499 123.621 55.7492 123.93C54.9914 123.598 54.0968 124.018 53.3657 123.487C53.2207 123.382 53.0121 123.365 52.8698 123.321C52.6984 123.394 52.5767 123.445 52.3666 123.534L50.9018 122.937C50.6916 123.026 50.57 123.077 50.4483 123.128C50.011 123.033 49.6503 122.693 49.1884 122.748C49.0462 122.805 48.9261 122.852 48.8005 122.902L47.7245 122.464C47.5303 122.536 47.347 122.603 47.1749 122.666C46.7553 122.404 46.3253 122.403 45.8846 122.563C45.4412 122.111 44.9033 122.443 44.4229 122.431C43.9882 122.419 43.5555 122.559 43.1242 122.291L43.1162 122.311ZM157.038 170.235C156.967 170.05 156.9 169.867 156.826 169.676L157.512 167.992C157.468 167.483 157.524 167.075 157.384 166.756C157.19 166.31 157.63 166.03 157.555 165.651C157.425 165.341 157.297 165.037 157.169 164.732C157.209 164.611 157.255 164.487 157.305 164.343C156.98 163.577 156.65 162.791 156.361 162.118C155.868 161.665 155.573 161.164 155.173 160.822C154.798 160.504 154.639 160.018 154.117 159.782C153.658 159.572 153.329 159.03 152.852 158.808C152.782 158.642 152.731 158.52 152.68 158.398L151.588 157.953C151.506 157.773 151.424 157.593 151.338 157.411L150.639 157.126C150.544 156.931 150.459 156.759 150.365 156.574L149.304 156.142C149.242 155.992 149.191 155.871 149.1 155.655L146.17 154.461C146.082 154.251 146.031 154.129 145.94 153.913L142.642 152.569C142.553 152.359 142.502 152.237 142.437 152.082C141.852 151.844 141.247 151.597 140.64 151.345C140.593 151.326 140.573 151.24 140.54 151.186C140.489 151.064 140.438 150.942 140.387 150.82L138.561 150.076C138.479 149.896 138.396 149.716 138.31 149.534L136.484 148.79C136.49 148.09 135.621 148.268 135.456 147.751C135.284 147.218 134.441 147.388 134.413 146.726C133.972 146.482 133.794 145.964 133.376 145.697C133.248 145.393 133.137 145.082 132.987 144.786C132.827 144.46 132.79 144.068 132.481 143.814C132.213 144.246 131.6 144.359 131.481 144.898C131.374 145.386 130.722 145.323 130.621 145.873C130.532 146.351 129.733 146.411 129.746 147.044C129.092 147.109 129.14 147.812 128.766 148.123C128.639 148.176 128.517 148.228 128.39 148.281L128.095 149.005C127.915 149.088 127.738 149.172 127.553 149.257L127.261 149.973C127.128 150.029 127.007 150.081 126.796 150.169L126.199 151.637L125.695 151.849L122.079 160.726L122.285 161.219L121.688 162.687C121.776 162.897 121.827 163.019 121.918 163.235L121.32 164.702C121.408 164.913 121.459 165.034 121.513 165.162L121.068 166.252C121.14 166.436 121.207 166.62 121.28 166.81L120.998 167.503C121.066 167.719 121.189 167.911 121.168 168.086C121.051 169.071 121.436 170.035 121.267 171.012C121.653 171.628 121.664 172.353 121.698 173.023C121.736 173.75 121.789 174.487 121.817 175.214C121.841 175.82 121.778 176.501 121.995 177.025C122.253 177.64 122.035 178.321 122.417 178.867C122.487 178.965 122.597 179.032 122.687 179.115C123.155 179.113 123.594 179.058 123.784 178.433C124.347 178.208 124.961 177.972 125.57 177.725C126.12 177.499 126.678 177.286 127.21 177.026C127.737 176.768 128.378 177.07 128.855 176.641C129.772 176.592 130.692 176.595 131.597 176.395C132.17 176.743 132.833 176.362 133.433 176.62C133.636 176.708 133.914 176.61 134.465 176.582L135.353 176.944C135.559 176.853 135.681 176.802 135.799 176.749L136.89 177.194C137.079 177.124 137.258 177.055 137.449 176.981L138.509 177.413C138.721 177.343 138.902 177.279 139.03 177.235C139.452 177.38 139.823 177.503 140.188 177.629C140.671 177.174 141.153 177.88 141.655 177.626C142.199 177.347 142.584 178.032 143.117 177.914C143.239 177.863 143.36 177.811 143.482 177.76C143.92 177.842 144.283 178.187 144.767 178.136C144.884 178.083 145.004 178.027 145.121 177.974L145.852 178.271C146.042 178.197 146.225 178.13 146.381 178.074C146.653 178.171 146.921 178.367 147.14 178.323C148.178 178.113 149.29 178.25 150.253 177.651C150.585 177.442 150.964 177.276 151.345 177.197C151.779 177.108 151.824 176.649 152.209 176.48C153.025 176.129 153.793 175.322 154.504 174.387C154.611 174.247 154.83 174.194 155.115 174.035L155.548 172.972C155.758 172.883 155.879 172.832 156.001 172.781L157.045 170.219L157.038 170.235Z" fill="black"/>
<path d="M67.3981 170.086C67.5197 170.035 67.6414 169.984 67.8515 169.895L68.3004 168.793C68.5105 168.705 68.6322 168.653 68.8147 168.576L69.2315 167.553C69.4174 167.445 69.5795 167.351 69.858 167.184L70.2876 166.13C70.4977 166.041 70.6194 165.99 70.7742 165.924L71.2071 164.862C71.3921 164.768 71.5644 164.682 71.7604 164.583L72.0458 163.882C72.2315 163.797 72.4061 163.717 72.5879 163.631C72.7354 163.269 72.8845 162.903 73.0336 162.537C73.1552 162.485 73.2769 162.434 73.487 162.345L74.085 160.878C74.2951 160.789 74.4168 160.738 74.6325 160.647L75.2304 159.179L75.7779 158.948L76.3759 157.48C76.586 157.391 76.7077 157.34 76.9234 157.249L77.6704 155.415C77.8806 155.327 78.0022 155.275 78.1405 155.217L84.7197 139.068C84.664 138.913 84.5952 138.733 84.5233 138.539L86.1681 134.502C86.1161 134.393 86.0595 134.274 86.0416 134.239C85.9938 134.087 85.9408 134.015 85.96 133.967C86.2503 133.232 86.5524 132.502 86.8442 131.786C86.7838 131.642 86.7327 131.52 86.6304 131.277C86.8479 130.709 87.1274 130.057 87.3728 129.432L87.1613 128.928L87.6102 127.827C87.5219 127.616 87.4708 127.495 87.3801 127.279L87.9781 125.811C87.8898 125.601 87.8387 125.479 87.7782 125.335L88.2159 124.261C88.1463 124.072 88.0791 123.889 88.0072 123.694L88.4561 122.592C88.4041 122.484 88.3474 122.365 88.3117 122.295C88.2076 121.753 88.6306 121.411 88.6506 120.924C88.6036 120.781 88.4469 120.547 88.5077 120.42C88.7297 119.988 88.6278 119.575 88.6168 119.13C88.6051 118.776 88.8358 118.457 88.7034 118.018C88.6118 117.715 88.907 117.294 89.055 116.863C89.0133 116.74 88.954 116.56 88.8822 116.343L89.1644 115.65C89.0948 115.462 89.0276 115.278 88.9557 115.084L89.2539 114.352C89.2035 114.24 89.1452 114.124 89.0319 113.885C89.1597 113.414 89.4516 112.9 89.6256 112.361C89.5698 112.228 89.5187 112.106 89.4303 111.896L90.1774 110.062C90.0891 109.852 90.038 109.73 89.9473 109.514L90.8451 107.311L90.6475 106.84L93.671 99.4193C93.848 99.3446 93.9696 99.2932 94.1134 99.2325L95.2981 96.3247C95.4815 96.2343 95.6561 96.154 95.8434 96.0652L96.4318 94.6211C96.6136 94.5346 96.7898 94.4504 96.9755 94.3655L97.3811 93.37C97.7984 93.0537 98.1359 92.7874 98.4874 92.5315C98.8928 92.2333 99.5474 92.3348 99.7541 91.7263C100.17 91.5378 100.587 91.3453 101.009 91.1639C101.298 91.0386 101.58 90.8414 101.931 91.0485C102 91.0907 102.166 90.9654 102.287 90.9275C102.849 90.7619 103.084 90.1283 103.708 90.0017C104.213 89.8957 104.686 89.6113 105.169 89.4042C105.717 89.1731 106.264 88.9419 106.812 88.7108C107.298 88.5053 107.785 88.2998 108.106 88.1644C108.76 88.1327 109.244 88.1236 109.732 88.0838C110.159 88.0468 110.598 87.8813 111.009 87.9388C111.498 88.0094 112.032 87.6307 112.475 88.0821C112.916 87.9221 113.348 87.919 113.766 88.1857C113.938 88.1228 114.121 88.0552 114.315 87.9829L118.329 89.6181C118.379 89.7304 118.432 89.8482 118.539 90.0799C119.056 90.4189 119.764 90.5791 120.255 90.8249C121.105 91.8181 121.859 92.6987 122.613 93.5793C122.662 93.5488 122.711 93.5184 122.76 93.4879C123.022 94.159 123.273 94.8349 123.55 95.503C123.667 95.7892 123.729 96.0988 124.09 96.2688C124.274 96.3574 124.47 96.7308 124.426 96.9286C124.271 97.6455 124.714 98.1655 124.917 98.7574C125.066 99.1897 125.429 99.6359 125.369 100.029C125.299 100.482 125.489 100.78 125.611 101.132C125.764 101.566 125.964 101.987 126.15 102.43C126.106 102.536 125.979 102.714 126.021 102.768C126.316 103.168 126.008 103.643 126.217 104.063C126.354 104.334 126.6 104.618 126.396 104.971C126.824 106.091 126.772 107.276 126.859 108.444C126.868 108.568 126.932 108.69 126.97 108.811C126.845 109.118 126.722 109.421 126.569 109.795C126.602 109.918 126.646 110.101 126.718 110.374L123.884 117.331C123.813 117.37 123.651 117.465 123.371 117.622L122.64 119.416C122.43 119.505 122.309 119.556 122.159 119.619L121.574 121.055C121.391 121.146 121.215 121.23 121.026 121.323L120.141 123.495C119.955 123.58 119.779 123.664 119.597 123.75L118.704 125.942L118.245 126.136C117.904 126.681 117.751 127.394 117.402 128.013C117.281 128.064 117.159 128.116 116.982 128.191L116.264 129.953C116.08 130.057 115.917 130.152 115.637 130.313L115.205 131.371C114.995 131.46 114.874 131.511 114.724 131.574L114.288 132.644C114.105 132.735 113.929 132.819 113.74 132.912L113.155 134.348C112.969 134.433 112.793 134.517 112.611 134.604L112.018 136.06C111.891 136.113 111.769 136.165 111.553 136.256C111.394 136.59 111.208 136.991 111.016 137.395C110.894 137.446 110.773 137.498 110.596 137.572L109.877 139.335C109.693 139.439 109.531 139.533 109.25 139.694L107.772 143.322C107.562 143.411 107.44 143.462 107.291 143.525L104.896 149.404C104.945 149.543 105.008 149.725 105.081 149.929L104.047 152.467C104.12 152.657 104.189 152.837 104.258 153.025L103.515 154.851C103.568 154.978 103.619 155.1 103.707 155.311L103.109 156.778C103.198 156.989 103.249 157.11 103.3 157.232C103.401 157.76 102.728 158.141 103.006 158.695C103.251 159.185 102.561 159.675 103.009 160.16C102.658 160.82 102.84 161.509 102.964 162.17C103.049 162.626 102.566 162.957 102.841 163.473C103.02 163.807 102.865 164.313 102.904 164.733C102.945 165.172 103.094 165.604 102.806 166.019C102.777 166.057 102.791 166.146 102.812 166.195C103.038 166.664 102.845 167.182 102.985 167.66C102.61 168.063 102.966 168.515 102.902 168.943C102.866 169.176 102.965 169.428 103.006 169.697L102.615 170.657C102.66 170.84 102.771 171.083 102.757 171.321C102.744 171.567 102.538 171.814 102.554 172.055C102.567 172.294 102.757 172.513 102.608 172.788C102.483 173.016 102.405 173.274 102.292 173.553C102.339 173.706 102.397 173.89 102.471 174.113L102.045 175.159C102.113 175.352 102.18 175.536 102.25 175.734L101.963 176.438C102.037 176.629 102.104 176.812 102.174 177.001L101.734 178.079C101.806 178.274 101.873 178.457 101.943 178.646L101.654 179.354L101.845 179.808C101.713 180.177 101.566 180.594 101.426 180.982C101.494 181.142 101.545 181.264 101.635 181.48L101.037 182.948L101.24 183.429L100.355 185.601C100.423 185.794 100.49 185.977 100.56 186.176L97.4261 193.868C97.2625 193.944 97.0863 194.028 96.9061 194.111L95.8625 196.672C95.7353 196.726 95.6136 196.777 95.398 196.868C95.0641 197.407 94.9071 198.118 94.5624 198.739C94.4408 198.791 94.3191 198.842 94.1421 198.917L93.783 199.798C93.4 200.165 93.1756 200.491 92.8602 200.647C92.5361 200.813 92.3441 201.015 92.2528 201.34L91.1487 202.308C90.8876 202.477 90.5528 202.478 90.348 202.812C90.1632 203.109 89.8145 203.301 89.4 203.656C87.8073 204.328 86.0487 205.07 84.2846 205.815C83.7427 206.044 83.1921 206.26 82.6439 206.482C82.145 206.201 81.7924 206.718 81.367 206.728C80.6926 206.742 80.0273 206.824 79.3599 206.855C79.1133 206.865 78.8688 206.903 78.5236 206.941L77.5339 206.538C77.4123 206.589 77.2906 206.641 77.0639 206.736C76.7237 206.616 76.3033 206.468 75.8869 206.321C75.7652 206.372 75.6436 206.424 75.4666 206.499L70.2554 204.375C70.202 204.248 70.1509 204.126 70.0997 204.005C69.5269 203.478 68.5372 203.648 68.129 202.885C67.8763 202.415 67.075 202.561 67.0863 201.859L66.3323 201.552C66.1989 200.699 65.3183 200.253 65.1383 199.414C63.9903 197.68 63.6689 196.907 63.2374 194.887C63.1459 194.459 62.7716 194.142 62.9243 193.598C63.0544 193.133 62.358 192.707 62.692 192.146C62.4255 191.619 62.6155 191.041 62.5019 190.499C62.4022 190.013 62.4655 189.521 62.3328 189.026C62.259 188.758 62.2552 188.407 62.262 188.121C62.2658 187.797 62.3002 187.499 62.1448 187.206C62.4844 186.845 61.9436 186.464 62.1698 186.111C62.404 185.738 62.3215 185.379 62.187 185.012C62.6758 184.284 61.8935 183.305 62.7202 182.793C62.6017 182.511 62.5505 182.389 62.4599 182.173L63.0579 180.706C62.9696 180.495 62.9184 180.373 62.8603 180.235L66.1499 172.161C66.3024 172.09 66.4787 172.006 66.6628 171.925C66.9097 171.319 67.1582 170.709 67.4082 170.095L67.3981 170.086ZM121.424 115.062L123.217 110.663C123.147 110.474 123.078 110.295 123.005 110.104L123.583 108.684C123.519 108.46 123.4 108.269 123.421 108.094C123.508 107.419 123.373 106.749 123.339 106.079C123.306 105.41 123.283 104.689 122.91 104.065C123.16 103.34 122.396 102.832 122.458 102.242C122.538 101.449 121.903 100.906 121.941 100.229C121.99 99.3773 121.474 98.7678 121.255 98.0361C121.138 97.6584 120.953 97.3032 120.8 96.9379C120.621 96.5117 120.517 96.0244 120.242 95.6782C119.97 95.3335 119.74 94.9646 119.482 94.6208C119.166 94.1939 118.9 93.6678 118.325 93.4476C118.121 93.3644 117.991 93.1002 117.727 92.8045L113.112 90.9245C112.944 90.989 112.761 91.0566 112.572 91.1265L111.85 90.8321C111.413 91.1956 110.844 90.8169 110.379 91.1369C109.951 91.435 109.409 91.2599 108.922 91.3416C108.441 91.4209 107.949 91.4039 107.459 91.461C106.978 91.5174 106.484 91.5044 105.888 91.5278C105.451 91.7122 104.902 91.9378 104.356 92.1745C103.833 92.4019 103.241 92.5184 102.93 93.0798C102.331 93.1892 102.014 93.7663 101.496 93.9685C100.94 94.1869 100.602 94.6457 100.147 94.9649C99.6991 95.2779 99.3236 95.6938 98.7687 96.2017C98.601 96.5234 98.474 97.1048 98.2334 97.4931C97.9703 97.6107 97.8509 97.6676 97.7277 97.7229L97.2884 98.801C97.1011 98.8899 96.9249 98.974 96.7873 99.0419L93.4945 107.124L93.6944 107.6L92.9473 109.434C93.0356 109.644 93.0868 109.766 93.1774 109.981L92.4303 111.815C92.5187 112.025 92.5698 112.147 92.6302 112.291L92.0435 113.731C92.1114 113.924 92.1786 114.107 92.2505 114.302L91.9604 115.014C92.0299 115.203 92.0972 115.386 92.1706 115.577L91.8757 116.301C92.2372 116.751 91.9145 117.161 91.8138 117.588C92.1942 118.036 91.6016 118.524 91.7805 118.85C92.0635 119.369 91.4926 119.792 91.7013 120.134C92.0183 120.649 91.4684 120.998 91.6063 121.435C91.6574 121.557 91.7085 121.679 91.762 121.806L91.3179 122.896C91.3891 123.081 91.4563 123.264 91.5298 123.455L91.0889 124.537C91.1447 124.67 91.1958 124.791 91.2865 125.007L90.7013 126.443C90.7945 126.743 90.8523 126.927 90.917 127.128L90.505 128.139C90.5757 128.393 90.6256 128.574 90.6832 128.78L90.2648 129.807C90.3415 129.99 90.3927 130.112 90.4577 130.267C90.2205 130.849 89.972 131.459 89.7274 132.071C89.7082 132.118 89.7557 132.192 89.7718 132.254C89.8229 132.376 89.8741 132.497 89.9252 132.619L89.1797 134.449C89.2493 134.638 89.3221 134.819 89.3916 135.008L87.9039 138.659C87.962 138.798 88.0132 138.919 88.1015 139.13L86.6058 142.801C86.6941 143.011 86.7452 143.133 86.8172 143.304L82.3045 154.381L81.8012 154.593L80.4546 157.898C80.2445 157.987 80.1228 158.039 79.9071 158.13L79.306 159.605C79.0974 159.69 78.9774 159.737 78.8573 159.785L78.2609 161.249C78.0792 161.335 77.899 161.418 77.7172 161.504L76.9846 163.302C76.787 163.405 76.6146 163.491 76.4937 163.552C76.3018 163.956 76.2171 164.467 75.9434 164.622C75.5457 164.845 75.3405 165.124 75.2646 165.501C75.17 165.958 74.6814 165.988 74.5114 166.305C74.3246 166.651 74.2289 167.043 73.7622 167.11C73.5169 167.487 73.5055 167.987 73.1228 168.308C73.0098 168.349 72.8859 168.395 72.7729 168.436L72.3241 169.538C72.1368 169.627 71.9621 169.707 71.7787 169.797L71.3411 170.872C71.1973 170.932 71.0756 170.984 70.8655 171.072L70.2675 172.54C70.0574 172.629 69.9357 172.68 69.72 172.771L68.3734 176.076C68.1633 176.165 68.0416 176.217 67.8702 176.289C67.4133 177.41 66.942 178.567 66.473 179.73C66.4281 179.84 66.4421 179.974 66.4303 180.093C66.4814 180.215 66.5325 180.336 66.5883 180.469L65.8476 182.287C65.9211 182.478 65.9884 182.661 66.0579 182.85L65.6187 183.928C65.6889 184.126 65.7578 184.306 65.8227 184.484C65.2915 184.978 65.8612 185.614 65.5802 186.147C65.5035 186.29 65.5485 186.505 65.5606 186.689C65.6375 187.849 65.7143 189.009 65.8062 190.166C65.8981 191.323 66.0033 192.481 66.1041 193.705C66.8074 195.396 67.5432 197.164 68.2813 198.937C68.6995 198.956 68.6626 199.496 68.9046 199.577C69.3376 199.716 69.2668 200.261 69.6898 200.369C69.9981 200.444 70.286 200.603 70.4863 200.684C70.638 200.953 70.7322 201.115 70.7695 201.181L77.0253 203.729C77.1414 203.68 77.2045 203.66 77.2631 203.629C77.6196 203.439 77.8738 203.804 78.1763 203.804C78.4788 203.803 78.7897 203.489 79.0847 203.765C79.5065 204.158 79.966 203.446 80.3705 203.835C80.8572 203.63 81.3546 203.24 81.8246 203.267C82.3939 203.297 82.8192 203.085 83.2867 202.904C83.9004 202.667 84.5103 202.407 85.1101 202.137C85.6419 201.9 86.2692 201.742 86.6641 201.357C87.1654 200.869 87.8274 200.817 88.3523 200.439C88.3985 199.921 89.0259 199.966 89.2488 199.52C89.447 199.123 90.1246 198.977 90.3495 198.583C90.5848 198.174 90.9103 197.926 91.2109 197.626C91.396 197.284 91.4171 196.861 91.7458 196.605C91.8675 196.554 91.9892 196.503 92.1164 196.449L92.8602 194.623C93.042 194.537 93.2205 194.458 93.4023 194.371L94.7345 191.102C94.9289 191.007 95.1013 190.921 95.2277 190.858L96.7266 187.179C96.6639 187.029 96.6128 186.907 96.5221 186.692L97.8688 183.386C97.7804 183.176 97.7293 183.054 97.6387 182.838L98.3857 181.005C98.2974 180.794 98.2463 180.673 98.1557 180.457L98.6045 179.355C98.5162 179.145 98.4651 179.023 98.4101 178.9L98.7066 178.172C98.6371 177.983 98.5643 177.802 98.4994 177.624C98.7623 177.203 98.6833 176.79 98.633 176.33C98.596 175.993 98.8488 175.665 98.7408 175.222C98.6497 174.85 98.9547 174.382 99.066 174.019C98.9976 173.771 98.9516 173.592 98.9148 173.458L99.322 172.458C99.2656 172.293 99.2023 172.111 99.1297 171.907L99.4151 171.207C99.3416 171.016 99.2728 170.837 99.2032 170.648L99.6457 169.562C99.5761 169.373 99.505 169.188 99.4431 169.025C99.5608 168.647 99.7984 168.344 99.5834 167.894C99.4002 167.512 99.9306 167.132 99.6697 166.603C99.4763 166.213 99.7794 165.57 99.5876 165.175C99.3267 164.647 99.9114 164.279 99.6795 163.882C99.4568 163.507 99.7958 163.136 99.5543 162.762C99.3969 162.519 99.6545 162.179 99.4733 161.848C99.2874 161.506 99.8664 161.164 99.6015 160.758C99.3365 160.352 99.9323 159.98 99.7265 159.676C99.3819 159.173 99.935 158.816 99.816 158.377C99.7649 158.255 99.7137 158.134 99.6603 158.006L100.103 156.92C100.029 156.73 99.962 156.547 99.8925 156.358L100.479 154.917C100.409 154.719 100.342 154.536 100.274 154.343L100.859 152.907C100.798 152.763 100.747 152.641 100.657 152.425L101.686 149.899C101.598 149.588 101.548 149.407 101.523 149.333L104.974 140.861L105.433 140.667C105.719 139.967 106.015 139.239 106.317 138.509C106.337 138.461 106.419 138.44 106.469 138.405C106.591 138.354 106.713 138.303 106.84 138.249L107.733 136.057C107.915 135.971 108.089 135.89 108.277 135.802L108.867 134.354C108.999 134.298 109.121 134.246 109.331 134.157L109.929 132.69C110.139 132.601 110.261 132.55 110.477 132.459L111.074 130.991C111.285 130.902 111.406 130.851 111.567 130.783C111.743 130.406 111.931 130 112.093 129.649C112.287 129.567 112.408 129.516 112.53 129.464C112.718 129.059 112.904 128.658 113.06 128.331C113.281 128.238 113.403 128.187 113.53 128.133C113.703 127.708 113.87 127.276 114.055 126.856C114.098 126.75 114.219 126.679 114.3 126.593C114.42 126.532 114.538 126.479 114.665 126.416L115.702 123.87L116.172 123.672L116.919 121.838C117.129 121.749 117.251 121.698 117.466 121.607L118.364 119.404C118.574 119.315 118.696 119.263 118.912 119.172L119.51 117.705C119.72 117.616 119.841 117.565 119.963 117.513C120.35 116.767 120.564 115.937 120.931 115.283C121.163 115.185 121.285 115.134 121.407 115.083L121.424 115.062Z" fill="black"/>
<path d="M76.327 133.493C76.4471 133.445 76.5687 133.394 76.6998 133.342C77.0572 133.038 77.067 132.542 77.3027 132.188C77.7428 131.996 78.1607 131.813 78.5732 131.632L80.0458 132.232C80.1064 132.904 80.1631 133.574 80.2315 134.373L79.6785 135.73C79.0948 135.96 78.4873 136.204 78.0868 136.366C77.5838 136.432 77.2859 136.467 76.9823 136.503C76.9428 136.409 76.8917 136.288 76.8127 136.099C76.5867 135.98 76.3112 135.835 76.0436 135.694C76.0077 135.322 75.974 134.955 75.9278 134.473L76.327 133.493Z" fill="black"/>
<path d="M76.9634 116.208L77.4123 115.106C77.9751 115.051 78.0928 114.324 78.6563 114.278C79.0819 114.245 79.5066 114.225 79.9991 114.196C80.1143 114.386 80.2389 114.597 80.3634 114.808C80.548 114.883 80.7286 114.957 80.9368 115.042C81.184 115.165 81.1724 115.464 81.2993 115.68C81.4269 115.907 81.5473 116.139 81.6258 116.295C81.4045 116.838 81.2298 117.267 81.0551 117.696C81.031 117.755 80.9952 117.809 81.0631 117.676C80.6897 118.02 80.4637 118.226 80.1648 118.499C80.0704 118.483 79.8895 118.455 79.6566 118.42C79.5326 118.466 79.3478 118.537 79.1756 118.6L77.3574 117.859C76.9189 117.373 77.2457 116.717 76.9595 116.206L76.9634 116.208Z" fill="black"/>
<path d="M64.4027 154.107L65.7968 154.675C66.0173 155.246 66.254 155.857 66.5123 156.526L66.0971 157.545C65.9297 157.72 65.6783 157.742 65.4814 157.955C65.0043 158.486 63.7842 158.603 63.2417 158.35C62.8727 158.177 62.9501 157.594 62.457 157.59C62.3654 157.286 62.2572 156.99 62.1917 156.679C62.1414 156.443 62.1526 156.19 62.1247 155.798L62.5254 154.815C63.0988 154.599 63.7093 154.37 64.4011 154.111L64.4027 154.107Z" fill="black"/>
<path d="M102.516 210.821L103.257 209.003C103.553 208.949 104.003 208.867 104.448 208.786C104.423 208.703 104.403 208.617 104.378 208.533L106.318 209.323C106.492 209.738 106.669 210.159 106.85 210.591L106.265 212.027C106.084 212.109 105.91 212.19 105.73 212.272L105.585 212.626C105.215 212.659 104.85 212.689 104.338 212.733L102.951 212.168C102.837 211.819 102.698 211.386 102.514 210.825L102.516 210.821Z" fill="black"/>
<path d="M112.896 182.04C112.593 181.737 112.664 181.261 112.183 181.318C112.007 180.861 111.843 180.432 111.66 179.949L112.088 178.898C112.287 178.713 112.756 178.776 112.701 178.304C113.161 178.119 113.587 177.949 114.051 177.766L115.527 178.368C115.663 178.744 115.813 179.172 115.999 179.693L115.289 181.436C114.63 181.952 113.795 181.924 112.896 182.04Z" fill="black"/>
<path d="M110.687 160.6C111.047 160.48 111.468 160.303 111.905 160.196C112.194 160.126 112.513 160.119 112.816 160.141C113.003 160.153 113.182 160.276 113.39 160.361C113.464 160.515 113.552 160.684 113.649 160.884L114.395 161.188C114.465 161.409 114.545 161.662 114.653 162.004L114.246 163.004C113.939 163.25 113.636 163.6 113.257 163.766C112.872 163.935 112.413 163.927 111.934 164.002C111.217 163.738 110.978 163.549 110.446 163.034C110.301 162.897 110.153 162.809 110.17 162.6C110.216 161.981 110.029 161.318 110.683 160.598L110.687 160.6Z" fill="black"/>
<path d="M88.3745 217.153C88.6178 217.05 88.8611 216.947 89.1266 216.835L91.3179 217.728C91.7499 218.23 91.5443 218.903 91.7088 219.589C91.5315 219.71 91.3266 219.842 91.0622 220.019L90.8186 220.617C90.3305 221.129 89.6666 220.781 89.1454 221.082L88.0459 220.634C87.5512 219.96 87.5358 219.132 87.4659 218.214C87.6407 218.111 87.8519 217.986 88.0939 217.841C88.1773 217.637 88.2767 217.393 88.3761 217.149L88.3745 217.153Z" fill="black"/>
<path d="M108.749 204.928L109.522 203.031C109.81 202.942 110.186 202.829 110.956 202.592C110.952 202.59 111.375 202.552 111.836 202.51C112.018 202.727 112.213 202.957 112.411 203.19C112.904 203.767 113.097 204.9 112.794 205.442C112.649 205.695 111.569 206.572 111.324 206.532C110.997 206.481 110.713 206.558 110.406 206.594C110.146 206.625 109.684 206.533 109.608 206.181C109.523 205.793 109.098 205.804 108.99 205.494C108.925 205.306 108.841 205.13 108.751 204.924L108.749 204.928Z" fill="black"/>
<path d="M79.1944 221.579C79.1981 221.728 79.1884 221.425 79.1739 221.034C79.2883 220.888 79.7761 220.972 79.6967 220.504C80.3396 220.252 80.9494 220.014 81.605 219.754L83.0384 220.338C83.1821 220.726 83.3421 221.154 83.5285 221.652L82.9465 223.08C82.3913 223.286 81.7809 223.514 81.0535 223.782L79.6437 223.208C79.5453 222.865 79.4279 222.422 79.1905 221.578L79.1944 221.579Z" fill="black"/>
<path d="M57.7002 159.937C58.0024 160.207 58.2843 159.886 58.6019 159.859C58.8209 159.962 59.1861 160.01 59.2644 160.189C59.4946 160.714 60.1443 160.951 60.1831 161.586L59.4489 163.388C58.9873 163.847 58.3391 163.505 57.8155 163.801L56.2565 163.166C56.1847 162.848 56.0862 162.404 55.9221 161.672L56.4078 160.479C56.8613 160.288 57.276 160.113 57.7019 159.933L57.7002 159.937Z" fill="black"/>
<path d="M123.057 137.263L123.426 136.358C123.768 136.259 124.212 136.137 124.838 135.961L126.597 136.677C126.668 136.963 126.78 137.408 126.953 138.084L126.251 139.808C125.977 139.852 125.518 139.922 125.059 139.992C125.085 140.085 125.111 140.178 125.137 140.272L124.156 139.872C123.819 139.069 123.491 138.289 123.059 137.259L123.057 137.263Z" fill="black"/>
<path d="M52.5725 207.026L50.6953 206.261C50.5734 205.908 50.4074 205.428 50.2291 204.91L50.9361 203.175C51.1849 203.07 51.4283 202.967 51.6827 202.86L52.3699 203.14C52.6272 203.07 52.86 203.005 53.0691 202.952C54.1189 204.196 54.0795 204.203 54.2191 205.187C54.2739 205.558 54.1679 205.964 53.9908 206.062C53.4918 206.331 53.2325 206.923 52.5708 207.03L52.5725 207.026Z" fill="black"/>
<path d="M115.705 151.037C115.965 151.142 116.267 151.266 116.573 151.39C116.716 151.591 116.826 151.837 117.009 151.985C117.72 152.555 117.497 153.327 117.491 154.049C117.491 154.173 117.43 154.368 117.347 154.403C116.82 154.629 116.552 155.231 115.915 155.366L114.49 154.785C114.275 154.211 114.047 153.6 113.76 152.822L114.313 151.465C114.648 151.363 115.084 151.224 115.713 151.03L115.705 151.037Z" fill="black"/>
<path d="M112.702 190.471C112.546 189.912 111.837 189.706 111.805 189.032L112.538 187.234C113.018 186.774 113.707 187.05 114.277 186.832C114.579 186.955 114.878 187.077 115.164 187.194C115.443 187.532 115.711 187.852 115.981 188.178C115.883 188.418 115.784 188.662 115.688 188.898C115.759 189.083 115.828 189.263 115.901 189.444C115.384 190.206 114.632 190.624 113.782 190.911L112.706 190.473L112.702 190.471Z" fill="black"/>
<path d="M60.0927 210.539C60.3716 211.203 60.6016 211.751 60.8433 212.327L60.3912 213.437C60.2664 213.496 60.0667 213.548 59.9296 213.671C59.7957 213.786 59.7282 213.974 59.6517 214.094C59.283 214.1 58.979 214.105 58.4338 214.116L57.0751 213.563C56.9906 213.253 56.8677 212.813 56.6925 212.187L57.2215 210.888C57.6365 210.465 59.0787 210.241 60.0943 210.535L60.0927 210.539Z" fill="black"/>
<path d="M139.427 104.422C139.787 104.27 139.969 104.193 140.174 104.106L142.012 104.855C142.197 105.018 142.144 105.474 142.599 105.493C142.631 105.842 142.666 106.195 142.715 106.748L142.276 107.826C142.003 107.889 141.562 107.994 140.848 108.161L139.678 107.685C139.372 107.266 138.801 106.915 138.693 106.247C138.94 105.641 139.187 105.035 139.435 104.425L139.427 104.422Z" fill="black"/>
<path d="M138.091 90.3933C138.524 90.8722 138.221 91.5149 138.463 92.0447C138.522 92.1697 138.336 92.4013 138.27 92.5855C138.139 92.9729 137.538 92.8977 137.508 93.3763C137.202 93.4629 136.902 93.57 136.595 93.6282C136.297 93.6857 135.989 93.6887 135.675 93.7168C135.466 93.4759 135.248 93.2585 135.075 93.009C134.896 92.7524 134.594 92.4368 134.637 92.1972C134.701 91.8474 134.661 91.5742 134.533 91.2927L134.982 90.191C135.419 90.0065 135.845 89.8267 136.271 89.647L138.097 90.3909L138.091 90.3933Z" fill="black"/>
<path d="M78.4516 124.086C79.0457 123.842 79.6508 123.593 80.2686 123.335L81.3721 123.785C81.5126 124.182 81.6671 124.612 81.8493 125.131L81.1472 126.854C80.6843 127.372 79.9534 126.918 79.4892 127.294L78.5349 126.905C78.2802 126.608 78.0427 126.337 77.7716 126.025C77.7712 125.97 77.7422 125.839 77.7855 125.732C77.9949 125.185 78.2256 124.641 78.4516 124.086Z" fill="black"/>
<path d="M89.5126 81.7316C89.9563 81.9124 90.2587 82.0356 90.565 82.1604C90.765 82.3887 90.7447 82.8209 91.1817 82.8384C91.2291 83.2614 91.3379 83.6911 91.3011 84.1074C91.2739 84.3991 91.1347 84.6957 90.7806 84.868C90.3989 85.052 90.1812 85.6423 89.7154 85.5718C89.167 85.4906 88.5694 85.9123 88.0656 85.4181C87.8656 85.1897 87.8859 84.7576 87.4489 84.7401C87.4015 84.3171 87.2927 83.8874 87.3295 83.4711C87.3567 83.1794 87.4787 82.8575 87.8539 82.7121C88.0608 82.6313 88.1771 82.3345 88.3796 82.2198C88.7228 82.0292 89.1049 81.9005 89.5142 81.7277L89.5126 81.7316Z" fill="black"/>
<path d="M111.939 172.598L110.769 172.121C110.435 171.536 110.538 170.889 110.458 170.265C110.681 170.067 110.896 169.842 111.146 169.669C111.402 169.489 111.745 169.174 111.961 169.239C112.323 169.341 112.585 169.237 112.86 169.147L113.806 169.532C114.126 169.883 114.333 170.105 114.605 170.404C114.591 170.494 114.563 170.676 114.526 170.913C114.572 171.037 114.643 171.222 114.705 171.394L114.409 172.122C113.977 172.304 113.552 172.484 113.297 172.592C112.879 172.595 112.636 172.597 111.943 172.6L111.939 172.598Z" fill="black"/>
<path d="M97.9181 77.8798C98.0971 78.306 98.276 78.7321 98.4573 79.1639L98.1607 79.8918C97.9916 79.9697 97.8154 80.0539 97.6336 80.1404L97.4893 80.4945C96.8107 80.553 96.1376 80.6091 95.34 80.6787L94.3779 80.2867C94.0622 79.713 94.0903 79.0822 94.05 78.428C94.2679 78.2415 94.5526 78.0823 94.7166 77.8371C94.9283 77.5196 95.2844 77.3986 95.5451 77.3993C95.8649 77.4011 96.1707 77.4936 96.4235 77.2663C96.9458 77.4791 97.4328 77.6775 97.9237 77.8775L97.9181 77.8798Z" fill="black"/>
<path d="M48.0284 186.396L49.5364 187.01C49.7755 187.502 49.9782 187.915 49.9805 187.921C50.0777 188.649 50.1151 188.939 50.1533 189.216C49.6512 189.269 49.5985 189.701 49.4369 190.053C48.9564 190.614 48.2359 190.247 47.6756 190.51C47.0485 189.97 46.5132 189.362 46.2993 188.426L46.7209 187.391C47.0987 187.105 47.5429 186.767 48.0268 186.4L48.0284 186.396Z" fill="black"/>
<path d="M49.2099 181.721C48.719 181.521 48.236 181.324 47.7529 181.127C47.673 180.952 47.5931 180.778 47.5109 180.597L47.1496 180.45C47.1199 180.085 47.0886 179.723 47.0466 179.197L47.4683 178.162C47.806 178.075 48.2424 177.959 48.91 177.781L50.0921 178.263C50.3007 178.504 50.5421 178.777 50.8054 179.086C50.804 179.393 50.7297 179.766 50.9273 180.113C50.6105 180.924 49.9684 181.387 49.2115 181.717L49.2099 181.721Z" fill="black"/>
<path d="M66.172 217.118L65.5837 218.562C65.1048 218.995 64.4558 218.666 63.9433 218.958L62.8084 218.495C62.6732 218.119 62.5187 217.689 62.3349 217.174L63.0563 215.403C63.2159 215.326 63.4475 215.218 63.7431 215.077C63.9906 215.155 64.2853 215.252 64.5816 215.346C64.7033 215.294 64.8249 215.243 65.013 215.163C65.0892 215.291 65.1663 215.428 65.2776 215.615C65.5036 215.735 65.7735 215.882 66.0411 216.023C66.0778 216.405 65.9396 216.789 66.1704 217.122L66.172 217.118Z" fill="black"/>
<path d="M138.03 98.9292C137.861 98.5117 137.688 98.0927 137.507 97.6381L137.97 96.501C138.319 96.3862 138.748 96.2443 139.307 96.0637L141.082 96.7869C141.204 97.1394 141.37 97.6199 141.548 98.1376L140.992 99.503C140.351 99.8519 139.67 99.7581 139.035 99.8436C138.914 99.5787 138.834 99.4039 138.756 99.2252L138.026 98.9276L138.03 98.9292Z" fill="black"/>
<path d="M100.606 77.048L101.206 75.5764C101.805 75.3298 102.41 75.0808 103.03 74.8288L104.483 75.4208C104.646 75.8311 104.815 76.258 105.024 76.779C104.763 77.026 104.46 77.3106 104.059 77.6885C103.418 77.9688 102.639 78.3075 101.887 78.6345L101.141 78.3305C100.96 77.8988 100.781 77.4726 100.604 77.0519L100.606 77.048Z" fill="black"/>
<path d="M111.83 74.1335C112.009 74.5597 112.188 74.9859 112.369 75.4176L111.765 76.901C111.178 77.139 110.569 77.3864 109.934 77.6415C109.6 77.5055 109.235 77.3567 108.87 77.2079C108.691 76.7817 108.512 76.3555 108.331 75.9238L108.914 74.4915C109.581 74.0339 110.339 73.9388 111.245 73.8951C111.343 73.9351 111.587 74.0343 111.83 74.1335Z" fill="black"/>
<path d="M73.8628 144.261C73.7117 143.902 73.635 143.719 73.549 143.514L74.3265 141.606C74.6557 141.506 75.093 141.377 75.6937 141.195L77.0603 141.752C77.2253 142.145 77.3763 142.504 77.5553 142.931L76.9349 144.453C76.5192 144.642 76.1036 144.83 75.7045 145.012L73.8628 144.261Z" fill="black"/>
<path d="M95.8517 216.827C95.8381 216.523 95.8301 216.217 95.8137 215.853C95.8999 215.81 96.0611 215.729 96.2406 215.637L96.3897 215.271C96.8091 215.107 97.2356 214.936 97.7032 214.755L99.1719 215.354C99.3094 215.735 99.4678 216.167 99.651 216.673L99.0594 218.125C98.6978 218.248 98.2635 218.392 97.7203 218.579L96.283 217.994C96.1948 217.66 96.0735 217.216 95.9577 216.769C95.9229 216.787 95.8881 216.805 95.8494 216.821L95.8517 216.827Z" fill="black"/>
<path d="M112.246 197.346C112.345 197.102 112.445 196.858 112.546 196.61C112.493 196.492 112.44 196.375 112.37 196.209C112.868 195.572 113.539 195.194 113.91 195.093C114.571 195.045 114.811 195.028 115.123 195.004C115.3 195.177 115.545 195.419 115.786 195.659C115.939 196.025 116.089 196.388 116.267 196.805L115.831 197.875C115.599 198.074 115.326 198.316 114.98 198.616C114.883 198.595 114.701 198.512 114.527 198.523C114.342 198.54 114.166 198.647 114.003 198.709L113.072 198.33C112.794 198.001 112.516 197.672 112.24 197.348L112.246 197.346Z" fill="black"/>
<path d="M77.5352 96.9238C77.7744 96.6176 78.2434 96.6802 78.2649 96.2118C78.8659 95.9841 79.478 95.7517 80.1809 95.4876L80.8445 95.758C80.986 96.1413 81.1405 96.5713 81.3252 97.0732L80.5845 98.8911C80.2229 99.0144 79.7887 99.1587 79.2454 99.3457L77.71 98.7201C77.6931 98.649 77.613 98.3961 77.5857 98.1373C77.5505 97.7742 77.553 97.4082 77.5368 96.9199L77.5352 96.9238Z" fill="black"/>
<path d="M134.024 131.317C133.844 131.399 133.669 131.479 133.502 131.553C133.441 131.68 133.389 131.797 133.337 131.913C132.911 132.093 132.491 132.27 132.07 132.448C131.587 132.251 131.101 132.052 130.59 131.844C130.508 131.618 130.415 131.374 130.31 131.093L131.222 128.854C131.449 128.758 131.632 128.681 131.814 128.604C131.874 128.592 131.945 128.552 131.992 128.571C132.596 128.808 133.2 129.058 133.781 129.295C133.941 129.755 134.064 130.814 134.02 131.315L134.024 131.317Z" fill="black"/>
<path d="M128.759 84.6506C128.951 84.4948 129.188 84.3068 129.669 83.9246L130.642 83.5137L131.753 83.9665C131.993 84.5594 132.24 85.1651 132.492 85.7952L132.053 86.8733C131.636 87.0429 131.209 87.2132 130.753 87.3991L129.218 86.7735C129.117 86.4937 128.948 86.1315 128.86 85.7516C128.78 85.3977 128.788 85.02 128.754 84.653L128.759 84.6506Z" fill="black"/>
<path d="M71.5658 220.692L72.2087 219.114C72.6455 218.929 73.0658 218.752 73.4861 218.574C73.9691 218.771 74.4522 218.968 74.9313 219.163C75.3378 219.705 75.1859 220.359 75.2793 220.961C75.299 221.07 75.2199 221.231 75.1351 221.315C74.8446 221.624 74.5819 222.021 74.2224 222.173C73.859 222.323 73.3926 222.22 72.9729 222.205C72.8509 222.202 72.689 222.149 72.6156 222.06C72.2673 221.633 71.9443 221.19 71.5674 220.688L71.5658 220.692Z" fill="black"/>
<path d="M67.8299 150.865C67.7393 150.199 67.6973 149.898 67.6518 149.549C67.679 149.482 67.7103 149.293 67.7956 149.263C68.3443 149.074 68.5934 148.272 69.2054 148.388C69.7481 148.494 70.3663 148.067 70.8621 148.682C71.062 149.158 71.2936 149.702 71.5198 150.248C71.543 150.304 71.5481 150.37 71.5602 150.43C71.0538 151.1 70.4217 151.595 69.272 151.888C69.5441 151.838 69.4745 151.874 69.4219 151.857C68.9357 151.668 68.4582 151.469 68.0065 151.285C67.8857 150.997 67.7835 150.754 67.8276 150.859L67.8299 150.865Z" fill="black"/>
<path d="M140.428 116.138L138.928 115.527C138.76 115.129 138.609 114.769 138.428 114.337C138.481 113.813 138.864 113.345 138.969 112.851C139.494 112.372 140.143 112.701 140.649 112.416L141.395 112.72C141.621 113.298 141.861 113.901 142.125 114.568C142.058 114.733 142.022 115.113 141.852 115.182C141.321 115.406 141.101 116.059 140.425 116.133L140.428 116.138Z" fill="black"/>
<path d="M81.1608 107.962L80.6782 109.147C80.2192 109.34 79.7989 109.518 79.3676 109.7L77.9303 109.114L77.6165 108.367L78.3941 106.459C78.7232 106.359 79.155 106.232 79.7635 106.053L80.812 106.481C80.8747 106.754 80.9787 107.195 81.1575 107.97L81.1608 107.962Z" fill="black"/>
<path d="M126.357 81.9835L126.059 82.7154C125.646 82.8866 125.223 83.0585 124.773 83.2421L122.951 82.4997C122.861 82.3028 122.754 82.071 122.63 81.7911L123.283 80.1896C123.545 80.1312 123.987 80.0359 124.428 79.9406C124.834 79.7528 125.204 80.0271 125.465 80.1382C125.766 80.4673 125.972 80.6932 126.244 80.9922C126.231 81.0789 126.209 81.2578 126.171 81.5084C126.213 81.6175 126.282 81.7969 126.353 81.9819L126.357 81.9835Z" fill="black"/>
<path d="M138.69 121.954L137.892 123.914C137.648 124.017 137.405 124.119 137.145 124.229L135.617 123.607C135.506 123.263 135.37 122.832 135.19 122.263L135.752 120.882C136.301 120.513 136.914 120.763 137.517 120.472C137.88 120.932 138.258 121.407 138.692 121.96L138.69 121.954Z" fill="black"/>
<path d="M117.689 144.146C117.732 144.04 117.756 143.802 117.888 143.691C118.304 143.332 118.761 143.019 119.221 142.678L120.843 143.339C120.936 143.56 121.035 143.798 121.14 144.047L120.997 144.398C121.069 144.583 121.137 144.762 121.206 144.942L120.91 145.669C120.491 145.843 120.071 146.02 119.634 146.205L118.114 145.586C118.007 145.23 117.883 144.794 117.689 144.146Z" fill="black"/>
<path d="M85.2933 90.5142L84.9999 91.2342L83.728 91.7712L82.3064 91.192C81.8132 90.7617 82.1739 90.1012 81.893 89.6105C82.4321 89.119 82.9563 88.6077 83.8326 88.4463L84.9243 88.8911C85.3881 89.3599 84.9683 90.0193 85.2933 90.5142Z" fill="black"/>
<path d="M51.3622 196.825L50.87 198.033C50.6101 198.142 50.3723 198.243 50.1235 198.348L48.6312 197.74C48.4914 197.353 48.3353 196.927 48.1482 196.419L48.5602 195.408C48.6385 195.362 48.7377 195.265 48.852 195.242C49.2694 195.151 49.6915 195.048 50.1194 195.02C50.3581 195.007 50.6054 195.131 50.9938 195.234C51.0809 195.604 51.1849 196.046 51.3638 196.821L51.3622 196.825Z" fill="black"/>
<path d="M115.898 77.2771C116.053 77.2117 116.169 77.1627 116.329 77.0949C116.461 76.8504 116.609 76.5759 116.751 76.3172C117.123 76.2807 117.484 76.2489 117.966 76.2019L118.586 76.4547C118.745 76.8634 118.907 77.2871 119.091 77.7662L118.636 78.8837C118.294 78.9921 117.863 79.1285 117.289 79.3122L116.272 78.8978C115.767 78.5313 116.251 77.7926 115.902 77.2787L115.898 77.2771Z" fill="black"/>
<path d="M52.8591 171.224L51.9598 170.857C51.8714 170.67 51.7604 170.437 51.654 170.214C51.5849 169.856 51.8278 169.597 51.9228 169.296C51.9994 169.052 52.1145 168.814 52.1882 168.633C52.6647 168.419 53.0787 168.235 53.4778 168.053L54.2239 168.357L54.7607 169.636L54.1644 171.099C53.8223 171.13 53.4653 171.163 52.8568 171.218L52.8591 171.224Z" fill="black"/>
<path d="M38.3227 136.2C38.0525 135.65 37.9089 135.013 37.5162 134.628C37.111 134.229 37.0444 133.729 36.7429 133.267L38.0831 129.978C38.4858 129.72 38.8206 129.269 39.3533 129.018C39.8401 128.789 40.3733 129.02 40.8418 128.702L42.6718 129.448C42.9838 129.997 43.6299 130.411 43.7438 131.132C43.8478 131.799 43.8706 132.473 43.9397 133.281L42.787 136.11C42.2153 136.322 41.6009 136.549 40.8996 136.809C40.8996 136.809 40.7802 136.765 40.6474 136.721C40.4736 136.787 40.2943 136.857 40.1095 136.928L38.3266 136.202L38.3227 136.2ZM39.5464 134.129L40.2847 134.43C40.5146 134.327 40.754 134.222 41.0061 134.109C41.0284 134.077 41.0579 134.016 41.1047 133.98C41.6119 133.544 41.1336 133.01 41.2198 132.517C41.2878 132.137 40.9374 131.682 40.7607 131.261C40.7515 131.239 40.6703 131.247 40.6073 131.245C40.3868 131.347 40.1552 131.455 39.9806 131.535L39.2271 133.385L39.5409 134.132L39.5464 134.129Z" fill="black"/>
<path d="M150.471 168.518L149.631 170.58C148.992 170.866 148.393 171.135 147.798 171.402C147.537 171.213 147.308 171.313 147.052 171.392C146.831 171.462 146.548 171.347 146.329 171.423C145.894 171.581 145.41 171.42 145.314 171.138C145.091 170.473 144.445 170.619 143.886 170.024C143.87 169.962 143.773 169.583 143.698 169.296L143.203 169.094C143.169 168.727 143.138 168.366 143.088 167.836L144.087 165.385C144.241 165.209 144.696 165.261 144.716 164.829C145.388 164.451 146.089 164.168 146.881 164.179L149.442 165.222C149.498 165.703 150.058 165.812 150.214 166.248C150.388 166.732 150.253 167.232 150.373 167.712C150.432 167.951 150.435 168.201 150.473 168.523L150.471 168.518ZM146.289 168.938C146.642 168.903 147.003 168.871 147.346 168.837L147.795 167.735C147.686 167.475 147.584 167.231 147.479 166.982L146.721 166.674C146.512 166.772 146.277 166.887 146.015 167.014L145.537 168.187C145.788 168.436 146.006 168.653 146.289 168.938Z" fill="black"/>
</g>
</g>
<g clip-path="url(#clip1_215_15)">
<path d="M120.686 19.3169L126.101 22.8432C127.169 23.5401 127.661 24.838 127.335 26.063L125.374 33.3724C124.727 35.783 127.536 37.612 129.472 36.0429L135.356 31.2867C136.347 30.4854 137.733 30.4112 138.801 31.1081L144.216 34.6345C146.601 36.1873 149.573 33.7832 148.558 31.1223L146.251 25.0911C145.793 23.8997 146.157 22.5589 147.148 21.7576L152.17 17.6906C154.382 15.9002 153.019 12.3272 150.175 12.475L144.681 12.7595C142.846 12.8571 141.152 11.7523 140.491 10.0346L138.141 3.8857C137.249 1.54674 133.886 1.71748 133.228 4.13645L131.272 11.4161C130.945 12.6412 129.853 13.5181 128.589 13.5806L122.138 13.9128C119.294 14.0607 118.302 17.7542 120.688 19.307L120.686 19.3169Z" fill="#FF3B27"/>
</g>
<g clip-path="url(#clip2_215_15)">
<path d="M154.625 68.5222L160.688 70.7572C161.885 71.1994 162.653 72.3555 162.607 73.6224L162.319 81.1848C162.224 83.6787 165.369 84.8379 166.908 82.878L171.588 76.9332C172.376 75.9319 173.711 75.5514 174.908 75.9936L180.971 78.2287C183.641 79.2127 186.004 76.2085 184.424 73.8396L180.834 68.4718C180.123 67.4117 180.18 66.0236 180.968 65.0223L184.961 59.941C186.719 57.704 184.597 54.5231 181.857 55.2992L176.564 56.7972C174.796 57.3001 172.899 56.5993 171.872 55.0715L168.215 49.5985C166.826 47.5161 163.585 48.4298 163.481 50.9344L163.191 58.4669C163.145 59.7338 162.274 60.8317 161.056 61.1733L154.84 62.9307C152.1 63.7067 151.954 67.5282 154.625 68.5122L154.625 68.5222Z" fill="#FF3B27"/>
</g>
<g clip-path="url(#clip3_215_15)">
<path d="M74.8032 47.914L80.8764 45.7065C82.0754 45.2719 83.4084 45.6588 84.1913 46.656L88.8536 52.6172C90.3914 54.5829 93.5415 53.4377 93.451 50.9478L93.1876 43.3861C93.1426 42.1128 93.9168 40.9602 95.1158 40.5256L101.189 38.3181C103.864 37.3454 103.729 33.5257 100.992 32.737L94.7858 30.9551C93.5586 30.6045 92.7059 29.5077 92.6609 28.2344L92.4298 21.7762C92.3285 18.9326 88.6539 17.8737 87.0626 20.2352L83.9874 24.7965C82.9623 26.3217 81.0609 27.0115 79.2906 26.5074L72.9641 24.689C70.5591 23.9953 68.6739 26.7855 70.2116 28.7653L74.8529 34.7051C75.6358 35.7022 75.6796 37.1028 74.97 38.1499L71.3572 43.5054C69.7658 45.8669 72.1214 48.8795 74.7962 47.9068L74.8032 47.914Z" fill="#FF3B27"/>
</g>
<defs>
<clipPath id="clip0_215_15">
<rect width="137.191" height="164.442" fill="white" transform="translate(62.0453 47.0002) rotate(22.1671)"/>
</clipPath>
<clipPath id="clip1_215_15">
<rect width="33.39" height="35.24" fill="white" transform="translate(149.608 39.927) rotate(-171.43)"/>
</clipPath>
<clipPath id="clip2_215_15">
<rect width="33.39" height="35.24" fill="white" transform="translate(187.403 82.1909) rotate(175.733)"/>
</clipPath>
<clipPath id="clip3_215_15">
<rect width="33.39" height="35.24" fill="white" transform="translate(108.66 37.1912) rotate(135.522)"/>
</clipPath>
</defs>
</svg>
