<svg width="136" height="181" viewBox="0 0 136 181" fill="none" xmlns="http://www.w3.org/2000/svg">
<g clip-path="url(#clip0_215_16)">
<g style="mix-blend-mode:multiply">
<path d="M78.1394 137.571C77.3185 137.502 76.7256 137.452 76.1328 137.401C75.6212 137.022 75.1563 136.442 74.5939 136.318C73.8123 136.149 73.6313 135.445 73.0861 135.101C72.3806 135.005 72.0957 135.476 71.7915 136.009C71.4373 136.622 71.0967 137.237 70.5967 137.78C69.8502 138.587 69.3203 139.569 68.6173 140.818C68.0443 141.298 67.2089 141.999 66.3629 142.707C66.0297 142.681 65.6973 142.65 65.3866 142.627C65.1651 142.794 64.9653 142.942 64.6915 143.147C63.9779 142.702 63.2478 142.246 62.1185 141.544C62.0492 141.459 61.6687 141.013 61.2928 140.568C60.9085 140.117 60.5699 139.613 60.1341 139.223C59.6584 138.794 59.5035 138.071 58.6801 137.932C58.1621 137.847 58.0332 137.05 57.4202 136.811C56.9499 136.633 56.5955 136.14 56.1899 135.792C56.1077 135.871 56.0118 135.92 55.9963 135.987C55.9601 136.152 55.96 136.323 55.9464 136.492C55.7463 138.855 55.5469 141.213 55.349 143.561C55.2039 143.686 55.0707 143.794 54.8456 143.983C54.7916 144.626 54.732 145.361 54.6707 146.049C53.9981 146.347 54.0533 146.887 54.0055 147.379C53.7789 148.003 52.8152 148.073 52.8564 148.898C52.2773 149.33 51.9169 150.095 51.0503 150.078C50.6119 150.612 49.7232 150.278 49.4413 150.958C48.8529 150.908 48.3509 150.868 47.8451 150.823C47.2517 150.009 46.1756 149.917 45.5023 149.197C44.8998 148.553 44.1612 148.035 43.3975 147.388C43.1926 147.369 42.8594 147.342 42.5262 147.316C42.4139 147.182 42.3009 147.052 42.1932 146.919C42.0452 146.863 41.9038 146.766 41.7537 146.751C41.0032 146.674 40.2453 146.616 39.5293 146.554C39.409 146.669 37.5072 149.202 37.5285 149.271C37.7683 150.04 36.8589 150.428 36.8927 151.044C36.9373 151.791 36.222 152.095 36.133 152.811C36.0448 153.523 35.3733 154.153 35.0195 154.849C34.6299 155.623 34.1546 156.354 33.692 157.065C33.3107 157.645 32.7371 158.13 32.3108 158.731C31.9802 159.199 31.4876 159.697 30.9667 159.857C29.7925 160.225 29.0726 161.153 28.093 161.83C27.5467 162.005 26.9268 162.149 26.3583 162.403C25.8542 162.63 25.5919 163.332 24.8741 163.169C24.5445 163.744 23.8242 163.511 23.3778 163.924C22.9696 164.301 22.1946 163.666 21.8009 164.351C21.2315 164.355 20.6576 164.359 20.1107 164.367C19.9551 164.499 19.8265 164.607 19.6978 164.716C17.1073 164.497 14.5168 164.278 11.981 164.064C11.8183 163.871 11.7098 163.742 11.5855 163.597C11.0977 163.554 10.5956 163.514 10.1123 163.472C9.60171 162.917 8.90393 162.688 8.32183 162.288C7.86834 161.978 7.32893 161.77 6.94123 161.397C6.52945 161.002 6.20587 160.519 5.59627 160.401C5.55295 159.617 4.96375 159.119 4.55607 158.614C4.76761 157.77 5.48778 157.549 5.94803 157.023C6.4133 157.062 6.91011 157.106 7.46242 157.15C8.06304 157.692 8.92379 157.971 9.58589 158.504C10.0441 158.87 10.4881 158.841 10.9438 158.938C11.1208 159.129 11.2895 159.313 11.4665 159.504C11.7997 159.531 12.1322 159.562 12.4474 159.585C12.5754 159.736 12.6839 159.864 12.8429 160.052C14.9637 160.231 17.1437 160.415 19.4701 160.61C19.5479 160.558 19.7493 160.429 20.0861 160.206C20.4418 160.236 21.012 160.454 21.4142 160.284C22.209 159.946 23.0348 159.674 23.8145 159.316C24.3844 159.053 25.1038 159.036 25.5067 158.408C26.0274 157.596 27.1336 157.702 27.7725 156.988C28.3883 156.302 29.1333 155.702 29.9019 155.185C30.6182 154.705 30.9335 153.934 31.4663 153.332C31.8174 152.936 31.844 152.177 32.2339 151.912C32.9247 151.447 32.5699 150.617 33.032 150.193C33.4672 149.792 33.4144 149.095 33.9896 148.828C33.7573 148.069 34.6201 147.655 34.6112 147.057C34.5927 146.291 35.4305 146.03 35.4003 145.336C36.1826 144.677 36.9553 144.022 37.529 143.538C38.1245 143.288 38.4863 143.139 38.992 142.93C40.1732 143.03 41.5232 143.144 42.8688 143.257C43.0375 143.441 43.2054 143.63 43.3704 143.81C44.257 143.76 44.8525 144.361 45.5456 144.733C46.1665 145.066 46.8623 145.392 47.3306 145.838C47.9192 146.396 48.6138 146.787 49.1159 147.252C49.7885 146.729 50.4513 146.208 51.0962 145.712C51.0383 145.046 51.4209 144.627 51.6922 144.126C51.9098 143.727 51.8095 143.151 51.8448 142.736C52.0594 142.554 52.1881 142.445 52.3167 142.337C52.3472 142.263 52.3957 142.192 52.403 142.12C52.5443 140.515 52.6758 138.914 52.8126 137.308C53.2397 136.731 53.666 136.158 54.0102 135.691C54.5718 135.394 55.1279 135.869 55.5425 135.368C54.799 134.539 54.1982 133.516 53.302 132.973C52.3854 132.412 51.9195 131.554 51.2388 130.852C50.4745 130.066 49.8051 129.18 49.0412 128.279C49.0794 127.846 49.1174 127.357 49.1678 126.764C49.9604 125.627 51.1131 124.597 52.6257 123.675C52.6924 123.635 52.7718 123.602 52.8308 123.552C53.6723 122.843 54.5138 122.134 55.3664 121.413C55.7617 121.398 56.1616 121.385 56.6034 121.369C56.5683 121.216 56.5835 121.065 56.5142 120.98C55.9785 120.324 55.427 119.679 54.88 119.035C54.9792 118.03 53.9952 117.684 53.6213 116.972C53.446 116.629 53.3718 116.233 53.1517 115.54C53.1632 115.385 53.2064 114.893 53.2662 114.186C53.6127 113.96 54.1037 113.643 54.942 113.095C54.7928 113.131 55.0912 113.059 55.3753 112.99C55.4234 112.411 55.4689 111.905 55.4983 111.526C55.888 110.979 56.2029 110.522 56.5299 110.076C56.9099 109.56 57.5995 109.385 57.8301 108.623C57.9724 108.147 58.657 107.833 59.0915 107.437C59.5095 107.057 59.957 106.75 60.1468 106.125C60.2751 105.706 60.7985 105.417 61.1265 105.05C61.2229 104.941 61.2161 104.727 61.32 104.628C61.9743 104.018 62.643 103.462 63.1466 102.67C63.5815 101.987 64.3977 101.547 65.0461 101.001C65.0598 100.832 65.0734 100.663 65.0878 100.489C65.7961 99.8883 66.7285 99.416 67.1624 98.6545C67.603 97.8802 68.4082 97.5352 68.7786 96.8512C69.1535 96.1679 69.677 95.7076 70.2192 95.2181C70.8212 94.6735 71.0469 93.7994 71.8106 93.3968C71.6722 92.4588 72.8613 92.4538 73.0234 91.6295C73.1537 90.9433 74.099 90.7321 74.3227 89.9271C74.4568 89.4449 75.1395 89.2557 75.3518 88.606C75.5276 88.066 76.2739 87.7992 76.5513 87.1185C76.7461 86.6324 77.4579 86.3785 77.8442 85.9375C78.208 85.5206 78.3199 84.9193 78.8687 84.6157C79.458 84.291 79.7289 83.6786 80.1059 83.1529C80.441 82.685 81.0034 82.3837 81.4303 81.977C81.523 81.8904 81.4689 81.6551 81.4884 81.4502C82.0599 80.9792 82.6516 80.4977 83.2313 80.005C83.8535 79.4776 84.0551 78.5811 84.8265 78.189C84.6971 77.2525 85.959 77.2547 86.0212 76.4187C86.0348 76.2221 86.2929 76.0284 86.4671 75.8672C87.0048 75.3769 87.6726 74.9956 87.8656 74.2087C88.6662 73.8352 88.7693 72.8626 89.457 72.3875C90.0715 71.9652 90.4345 71.3262 90.8879 70.7574C91.4092 70.1118 92.1517 69.641 92.8002 69.0948C95.3253 66.9634 97.8233 64.7998 100.382 62.7155C101.475 61.8256 102.383 60.7068 103.737 60.1183C104.986 59.5774 105.806 58.4304 106.905 57.6709C107.427 57.3075 108.146 57.2951 108.58 56.7279C108.939 56.2592 109.513 56.1402 110.032 55.9057C110.621 55.641 111.078 55.0775 111.464 54.752C113.01 54.4261 114.186 53.4249 115.817 53.404C115.881 53.3543 116.081 53.202 116.292 53.0422C116.944 53.0977 117.62 53.1522 118.285 53.2099C118.424 53.0984 118.556 52.9951 118.811 52.7916C119.428 52.6379 120.159 52.9743 120.854 52.8796C121.01 53.0621 121.118 53.1907 121.308 53.4159C121.951 53.4698 122.69 53.5302 123.387 53.593C123.706 54.3893 124.52 54.018 124.901 54.376C125.382 54.8289 125.944 55.1563 126.498 55.3854C127.109 55.6375 127.287 56.2213 127.767 56.5631C127.914 56.5731 128.082 56.5913 128.292 56.607C128.711 57.4705 129.833 57.9031 129.839 59.06C130.439 59.7728 131.04 60.4856 131.641 61.1939C131.472 62.0032 132.457 62.284 132.489 62.8811C132.524 63.4924 133.172 63.8292 133.004 64.463C132.979 64.5561 133.203 64.7173 133.334 64.8729C133.147 67.1032 132.955 69.3561 132.772 71.5594C132.585 71.7138 132.455 71.8268 132.305 71.9549C132.264 72.4337 132.224 72.9312 132.18 73.4325C131.988 73.614 131.808 73.7835 131.607 73.968C131.566 74.4468 131.525 74.9533 131.49 75.336C131.252 75.6903 130.996 75.9305 130.916 76.2226C130.788 76.6965 130.153 76.875 130.261 77.4891C130.294 77.684 130.09 77.9143 130.003 78.1359C129.708 78.8647 128.941 79.3731 129.026 80.2746C128.658 80.5985 128.58 81.1959 128.253 81.4432C127.367 82.1126 127.105 83.1795 126.425 83.9472C126.101 84.3152 126.127 84.8695 125.634 85.1406C125.289 85.3294 124.896 85.5844 124.964 86.1041C124.115 87.0569 123.661 88.2544 122.934 89.2825C122.202 90.3099 121.731 91.5 120.873 92.4513C120.783 92.5522 120.847 92.78 120.811 92.9452C120.796 93.012 120.699 93.0656 120.627 93.1094C120.067 93.4805 119.743 94.0241 119.401 94.588C119.061 95.1428 118.222 95.2974 118.026 95.9913C117.846 96.6416 117.269 96.862 116.84 97.2222C116.268 97.7021 116.18 98.5202 115.464 98.9166C114.884 99.2383 114.263 99.6734 113.928 100.224C112.979 101.767 111.446 102.659 110.153 103.812C109.655 104.258 109.557 104.945 108.975 105.34C108.527 105.646 108.07 105.955 107.878 106.622C107.718 107.179 106.759 107.337 106.74 108.134C105.696 108.833 105.312 110.166 104.174 110.771C103.419 111.176 103.355 112.164 102.593 112.613C101.944 112.993 101.206 113.464 100.877 114.09C100.34 115.112 99.4174 115.642 98.6465 116.371C97.854 117.121 96.8297 117.703 96.2695 118.587C95.6966 119.492 94.7956 119.914 94.1433 120.654C93.8773 120.953 93.9864 121.475 93.5219 121.658C92.9241 121.893 92.9327 122.607 92.5064 122.981C92.0592 123.371 91.5931 123.734 91.1654 124.145C91.0727 124.232 91.1261 124.471 91.1188 124.544C90.3458 125.288 89.4724 125.88 88.9419 126.695C88.4121 127.506 87.5425 127.878 86.9996 128.598C86.6106 129.113 86.3781 129.745 85.7731 130.081C85.4575 130.996 84.6264 131.443 83.988 132.07C83.0363 133.001 81.8036 133.614 81.0628 134.783C80.3287 135.94 79.0292 136.509 78.1214 137.568L78.1394 137.571ZM113.466 95.6595C113.815 95.7026 113.997 95.5474 114.013 95.194C114.095 95.2027 114.208 95.2443 114.26 95.2111C114.663 94.9208 114.561 94.2707 115.082 94.055C115.593 93.8424 115.56 93.1666 115.919 92.92C117.034 92.1492 117.614 91.0001 118.316 89.9262C118.618 89.4623 118.748 88.8639 119.315 88.591C119.416 88.5427 120.862 86.106 120.909 85.9888C121.371 84.7418 121.659 84.3124 122.632 83.4491C122.637 83.0478 122.865 82.6411 122.609 82.2526C122.048 81.8098 121.745 82.477 121.085 82.5822C120.807 82.5599 120.319 82.5174 119.876 82.4822C119.689 82.6412 119.56 82.7497 119.335 82.9396C118.687 82.8849 117.953 82.8252 117.309 82.7713C117.084 82.9611 116.956 83.0696 116.827 83.1781C116.086 83.1823 115.349 82.9973 114.712 83.0461C114.478 83.2668 114.357 83.3813 114.243 83.4875C113.718 83.4436 113.212 83.4026 112.724 83.3601C112.517 83.5206 112.321 83.6736 112.146 83.8116C107.572 83.4266 103.025 83.0415 98.5002 82.6601C98.315 82.4635 98.1455 82.2833 97.9685 82.0926C96.7918 81.9933 95.6196 81.8947 94.7078 81.8154C94.2162 81.5411 93.9346 81.2548 93.6646 81.2663C92.8784 81.2953 92.4833 80.3155 91.6371 80.5428C91.5502 80.5656 91.4076 80.3343 91.2723 80.2568C91.0693 80.1405 90.7968 80.1099 90.6417 79.9552C90.1207 79.4357 89.6386 78.8762 89.14 78.3326C88.7954 78.6879 88.3896 78.9085 88.2536 79.4874C88.156 79.8876 87.5681 80.1755 87.1987 80.5129C87.2437 81.3433 86.216 81.3792 86.0586 82.0332C85.8782 82.7713 85.173 82.9847 84.7351 83.4589C84.3024 83.9293 84.1893 84.6229 83.5454 84.9711C83.0377 85.249 82.629 85.7141 82.1787 86.0938C82.1667 86.9056 81.4541 87.164 80.9627 87.5693C80.386 88.044 80.3389 88.9287 79.58 89.2443C79.4856 89.2844 79.4435 89.4578 79.3786 89.5721C79.6136 89.8323 79.8328 90.0761 80.0362 90.3035C81.0284 90.2016 81.6334 91.1417 82.5659 91.1226C82.6724 91.1215 82.7858 91.3619 82.9712 91.5863C83.9565 91.6683 85.0281 91.7598 86.009 91.841C86.1988 92.0662 86.3073 92.1948 86.4233 92.3339C87.815 92.533 89.2381 92.5384 90.5323 92.7401C90.7379 92.9817 90.8464 93.1103 90.9662 93.2547C95.0802 93.6015 99.2076 93.9506 103.332 94.2899C103.483 94.3007 103.634 94.2236 103.789 94.184C103.917 94.0755 104.046 93.967 104.175 93.854C105.188 93.9404 106.195 94.0261 107.204 94.1073C107.405 93.9505 107.597 93.7968 107.803 93.6362C108.305 93.6764 108.807 93.7212 109.281 93.7615C109.502 93.5986 109.698 93.4456 109.85 93.3318C111.077 93.4347 112.254 93.534 113.398 93.6327C113.639 93.9169 113.86 94.1749 114.077 94.4322C114.054 94.6874 114.036 94.9433 114.013 95.194C113.664 95.1509 113.482 95.3061 113.466 95.6595C113.117 95.6165 112.934 95.7717 112.918 96.1251C112.499 96.0891 112.075 96.0524 111.664 96.0179C111.463 96.1746 111.266 96.3321 111.064 96.4934C110.562 96.4532 110.061 96.4085 109.573 96.3659C109.428 96.4902 109.299 96.5987 109.074 96.7886C108.431 96.7346 107.692 96.6743 107.049 96.6203C106.824 96.8102 106.695 96.9187 106.47 97.1085C105.489 97.0273 104.413 96.9351 103.432 96.8538C103.207 97.0437 103.078 97.1522 102.939 97.2682C100.02 97.0236 97.0916 96.7775 94.2189 96.5312C94.0599 96.3435 93.9514 96.2149 93.8038 96.0428C91.993 95.891 90.1409 95.7371 88.2903 95.5742C88.2265 95.5684 88.1676 95.4756 88.1067 95.4241C87.9982 95.2954 87.8897 95.1668 87.7736 95.0276C86.6014 94.929 85.4202 94.829 84.248 94.7304C84.0756 94.5405 83.9069 94.3558 83.7299 94.1651C82.8954 94.0938 82.0556 94.0263 81.3487 93.9666C80.7252 93.5367 80.2476 92.978 79.6755 92.857C78.6785 92.6483 78.7723 91.8174 78.4393 91.2222C78.2771 91.1958 78.115 91.1693 77.904 91.1303C77.7146 91.4416 77.5863 91.8599 77.302 92.0725C76.5014 92.6726 76.2269 93.7329 75.3359 94.2349C75.4418 94.8903 74.8618 95.0731 74.5103 95.3857C74.0825 95.7691 74.0661 96.4091 73.5211 96.7457C73.1251 96.9909 72.6098 97.2306 72.4925 97.7802C72.3569 98.4423 71.7447 98.6524 71.3161 99.0125C70.6504 99.579 70.0795 100.189 69.7639 101.104C70.2046 101.407 70.7007 101.682 71.1027 102.052C71.5325 102.451 71.8004 103.105 72.2882 103.346C72.6602 103.531 72.9563 103.899 73.2791 103.961C73.8625 104.07 74.3121 104.346 74.8201 104.577C75.3107 104.8 75.8239 105 76.3304 105.239C76.8324 105.478 77.4915 105.378 78.0836 105.433C78.1564 105.44 78.2263 105.493 78.2346 105.499C78.4597 105.707 78.6358 105.874 78.8368 106.059C79.6713 106.131 80.4968 106.2 81.272 106.267C81.431 106.454 81.5395 106.583 81.6864 106.76C84.003 106.957 86.3571 107.151 88.7136 107.359C88.7774 107.365 88.837 107.453 88.9024 107.506C89.0109 107.634 89.1194 107.763 89.2354 107.902C91.42 108.087 93.609 108.273 95.8123 108.456C95.9979 108.311 96.1984 108.159 96.4004 107.997C97.066 108.055 97.7414 108.109 98.398 108.166C98.609 108.006 98.805 107.853 99.0115 107.692C99.5136 107.733 100.015 107.777 100.471 107.815C100.707 107.645 100.906 107.502 101.126 107.343C101.623 107.383 102.12 107.427 102.617 107.471C103.068 107.059 103.498 106.662 103.928 106.265C103.856 105.37 105.163 105.384 105.096 104.49C105.594 104.044 106.254 103.68 106.543 103.127C106.906 102.432 107.434 101.972 107.987 101.499C108.499 101.055 109.023 100.622 109.537 100.188C109.551 100.02 109.565 99.8507 109.577 99.6864C110.677 98.7559 111.776 97.83 112.874 96.904C112.898 96.6444 112.916 96.393 112.939 96.1378C113.288 96.1808 113.471 96.0256 113.487 95.6722L113.466 95.6595ZM69.3297 119.994C73.5532 120.35 77.7722 120.704 81.9859 121.063C82.1872 120.906 82.3839 120.749 82.5687 120.608C84.036 120.768 85.118 119.775 86.2309 119.443C87.0474 119.511 87.704 119.568 88.3426 119.621C88.5572 120.261 88.392 120.822 88.3163 121.286C87.52 122.427 86.0902 122.462 85.347 123.391C84.9823 123.359 84.7134 123.278 84.4826 123.333C84.2607 123.39 84.0869 123.662 83.8672 123.705C83.5478 123.763 83.1971 123.646 82.8769 123.71C82.6528 123.752 82.469 123.971 82.2183 124.148C78.1411 123.802 74.0039 123.456 69.8727 123.102C69.7271 123.087 69.5872 122.981 69.4151 122.903C69.3314 122.792 69.2282 122.659 69.1332 122.533C68.1021 122.448 67.0897 122.362 66.0954 122.278C65.9146 122.082 65.7497 121.903 65.569 121.707C64.8988 121.649 64.2279 121.595 63.6035 121.539C63.3972 121.33 63.2263 121.159 63.0403 120.967C62.5435 120.923 62.046 120.883 61.622 120.846C61.409 120.65 61.2524 120.504 61.0958 120.358C60.4639 121.143 61.2744 121.419 61.5222 121.884C61.682 121.896 61.8508 121.91 62.1015 121.932C62.3811 122.288 62.6572 122.721 63.0208 123.072C63.4206 123.456 63.9684 123.698 64.3165 124.115C64.6533 124.517 65.0964 124.663 65.4867 124.935C65.8237 125.165 66.0516 125.554 66.3281 125.872C66.9284 125.706 67.0506 126.517 67.5937 126.503C67.7235 126.501 67.886 126.639 67.9825 126.756C68.3502 127.195 68.7244 127.566 69.3006 127.803C69.786 128.003 69.9586 128.646 70.6195 128.846C71.1707 129.01 71.4061 129.779 72.1115 130.046C72.6471 130.249 72.9759 130.927 73.599 131.246C74.1536 131.53 74.5087 132.217 74.9479 132.728C75.7723 132.691 75.8656 133.622 76.5013 133.892C76.7954 133.903 77.1263 133.915 77.3927 133.926C78.1002 133.329 78.7645 132.8 79.3897 132.227C79.9871 131.681 80.2453 130.863 80.9781 130.396C81.6854 129.942 82.2856 129.323 82.9341 128.777C82.9984 128.723 83.1183 128.668 83.1181 128.613C83.1057 127.894 83.6981 127.607 84.1539 127.307C84.74 126.917 84.7996 126.182 85.3444 125.79C85.7582 125.492 86.089 125.079 86.5225 124.831C87.0077 124.549 86.9792 123.93 87.3451 123.67C88.5102 122.848 89.0875 121.462 90.2873 120.682C90.6435 120.454 90.4503 119.909 90.9018 119.663C91.3421 119.43 91.8953 119.099 92.0364 118.688C92.3333 117.802 93.2807 117.55 93.6331 116.863C94.0786 116.001 94.7947 115.494 95.4641 114.905C96.0355 114.406 96.6347 113.935 97.1897 113.48C97.2042 113.334 97.1956 113.245 97.2179 113.166C97.4715 112.347 98.4966 112.213 98.878 111.263C98.2358 111.26 97.678 111.137 97.1244 111.158C96.9089 111.317 96.7091 111.464 96.5677 111.566C93.9726 111.347 91.4504 111.134 88.9552 110.927C88.8196 110.766 88.7066 110.636 88.5174 110.407C86.0132 110.197 83.4227 109.979 80.9192 109.765C80.7293 109.54 80.6163 109.41 80.4272 109.181C79.6107 109.112 78.7034 109.034 77.8959 108.967C77.7061 108.742 77.5931 108.612 77.4039 108.383C76.7563 108.328 76.0171 108.268 75.365 108.212C75.1841 107.989 75.0756 107.86 74.9716 107.732C74.6249 107.703 74.2918 107.677 73.9638 107.646C73.7868 107.456 73.6226 107.272 73.4577 107.092C72.8239 107.151 72.4032 106.782 71.9048 106.492C71.3635 106.182 70.7803 105.874 70.3198 105.494C69.8841 105.132 69.4254 104.826 68.9853 104.491C68.4835 104.108 68.1296 103.528 67.7619 103.089C66.1497 103.931 65.543 105.668 64.1118 106.563C64.0706 106.589 64.0944 106.727 64.0857 106.808C64.0762 106.895 64.072 106.977 64.0626 107.064C63.3498 107.664 62.637 108.265 61.9286 108.866C61.8977 109.027 61.863 109.183 61.8114 109.443C61.0343 110.098 60.0198 110.677 59.4122 111.54C58.7748 112.444 57.9699 113.098 57.1698 113.837C56.8901 113.88 56.519 113.745 56.353 114.083C56.3205 114.452 56.294 114.786 56.2666 115.096C56.5031 115.375 56.7239 115.637 56.9409 115.894C57.4474 115.935 57.9487 115.98 58.4508 116.02C58.6232 116.21 58.792 116.395 58.9637 116.589C59.2969 116.616 59.6293 116.647 60.0541 116.679C60.1734 117.734 61.5153 116.82 61.7954 117.74C62.3569 117.841 62.9184 117.941 63.4574 118.038C63.5893 118.194 63.6978 118.323 63.8876 118.548C64.5353 118.602 65.27 118.662 65.9124 118.721C66.1022 118.946 66.2152 119.075 66.4043 119.305C67.2208 119.373 68.1281 119.452 68.9401 119.519C69.13 119.744 69.2385 119.873 69.347 120.002L69.3297 119.994ZM128.79 71.197C128.98 71.0245 129.164 70.8558 129.315 70.7232C129.403 69.6741 129.493 68.667 129.566 67.6569C129.571 67.5977 129.466 67.5298 129.408 67.4602C129.012 67.3956 128.617 67.2387 128.219 67.4375C128.085 67.5497 127.956 67.6627 127.816 67.7787C127.492 67.7537 127.16 67.7226 126.827 67.696C126.62 67.8566 126.424 68.0096 126.227 68.1716C125.893 68.145 125.561 68.1139 125.237 68.0888C125.03 68.2494 124.834 68.4024 124.628 68.5629C124.126 68.5227 123.625 68.478 123.141 68.4362C122.992 68.5598 122.863 68.6683 122.638 68.8581C121.995 68.8042 121.256 68.7438 120.613 68.6853C120.388 68.8752 120.259 68.9837 120.034 69.1735C119.387 69.1188 118.652 69.0592 118.009 69.0007C117.784 69.1906 117.656 69.2991 117.516 69.4196C113.42 69.0757 109.315 68.7303 105.256 68.3877C105.101 68.2052 104.992 68.0766 104.86 67.921C104.386 67.8807 103.888 67.8412 103.387 67.7965C103.206 67.6051 103.036 67.4249 102.846 67.2275C102.203 67.1736 101.533 67.1152 100.817 67.0585C100.072 67.6861 99.2989 68.3416 98.527 68.9925C97.7499 69.6472 96.9773 70.3027 96.2001 70.9574C95.3587 71.6664 94.5519 72.418 93.6727 73.0746C92.8676 73.6739 92.5779 74.6855 91.721 75.2625C91.2278 75.5936 90.9157 76.2316 90.5921 76.7707C90.5033 76.9181 90.6634 77.2123 90.7032 77.4222C91.1092 77.456 91.4469 77.4834 91.7748 77.5137C91.9473 77.7036 92.116 77.8883 92.2878 78.0828C92.621 78.1093 92.9534 78.1404 93.2498 78.1656C93.4479 78.3689 93.6181 78.5446 93.7995 78.736C94.3016 78.7763 94.7984 78.8202 95.2637 78.8591C95.3993 79.0199 95.5078 79.1485 95.6976 79.3737C97.1888 79.5011 98.767 79.6335 100.195 79.7507C100.496 80.0309 100.673 80.1938 100.749 80.2663C104.411 80.5766 107.937 80.8738 111.354 81.1579C111.652 80.9707 111.854 80.8417 112.086 80.6946C112.578 80.7379 113.066 80.7759 113.49 80.8126C113.689 80.6461 113.817 80.5376 114.042 80.3478C114.69 80.4025 115.429 80.4628 116.077 80.5175C116.298 80.3269 116.422 80.2177 116.55 80.1092C117.061 80.1509 117.567 80.1963 118.065 80.2358C118.266 80.0791 118.463 79.9216 118.664 79.7648C119.334 79.8232 120.005 79.877 120.68 79.9361C120.973 79.5862 121.329 79.3854 121.78 79.5376C122.272 79.7008 122.492 79.1404 122.878 79.1293C123.37 79.117 123.818 79.2084 124.278 78.8211C124.52 78.6155 125.056 78.7583 125.437 78.7465C125.741 78.158 125.896 77.4342 126.346 77.0867C126.932 76.6368 126.612 75.9327 126.997 75.5607C127.479 75.0983 127.563 74.4138 128.035 73.9868C128.073 73.5538 128.104 73.1335 128.143 72.696C128.322 72.5356 128.507 72.3669 128.696 72.1989C128.722 71.8702 128.753 71.5332 128.779 71.2046L128.79 71.197ZM116.574 56.6438C116.237 56.843 116.044 57.0335 115.819 57.0801C114.968 57.2512 114.243 57.7572 113.382 57.9358C112.778 58.064 112.508 58.954 111.691 58.8301C111.583 58.8125 111.44 59.0389 111.304 59.1369C110.521 59.7166 109.894 60.4698 108.872 60.7796C108.279 60.9602 107.842 61.6287 107.304 62.0358C106.713 62.485 106.276 63.2091 105.51 63.3386C104.754 63.4651 104.479 64.16 104.112 64.3406C104.238 64.6755 104.388 65.0606 104.501 65.3611C105.664 65.4582 106.663 65.5424 107.62 65.6245C107.767 65.801 107.88 65.9304 107.993 66.0643C108.891 66.1413 109.794 66.2146 110.638 66.2873C110.831 66.1246 110.96 66.0161 111.126 65.8767C113.447 66.0702 115.8 66.2733 118.155 66.463C118.219 66.4687 118.292 66.3882 118.363 66.3489C118.492 66.2404 118.62 66.132 118.739 66.031C119.487 66.0051 120.225 66.2177 120.803 66.1594C121.1 65.9258 121.228 65.8218 121.366 65.7102C121.863 65.7542 122.37 65.7952 122.853 65.837C123.065 65.6727 123.264 65.5249 123.471 65.3644C123.973 65.4046 124.474 65.4493 125.067 65.4997C125.316 64.4815 126.274 65.4976 126.768 64.9077C127.331 64.232 128.252 65.2467 128.774 64.6011C129.098 63.8865 128.145 63.5786 128.406 62.9415C128.022 62.4905 127.682 61.9913 127.247 61.5967C126.793 61.1805 126.663 60.646 126.477 60.1118C126.263 59.4944 125.456 59.5941 125.168 59.0939C124.858 58.5534 124.309 58.3806 123.834 58.0859C123.369 57.7928 122.917 57.4695 122.43 57.1404C120.533 56.9792 118.595 56.8158 116.565 56.6468L116.574 56.6438ZM64.9573 139.02C66.0602 138.635 66.6607 137.674 67.1267 136.659C67.2831 136.324 67.6472 136.189 67.7017 135.911C67.7732 135.558 67.9833 135.347 68.1391 135.072C68.4201 134.568 68.7299 134.142 69.1599 133.745C69.5248 133.407 69.7247 132.889 70.0194 132.415C69.2304 132.291 68.9681 131.517 68.4346 131.273C67.8665 131.014 67.5536 130.579 67.1262 130.223C66.7025 129.872 66.167 129.697 65.7864 129.223C65.4609 128.81 64.944 128.406 64.4477 128.302C63.7465 128.151 63.6324 127.291 63.1603 127.237C62.2162 127.13 62.1508 125.857 61.1751 125.943C60.6682 125.393 60.2567 124.656 59.6344 124.332C58.8234 123.918 58.5175 123.128 57.8359 122.601C57.3369 123.195 56.8523 123.842 56.2879 124.411C55.7565 124.949 55.1369 125.402 54.5535 125.89C53.9057 126.432 53.2594 126.964 52.6925 127.436C53.2328 128.121 53.7543 128.779 54.2751 129.442C55.3529 129.58 55.5422 130.688 56.2419 131.246C56.8724 131.747 57.0426 132.773 58.0541 132.836C58.4967 133.667 59.4587 133.921 60.0396 134.612C60.5542 135.227 61.4955 135.381 61.8008 136.203C62.0154 136.219 62.1835 136.237 62.3479 136.25C63.1111 137.156 63.8743 138.062 64.6435 138.959C64.6864 139.008 64.7996 138.994 64.9513 139.028L64.9573 139.02Z" fill="black"/>
</g>
</g>
<g clip-path="url(#clip1_215_16)">
<path d="M22.8498 43.9383L28.4174 40.6582C29.5168 40.0119 30.898 40.1488 31.85 40.986L37.523 45.995C39.3941 47.6466 42.2819 45.9452 41.738 43.5137L40.0973 36.1274C39.8205 34.8838 40.371 33.6091 41.4705 32.9628L47.0381 29.6828C49.4901 28.2377 48.6595 24.5069 45.825 24.2316L39.3973 23.6137C38.1267 23.4932 37.0879 22.5707 36.811 21.3271L35.4038 15.0198C34.7845 12.2426 30.9784 11.873 29.8453 14.4855L27.6554 19.5319C26.9262 21.2186 25.1828 22.2443 23.3502 22.0722L16.798 21.4403C14.3067 21.1978 12.9631 24.2854 14.8366 25.951L20.4851 30.9427C21.437 31.78 21.736 33.1489 21.2297 34.3081L18.6563 40.2336C17.5232 42.8461 20.3896 45.3776 22.8416 43.9325L22.8498 43.9383Z" fill="#FF3B27"/>
</g>
<g clip-path="url(#clip2_215_16)">
<path d="M82.0175 36.5611L86.7172 32.126C87.6455 31.2515 89.0226 31.0781 90.1368 31.6829L96.7809 35.3062C98.9722 36.5008 101.41 34.2002 100.339 31.9503L97.0984 25.1132C96.5522 23.9623 96.8057 22.5971 97.7341 21.7226L102.434 17.2875C104.503 15.3337 102.865 11.8807 100.04 12.2421L93.6354 13.0678C92.3698 13.2327 91.152 12.5641 90.6057 11.4131L87.8322 5.57609C86.6114 3.00589 82.8183 3.49123 82.294 6.29019L81.28 11.697C80.9439 13.5037 79.472 14.891 77.6469 15.1304L71.1181 15.9702C68.6352 16.2873 68.0112 19.5963 70.208 20.8039L76.8244 24.4158C77.9386 25.0207 78.5342 26.289 78.2981 27.5317L77.1057 33.8808C76.5814 36.6797 79.9386 38.5111 82.0083 36.5573L82.0175 36.5611Z" fill="#FF3B27"/>
</g>
<g clip-path="url(#clip3_215_16)">
<path d="M28.0414 98.8735L28.7671 92.4525C28.9114 91.1853 29.8511 90.1638 31.0925 89.9064L38.5056 88.3839C40.9503 87.8815 41.3266 84.5509 39.0565 83.5239L32.1676 80.3949C31.0073 79.8685 30.3196 78.6623 30.464 77.3951L31.1897 70.9741C31.5089 68.1459 28.0282 66.5669 26.1042 68.6666L21.7464 73.4318C20.8863 74.3748 19.5247 74.6503 18.3644 74.124L12.4781 71.457C9.8864 70.2824 7.30302 73.1019 8.70964 75.5778L11.426 80.3615C12.3356 81.9582 12.1072 83.968 10.868 85.329L6.42431 90.1854C4.73285 92.0304 6.3926 94.9603 8.84988 94.4643L16.2345 92.9511C17.4759 92.6937 18.7496 93.2777 19.3716 94.3792L22.5599 99.9977C23.9665 102.474 27.7126 101.705 28.0318 98.8766L28.0414 98.8735Z" fill="#FF3B27"/>
</g>
<defs>
<clipPath id="clip0_215_16">
<rect width="112.547" height="127.25" fill="white" transform="translate(24.3647 37.1621) rotate(9.25705)"/>
</clipPath>
<clipPath id="clip1_215_16">
<rect width="33.39" height="35.24" fill="white" transform="translate(54.1769 27.2097) rotate(124.994)"/>
</clipPath>
<clipPath id="clip2_215_16">
<rect width="33.39" height="35.24" fill="white" transform="translate(108.845 13.29) rotate(112.156)"/>
</clipPath>
<clipPath id="clip3_215_16">
<rect width="33.39" height="35.24" fill="white" transform="translate(33.5049 63.7825) rotate(71.9454)"/>
</clipPath>
</defs>
</svg>
