<svg width="25" height="24" viewBox="0 0 25 24" fill="none" xmlns="http://www.w3.org/2000/svg">
<g clip-path="url(#clip0_43_1948)">
<path d="M25 12C25 18.6274 19.4595 24 12.625 24C5.79049 24 0.25 18.6274 0.25 12C0.25 5.37259 5.79049 0 12.625 0C19.4595 0 25 5.37259 25 12Z" fill="#111114"/>
<path d="M15.0764 15.0917V9.14495C15.0764 9.14495 15.7679 10.2612 18.2669 10.3315C18.3994 10.3355 18.5092 10.2291 18.5092 10.1006V8.42017C18.5092 8.2957 18.4056 8.19531 18.2773 8.18929C16.3393 8.08288 15.418 6.64136 15.329 5.32029C15.3207 5.19782 15.2109 5.10547 15.0826 5.10547H13.1074C12.9749 5.10547 12.8693 5.20987 12.8693 5.33635V14.7886C12.8693 15.8145 12.0597 16.7079 11.0018 16.7561C9.79262 16.8123 8.80916 15.8065 8.9603 14.6159C9.0659 13.7767 9.76156 13.0881 10.6249 12.9716C10.7968 12.9475 10.9645 12.9475 11.126 12.9636C11.2688 12.9797 11.3972 12.8753 11.3972 12.7347V11.0503C11.3972 10.9298 11.304 10.8274 11.1798 10.8194C10.9314 10.8033 10.6788 10.8093 10.42 10.8374C8.51309 11.0462 6.97475 12.542 6.76357 14.3931C6.48406 16.8324 8.44683 18.8983 10.9065 18.8983C13.2088 18.8983 15.0764 17.0874 15.0764 14.8548" fill="white"/>
</g>
<defs>
<clipPath id="clip0_43_1948">
<rect width="24.75" height="24" fill="white" transform="translate(0.25)"/>
</clipPath>
</defs>
</svg>
